<?xml version="1.0" encoding="utf-8" standalone="no"?>
<!DOCTYPE svg PUBLIC "-//W3C//DTD SVG 1.1//EN"
  "http://www.w3.org/Graphics/SVG/1.1/DTD/svg11.dtd">
<svg xmlns:xlink="http://www.w3.org/1999/xlink" width="288pt" height="720pt" viewBox="0 0 288 720" xmlns="http://www.w3.org/2000/svg" version="1.1">
 <metadata>
  <rdf:RDF xmlns:dc="http://purl.org/dc/elements/1.1/" xmlns:cc="http://creativecommons.org/ns#" xmlns:rdf="http://www.w3.org/1999/02/22-rdf-syntax-ns#">
   <cc:Work>
    <dc:type rdf:resource="http://purl.org/dc/dcmitype/StillImage"/>
    <dc:date>2025-12-19T23:11:19.515074</dc:date>
    <dc:format>image/svg+xml</dc:format>
    <dc:creator>
     <cc:Agent>
      <dc:title>Matplotlib v3.10.3, https://matplotlib.org/</dc:title>
     </cc:Agent>
    </dc:creator>
   </cc:Work>
  </rdf:RDF>
 </metadata>
 <defs>
  <style type="text/css">*{stroke-linejoin: round; stroke-linecap: butt}</style>
 </defs>
 <g id="figure_1">
  <g id="patch_1">
   <path d="M 0 720 
L 288 720 
L 288 0 
L 0 0 
z
" style="fill: #ffffff"/>
  </g>
  <g id="axes_1">
   <g id="patch_2">
    <path d="M 36 206.921739 
L 259.2 206.921739 
L 259.2 86.4 
L 36 86.4 
z
" style="fill: #ffffff"/>
   </g>
   <g id="patch_3">
    <path d="M 90.4608 206.921739 
L 259.2 206.921739 
L 259.2 86.4 
L 90.4608 86.4 
z
" clip-path="url(#p76bf347aca)" style="opacity: 0.1"/>
   </g>
   <g id="matplotlib.axis_1">
    <g id="xtick_1">
     <g id="line2d_1">
      <defs>
       <path id="m5eb6888ce7" d="M 0 0 
L 0 3.5 
" style="stroke: #000000; stroke-width: 0.8"/>
      </defs>
      <g>
       <use xlink:href="#m5eb6888ce7" x="36" y="206.921739" style="stroke: #000000; stroke-width: 0.8"/>
      </g>
     </g>
     <g id="line2d_2">
      <defs>
       <path id="m6c3f1fe929" d="M 0 0 
L 0 -3.5 
" style="stroke: #000000; stroke-width: 0.8"/>
      </defs>
      <g>
       <use xlink:href="#m6c3f1fe929" x="36" y="86.4" style="stroke: #000000; stroke-width: 0.8"/>
      </g>
     </g>
    </g>
    <g id="xtick_2">
     <g id="line2d_3">
      <g>
       <use xlink:href="#m5eb6888ce7" x="80.64" y="206.921739" style="stroke: #000000; stroke-width: 0.8"/>
      </g>
     </g>
     <g id="line2d_4">
      <g>
       <use xlink:href="#m6c3f1fe929" x="80.64" y="86.4" style="stroke: #000000; stroke-width: 0.8"/>
      </g>
     </g>
    </g>
    <g id="xtick_3">
     <g id="line2d_5">
      <g>
       <use xlink:href="#m5eb6888ce7" x="125.28" y="206.921739" style="stroke: #000000; stroke-width: 0.8"/>
      </g>
     </g>
     <g id="line2d_6">
      <g>
       <use xlink:href="#m6c3f1fe929" x="125.28" y="86.4" style="stroke: #000000; stroke-width: 0.8"/>
      </g>
     </g>
    </g>
    <g id="xtick_4">
     <g id="line2d_7">
      <g>
       <use xlink:href="#m5eb6888ce7" x="169.92" y="206.921739" style="stroke: #000000; stroke-width: 0.8"/>
      </g>
     </g>
     <g id="line2d_8">
      <g>
       <use xlink:href="#m6c3f1fe929" x="169.92" y="86.4" style="stroke: #000000; stroke-width: 0.8"/>
      </g>
     </g>
    </g>
    <g id="xtick_5">
     <g id="line2d_9">
      <g>
       <use xlink:href="#m5eb6888ce7" x="214.56" y="206.921739" style="stroke: #000000; stroke-width: 0.8"/>
      </g>
     </g>
     <g id="line2d_10">
      <g>
       <use xlink:href="#m6c3f1fe929" x="214.56" y="86.4" style="stroke: #000000; stroke-width: 0.8"/>
      </g>
     </g>
    </g>
    <g id="xtick_6">
     <g id="line2d_11">
      <g>
       <use xlink:href="#m5eb6888ce7" x="259.2" y="206.921739" style="stroke: #000000; stroke-width: 0.8"/>
      </g>
     </g>
     <g id="line2d_12">
      <g>
       <use xlink:href="#m6c3f1fe929" x="259.2" y="86.4" style="stroke: #000000; stroke-width: 0.8"/>
      </g>
     </g>
    </g>
   </g>
   <g id="matplotlib.axis_2">
    <g id="ytick_1">
     <g id="line2d_13">
      <defs>
       <path id="mb041ef8cd9" d="M 0 0 
L -3.5 0 
" style="stroke: #000000; stroke-width: 0.8"/>
      </defs>
      <g>
       <use xlink:href="#mb041ef8cd9" x="36" y="202.934148" style="stroke: #000000; stroke-width: 0.8"/>
      </g>
     </g>
    </g>
    <g id="ytick_2">
     <g id="line2d_14">
      <g>
       <use xlink:href="#mb041ef8cd9" x="36" y="178.898835" style="stroke: #000000; stroke-width: 0.8"/>
      </g>
     </g>
    </g>
    <g id="ytick_3">
     <g id="line2d_15">
      <g>
       <use xlink:href="#mb041ef8cd9" x="36" y="154.863521" style="stroke: #000000; stroke-width: 0.8"/>
      </g>
     </g>
    </g>
    <g id="ytick_4">
     <g id="line2d_16">
      <g>
       <use xlink:href="#mb041ef8cd9" x="36" y="130.828208" style="stroke: #000000; stroke-width: 0.8"/>
      </g>
     </g>
    </g>
    <g id="ytick_5">
     <g id="line2d_17">
      <g>
       <use xlink:href="#mb041ef8cd9" x="36" y="106.792894" style="stroke: #000000; stroke-width: 0.8"/>
      </g>
     </g>
    </g>
   </g>
   <g id="line2d_18">
    <path d="M 36.8928 130.828208 
L 36.8928 130.828208 
L 36.8928 130.828208 
L 36.8928 130.828208 
L 36.8928 130.827727 
L 36.910656 130.816671 
L 36.91512 130.814988 
L 36.964224 130.792635 
L 37.07136 130.737114 
L 37.116 130.713319 
L 37.432944 130.526324 
L 38.267712 129.99274 
L 39.093552 129.431516 
L 44.919072 125.256101 
L 53.436384 119.169879 
L 57.101328 116.653862 
L 66.855168 110.40444 
L 77.979456 104.213905 
L 90.5724 98.577864 
L 104.92416 94.140465 
L 121.302576 91.887394 
L 139.627296 93.206452 
L 142.359264 93.767437 
L 142.363728 93.765754 
L 147.238416 95.013187 
L 148.0464 95.250896 
L 149.3856 95.663582 
L 157.050288 98.480521 
L 165.206016 102.367512 
L 173.884032 107.528134 
L 183.137904 114.227738 
L 193.003344 122.766763 
L 203.524992 133.493243 
L 214.720704 146.759535 
L 226.572624 162.844447 
L 238.991472 181.537191 
L 242.763552 187.358304 
L 256.999248 201.443478 
L 258.9768 186.106545 
L 259.17768 166.669908 
L 259.2 147.890636 
L 259.2 135.003142 
L 259.2 131.382943 
L 259.2 130.922666 
L 259.2 130.87075 
" clip-path="url(#p76bf347aca)" style="fill: none; stroke: #000000; stroke-width: 2; stroke-linecap: square"/>
   </g>
   <g id="line2d_19">
    <path d="M 36.8928 130.828208 
L 36.8928 130.828208 
L 36.8928 130.828208 
L 36.8928 130.828208 
L 36.8928 130.827727 
L 36.901728 130.824843 
L 36.91512 130.814988 
L 36.95976 130.793356 
L 37.066896 130.739277 
L 37.116 130.713319 
L 37.42848 130.528968 
L 38.25432 130.000431 
L 39.093552 129.431275 
L 44.892288 125.273887 
L 53.405136 119.190309 
L 57.101328 116.65266 
L 66.89088 110.382328 
L 78.02856 104.185303 
L 90.634896 98.551425 
L 104.99112 94.117391 
L 121.382928 91.878261 
L 139.712112 93.214384 
L 142.448544 93.783781 
L 142.453008 93.782098 
L 147.082176 94.964155 
L 148.0464 95.245849 
L 149.501664 95.695069 
L 157.179744 98.532197 
L 165.339936 102.436013 
L 174.02688 107.620911 
L 183.28968 114.346712 
L 193.168512 122.922993 
L 203.694624 133.673989 
L 214.908192 146.999167 
L 226.764576 163.120132 
L 238.991472 181.531903 
L 242.736768 187.312877 
L 256.999248 201.435787 
L 258.9768 186.100055 
L 259.17768 166.666062 
L 259.2 147.888954 
L 259.2 135.002661 
L 259.2 131.382943 
L 259.2 130.922666 
L 259.2 130.87075 
" clip-path="url(#p76bf347aca)" style="fill: none; stroke: #1f77b4; stroke-linecap: square"/>
   </g>
   <g id="line2d_20">
    <path d="M 36.8928 130.828208 
L 36.8928 130.828208 
L 36.8928 130.828208 
L 36.8928 130.828208 
L 36.8928 130.827727 
L 36.910656 130.81643 
L 36.91512 130.814988 
L 36.964224 130.792635 
L 37.07136 130.737114 
L 37.116 130.713319 
L 37.432944 130.526084 
L 38.267712 129.992259 
L 39.093552 129.431996 
L 44.88336 125.28254 
L 53.391744 119.203047 
L 57.101328 116.659631 
L 66.904272 110.385933 
L 78.046416 104.191312 
L 90.657216 98.565366 
L 105.017904 94.142628 
L 121.409712 91.916958 
L 139.74336 93.274232 
L 142.479792 93.842907 
L 142.484256 93.84459 
L 147.122352 95.032175 
L 148.0464 95.303533 
L 149.4972 95.751071 
L 157.17528 98.593006 
L 165.335472 102.498985 
L 174.02688 107.689652 
L 183.285216 114.410166 
L 193.164048 122.978034 
L 203.69016 133.719415 
L 214.903728 147.031134 
L 226.760112 163.139601 
L 238.991472 181.546565 
L 242.736768 187.325135 
L 256.999248 201.441075 
L 258.9768 186.106064 
L 259.17768 166.672071 
L 259.2 147.8928 
L 259.2 135.006747 
L 259.2 131.387029 
L 259.2 130.926752 
L 259.2 130.874596 
" clip-path="url(#p76bf347aca)" style="fill: none; stroke: #d62728; stroke-linecap: square"/>
   </g>
   <g id="line2d_21">
    <path d="M 36 130.828208 
L 259.2 130.828208 
" clip-path="url(#p76bf347aca)" style="fill: none; stroke-dasharray: 5.55,2.4; stroke-dashoffset: 0; stroke: #000000; stroke-width: 1.5"/>
   </g>
   <g id="patch_4">
    <path d="M 36 206.921739 
L 36 86.4 
" style="fill: none; stroke: #000000; stroke-width: 0.8; stroke-linejoin: miter; stroke-linecap: square"/>
   </g>
   <g id="patch_5">
    <path d="M 259.2 206.921739 
L 259.2 86.4 
" style="fill: none; stroke: #000000; stroke-width: 0.8; stroke-linejoin: miter; stroke-linecap: square"/>
   </g>
   <g id="patch_6">
    <path d="M 36 206.921739 
L 259.2 206.921739 
" style="fill: none; stroke: #000000; stroke-width: 0.8; stroke-linejoin: miter; stroke-linecap: square"/>
   </g>
   <g id="patch_7">
    <path d="M 36 86.4 
L 259.2 86.4 
" style="fill: none; stroke: #000000; stroke-width: 0.8; stroke-linejoin: miter; stroke-linecap: square"/>
   </g>
  </g>
  <g id="axes_2">
   <g id="patch_8">
    <path d="M 36 351.547826 
L 259.2 351.547826 
L 259.2 231.026087 
L 36 231.026087 
z
" style="fill: #ffffff"/>
   </g>
   <g id="patch_9">
    <path d="M 90.4608 351.547826 
L 259.2 351.547826 
L 259.2 231.026087 
L 90.4608 231.026087 
z
" clip-path="url(#p06632363a5)" style="opacity: 0.1"/>
   </g>
   <g id="matplotlib.axis_3">
    <g id="xtick_7">
     <g id="line2d_22">
      <g>
       <use xlink:href="#m5eb6888ce7" x="36" y="351.547826" style="stroke: #000000; stroke-width: 0.8"/>
      </g>
     </g>
     <g id="line2d_23">
      <g>
       <use xlink:href="#m6c3f1fe929" x="36" y="231.026087" style="stroke: #000000; stroke-width: 0.8"/>
      </g>
     </g>
    </g>
    <g id="xtick_8">
     <g id="line2d_24">
      <g>
       <use xlink:href="#m5eb6888ce7" x="80.64" y="351.547826" style="stroke: #000000; stroke-width: 0.8"/>
      </g>
     </g>
     <g id="line2d_25">
      <g>
       <use xlink:href="#m6c3f1fe929" x="80.64" y="231.026087" style="stroke: #000000; stroke-width: 0.8"/>
      </g>
     </g>
    </g>
    <g id="xtick_9">
     <g id="line2d_26">
      <g>
       <use xlink:href="#m5eb6888ce7" x="125.28" y="351.547826" style="stroke: #000000; stroke-width: 0.8"/>
      </g>
     </g>
     <g id="line2d_27">
      <g>
       <use xlink:href="#m6c3f1fe929" x="125.28" y="231.026087" style="stroke: #000000; stroke-width: 0.8"/>
      </g>
     </g>
    </g>
    <g id="xtick_10">
     <g id="line2d_28">
      <g>
       <use xlink:href="#m5eb6888ce7" x="169.92" y="351.547826" style="stroke: #000000; stroke-width: 0.8"/>
      </g>
     </g>
     <g id="line2d_29">
      <g>
       <use xlink:href="#m6c3f1fe929" x="169.92" y="231.026087" style="stroke: #000000; stroke-width: 0.8"/>
      </g>
     </g>
    </g>
    <g id="xtick_11">
     <g id="line2d_30">
      <g>
       <use xlink:href="#m5eb6888ce7" x="214.56" y="351.547826" style="stroke: #000000; stroke-width: 0.8"/>
      </g>
     </g>
     <g id="line2d_31">
      <g>
       <use xlink:href="#m6c3f1fe929" x="214.56" y="231.026087" style="stroke: #000000; stroke-width: 0.8"/>
      </g>
     </g>
    </g>
    <g id="xtick_12">
     <g id="line2d_32">
      <g>
       <use xlink:href="#m5eb6888ce7" x="259.2" y="351.547826" style="stroke: #000000; stroke-width: 0.8"/>
      </g>
     </g>
     <g id="line2d_33">
      <g>
       <use xlink:href="#m6c3f1fe929" x="259.2" y="231.026087" style="stroke: #000000; stroke-width: 0.8"/>
      </g>
     </g>
    </g>
   </g>
   <g id="matplotlib.axis_4">
    <g id="ytick_6">
     <g id="line2d_34">
      <g>
       <use xlink:href="#mb041ef8cd9" x="36" y="347.49978" style="stroke: #000000; stroke-width: 0.8"/>
      </g>
     </g>
    </g>
    <g id="ytick_7">
     <g id="line2d_35">
      <g>
       <use xlink:href="#mb041ef8cd9" x="36" y="324.439244" style="stroke: #000000; stroke-width: 0.8"/>
      </g>
     </g>
    </g>
    <g id="ytick_8">
     <g id="line2d_36">
      <g>
       <use xlink:href="#mb041ef8cd9" x="36" y="301.378708" style="stroke: #000000; stroke-width: 0.8"/>
      </g>
     </g>
    </g>
    <g id="ytick_9">
     <g id="line2d_37">
      <g>
       <use xlink:href="#mb041ef8cd9" x="36" y="278.318172" style="stroke: #000000; stroke-width: 0.8"/>
      </g>
     </g>
    </g>
    <g id="ytick_10">
     <g id="line2d_38">
      <g>
       <use xlink:href="#mb041ef8cd9" x="36" y="255.257637" style="stroke: #000000; stroke-width: 0.8"/>
      </g>
     </g>
    </g>
    <g id="ytick_11">
     <g id="line2d_39">
      <g>
       <use xlink:href="#mb041ef8cd9" x="36" y="232.197101" style="stroke: #000000; stroke-width: 0.8"/>
      </g>
     </g>
    </g>
   </g>
   <g id="line2d_40">
    <path d="M 36.8928 278.318172 
L 36.8928 278.318172 
L 36.8928 278.318172 
L 36.8928 278.318172 
L 36.8928 278.317711 
L 36.910656 278.307103 
L 36.91512 278.305489 
L 36.964224 278.284043 
L 37.07136 278.230773 
L 37.116 278.207943 
L 37.432944 278.028532 
L 38.267712 277.516588 
L 39.093552 276.978125 
L 44.919072 272.972048 
L 53.436384 267.13266 
L 57.101328 264.718683 
L 66.855168 258.722713 
L 77.979456 252.783241 
L 90.5724 247.375776 
L 104.92416 243.11834 
L 121.302576 240.956645 
L 139.627296 242.222208 
L 142.359264 242.760441 
L 142.363728 242.758826 
L 147.238416 243.955668 
L 148.0464 244.183737 
L 149.3856 244.579686 
L 157.050288 247.282381 
L 165.206016 251.011731 
L 173.884032 255.963058 
L 183.137904 262.390952 
L 193.003344 270.583669 
L 203.524992 280.875125 
L 214.720704 293.603387 
L 226.572624 309.035959 
L 238.991472 326.970599 
L 242.763552 332.55563 
L 256.999248 346.069565 
L 258.9768 331.354637 
L 259.17768 312.706274 
L 259.2 294.688616 
L 259.2 282.323787 
L 259.2 278.85041 
L 259.2 278.4088 
L 259.2 278.35899 
" clip-path="url(#p06632363a5)" style="fill: none; stroke: #000000; stroke-width: 2; stroke-linecap: square"/>
   </g>
   <g id="line2d_41">
    <path d="M 36.8928 278.318172 
L 36.8928 278.318172 
L 36.8928 278.318172 
L 36.8928 278.318172 
L 36.8928 278.318172 
L 36.91512 278.317711 
L 36.964224 278.315175 
L 37.07136 278.304567 
L 37.116 278.299263 
L 37.437408 278.250374 
L 38.267712 278.08872 
L 39.093552 277.907926 
L 44.852112 276.506076 
L 53.356032 274.402955 
L 57.101328 273.507745 
L 66.944448 271.289091 
L 78.108912 269.051527 
L 90.733104 266.972158 
L 105.107184 265.352617 
L 121.50792 264.695161 
L 139.85496 265.665318 
L 142.591392 265.971331 
L 142.595856 265.971331 
L 148.0464 266.708576 
L 149.099904 266.870922 
L 156.7512 268.250404 
L 164.884608 270.101704 
L 173.544768 272.517756 
L 182.77632 275.607637 
L 192.614976 279.493568 
L 203.10984 284.323367 
L 214.283232 290.246696 
L 226.117296 297.380934 
L 238.991472 305.972367 
L 242.834976 308.608647 
L 256.999248 315.132242 
L 258.9768 308.992375 
L 259.17768 301.037643 
L 259.2 292.94916 
L 259.2 285.271616 
L 259.2 280.017042 
L 259.2 278.541168 
L 259.2 278.332239 
" clip-path="url(#p06632363a5)" style="fill: none; stroke: #1f77b4; stroke-linecap: square"/>
   </g>
   <g id="line2d_42">
    <path d="M 36.8928 278.318172 
L 36.8928 278.318172 
L 36.8928 278.318172 
L 36.8928 278.317711 
L 36.8928 278.313099 
L 36.8928 278.312638 
L 36.906192 278.308718 
L 36.91512 278.304106 
L 36.964224 278.281045 
L 37.07136 278.224316 
L 37.116 278.200333 
L 37.432944 278.010775 
L 38.267712 277.473004 
L 39.093552 276.909404 
L 44.887824 272.734986 
L 53.400672 266.593274 
L 57.101328 264.011416 
L 66.895344 257.577065 
L 78.033024 251.100283 
L 90.643824 245.020834 
L 105.004512 239.902548 
L 121.391856 236.63464 
L 139.725504 236.504348 
L 142.461936 236.822814 
L 142.4664 236.823506 
L 146.747376 237.501255 
L 148.0464 237.751462 
L 149.07312 237.962696 
L 156.724416 239.95259 
L 164.85336 242.875513 
L 173.51352 246.933936 
L 182.740608 252.351548 
L 192.583728 259.416374 
L 203.074128 268.425894 
L 214.243056 279.73824 
L 226.090512 293.616532 
L 238.991472 310.532818 
L 243.361728 316.411641 
L 256.999248 327.167305 
L 258.9768 312.305021 
L 259.17768 294.669245 
L 259.2 282.371062 
L 259.2 278.903218 
L 259.2 278.462301 
L 259.2 278.41641 
L 259.2 278.41249 
" clip-path="url(#p06632363a5)" style="fill: none; stroke: #d62728; stroke-linecap: square"/>
   </g>
   <g id="line2d_43">
    <path d="M 36 278.318172 
L 259.2 278.318172 
" clip-path="url(#p06632363a5)" style="fill: none; stroke-dasharray: 5.55,2.4; stroke-dashoffset: 0; stroke: #000000; stroke-width: 1.5"/>
   </g>
   <g id="patch_10">
    <path d="M 36 351.547826 
L 36 231.026087 
" style="fill: none; stroke: #000000; stroke-width: 0.8; stroke-linejoin: miter; stroke-linecap: square"/>
   </g>
   <g id="patch_11">
    <path d="M 259.2 351.547826 
L 259.2 231.026087 
" style="fill: none; stroke: #000000; stroke-width: 0.8; stroke-linejoin: miter; stroke-linecap: square"/>
   </g>
   <g id="patch_12">
    <path d="M 36 351.547826 
L 259.2 351.547826 
" style="fill: none; stroke: #000000; stroke-width: 0.8; stroke-linejoin: miter; stroke-linecap: square"/>
   </g>
   <g id="patch_13">
    <path d="M 36 231.026087 
L 259.2 231.026087 
" style="fill: none; stroke: #000000; stroke-width: 0.8; stroke-linejoin: miter; stroke-linecap: square"/>
   </g>
  </g>
  <g id="axes_3">
   <g id="patch_14">
    <path d="M 36 496.173913 
L 259.2 496.173913 
L 259.2 375.652174 
L 36 375.652174 
z
" style="fill: #ffffff"/>
   </g>
   <g id="patch_15">
    <path d="M 90.4608 496.173913 
L 259.2 496.173913 
L 259.2 375.652174 
L 90.4608 375.652174 
z
" clip-path="url(#p5fc6469fed)" style="opacity: 0.1"/>
   </g>
   <g id="matplotlib.axis_5">
    <g id="xtick_13">
     <g id="line2d_44">
      <g>
       <use xlink:href="#m5eb6888ce7" x="36" y="496.173913" style="stroke: #000000; stroke-width: 0.8"/>
      </g>
     </g>
     <g id="line2d_45">
      <g>
       <use xlink:href="#m6c3f1fe929" x="36" y="375.652174" style="stroke: #000000; stroke-width: 0.8"/>
      </g>
     </g>
    </g>
    <g id="xtick_14">
     <g id="line2d_46">
      <g>
       <use xlink:href="#m5eb6888ce7" x="80.64" y="496.173913" style="stroke: #000000; stroke-width: 0.8"/>
      </g>
     </g>
     <g id="line2d_47">
      <g>
       <use xlink:href="#m6c3f1fe929" x="80.64" y="375.652174" style="stroke: #000000; stroke-width: 0.8"/>
      </g>
     </g>
    </g>
    <g id="xtick_15">
     <g id="line2d_48">
      <g>
       <use xlink:href="#m5eb6888ce7" x="125.28" y="496.173913" style="stroke: #000000; stroke-width: 0.8"/>
      </g>
     </g>
     <g id="line2d_49">
      <g>
       <use xlink:href="#m6c3f1fe929" x="125.28" y="375.652174" style="stroke: #000000; stroke-width: 0.8"/>
      </g>
     </g>
    </g>
    <g id="xtick_16">
     <g id="line2d_50">
      <g>
       <use xlink:href="#m5eb6888ce7" x="169.92" y="496.173913" style="stroke: #000000; stroke-width: 0.8"/>
      </g>
     </g>
     <g id="line2d_51">
      <g>
       <use xlink:href="#m6c3f1fe929" x="169.92" y="375.652174" style="stroke: #000000; stroke-width: 0.8"/>
      </g>
     </g>
    </g>
    <g id="xtick_17">
     <g id="line2d_52">
      <g>
       <use xlink:href="#m5eb6888ce7" x="214.56" y="496.173913" style="stroke: #000000; stroke-width: 0.8"/>
      </g>
     </g>
     <g id="line2d_53">
      <g>
       <use xlink:href="#m6c3f1fe929" x="214.56" y="375.652174" style="stroke: #000000; stroke-width: 0.8"/>
      </g>
     </g>
    </g>
    <g id="xtick_18">
     <g id="line2d_54">
      <g>
       <use xlink:href="#m5eb6888ce7" x="259.2" y="496.173913" style="stroke: #000000; stroke-width: 0.8"/>
      </g>
     </g>
     <g id="line2d_55">
      <g>
       <use xlink:href="#m6c3f1fe929" x="259.2" y="375.652174" style="stroke: #000000; stroke-width: 0.8"/>
      </g>
     </g>
    </g>
   </g>
   <g id="matplotlib.axis_6">
    <g id="ytick_12">
     <g id="line2d_56">
      <g>
       <use xlink:href="#mb041ef8cd9" x="36" y="492.186447" style="stroke: #000000; stroke-width: 0.8"/>
      </g>
     </g>
    </g>
    <g id="ytick_13">
     <g id="line2d_57">
      <g>
       <use xlink:href="#mb041ef8cd9" x="36" y="468.149129" style="stroke: #000000; stroke-width: 0.8"/>
      </g>
     </g>
    </g>
    <g id="ytick_14">
     <g id="line2d_58">
      <g>
       <use xlink:href="#mb041ef8cd9" x="36" y="444.111812" style="stroke: #000000; stroke-width: 0.8"/>
      </g>
     </g>
    </g>
    <g id="ytick_15">
     <g id="line2d_59">
      <g>
       <use xlink:href="#mb041ef8cd9" x="36" y="420.074495" style="stroke: #000000; stroke-width: 0.8"/>
      </g>
     </g>
    </g>
    <g id="ytick_16">
     <g id="line2d_60">
      <g>
       <use xlink:href="#mb041ef8cd9" x="36" y="396.037177" style="stroke: #000000; stroke-width: 0.8"/>
      </g>
     </g>
    </g>
   </g>
   <g id="line2d_61">
    <path d="M 36.8928 420.074495 
L 36.8928 420.074495 
L 36.8928 420.074495 
L 36.8928 420.074495 
L 36.8928 420.074014 
L 36.910656 420.062957 
L 36.91512 420.061274 
L 36.964224 420.038919 
L 37.07136 419.983393 
L 37.116 419.959596 
L 37.432944 419.772586 
L 38.267712 419.238957 
L 39.093552 418.677686 
L 44.919072 414.501923 
L 53.436384 408.415194 
L 57.101328 405.898967 
L 66.855168 399.649024 
L 77.979456 393.457973 
L 90.5724 387.821462 
L 104.92416 383.383693 
L 121.302576 381.130435 
L 139.627296 382.449603 
L 142.359264 383.010634 
L 142.363728 383.008951 
L 147.238416 384.256488 
L 148.0464 384.494217 
L 149.3856 384.906938 
L 157.050288 387.724111 
L 165.206016 391.611426 
L 173.884032 396.772479 
L 183.137904 403.472641 
L 193.003344 412.012378 
L 203.524992 422.739752 
L 214.720704 436.00715 
L 226.572624 452.093403 
L 238.991472 470.787706 
L 242.763552 476.609303 
L 256.999248 490.695652 
L 258.9768 475.35744 
L 259.17768 455.919183 
L 259.2 437.138346 
L 259.2 424.249777 
L 259.2 420.629276 
L 259.2 420.168961 
L 259.2 420.117041 
" clip-path="url(#p5fc6469fed)" style="fill: none; stroke: #000000; stroke-width: 2; stroke-linecap: square"/>
   </g>
   <g id="line2d_62">
    <path d="M 36.8928 420.074495 
L 36.8928 420.074495 
L 36.8928 420.074495 
L 36.8928 420.074495 
L 36.8928 420.074254 
L 36.906192 420.069206 
L 36.906192 420.069206 
L 36.95976 420.066562 
L 37.02672 420.063678 
L 37.424016 420.044448 
L 38.20968 420.002863 
L 41.816592 419.7947 
L 48.985776 419.373326 
L 57.47184 418.910367 
L 67.109616 418.457023 
L 77.778576 418.06209 
L 89.585856 417.769556 
L 102.727872 417.63687 
L 103.4064 417.635668 
L 107.620416 417.641678 
L 112.919184 417.680378 
L 118.490256 417.75946 
L 124.311312 417.884455 
L 130.355568 418.059687 
L 136.61856 418.289243 
L 140.618304 418.46111 
L 140.622768 418.46135 
L 142.62264 418.554375 
L 149.858784 418.926713 
L 157.827024 419.390633 
L 160.295616 419.541106 
L 168.60312 420.019449 
L 169.78608 420.073293 
L 169.906608 420.07834 
L 169.92 420.079062 
L 169.92 420.079062 
L 169.92 420.079062 
L 169.92 420.079062 
L 169.92 420.079062 
" clip-path="url(#p5fc6469fed)" style="fill: none; stroke: #1f77b4; stroke-linecap: square"/>
   </g>
   <g id="line2d_63">
    <path d="M 36.8928 420.074495 
L 36.8928 420.074495 
L 36.8928 420.074495 
L 36.8928 420.074495 
L 36.8928 420.074014 
L 36.906192 420.068966 
L 36.906192 420.068726 
L 36.973152 420.063678 
L 37.04904 420.057909 
L 37.388304 420.028824 
L 38.27664 419.944933 
L 38.43288 419.929549 
L 42.62904 419.490628 
L 50.557104 418.65461 
L 51.016896 418.607737 
L 59.50296 417.784219 
L 69.381792 416.954691 
L 80.465904 416.216986 
L 92.866896 415.660041 
L 106.794576 415.398756 
L 114.5664 415.429523 
L 119.338416 415.512933 
L 125.195184 415.683117 
L 131.270688 415.939355 
L 137.62296 416.294867 
L 141.207552 416.534519 
L 141.21648 416.53548 
L 145.260864 416.840033 
L 152.671104 417.488079 
L 160.5456 418.30006 
L 168.906672 419.281023 
L 178.115904 420.436737 
L 181.088928 420.796335 
L 190.69992 421.187182 
L 192.08376 420.354049 
L 192.226608 420.108387 
L 192.24 420.07834 
L 192.24 420.074975 
L 192.24 420.074495 
L 192.24 420.074495 
L 192.24 420.074495 
" clip-path="url(#p5fc6469fed)" style="fill: none; stroke: #1f77b4; stroke-linecap: square"/>
   </g>
   <g id="line2d_64">
    <path d="M 36.8928 420.074495 
L 36.8928 420.074495 
L 36.8928 420.074495 
L 36.8928 420.074495 
L 36.8928 420.074014 
L 36.906192 420.068245 
L 36.910656 420.067764 
L 36.98208 420.05839 
L 37.07136 420.04613 
L 37.36152 420.001421 
L 38.129328 419.872341 
L 38.651616 419.779557 
L 43.56648 418.849553 
L 51.78024 417.294338 
L 53.043552 417.063099 
L 62.600976 415.422552 
L 73.180656 413.870223 
L 84.938832 412.519085 
L 98.152272 411.522498 
L 113.09328 411.114584 
L 125.7264 411.400629 
L 130.81536 411.685951 
L 137.158704 412.18088 
L 140.738832 412.529661 
L 140.743296 412.529902 
L 145.801008 413.10824 
L 153.24696 414.142325 
L 161.157168 415.480002 
L 169.576272 417.17319 
L 178.544448 419.267802 
L 188.097408 421.791961 
L 198.409248 424.725235 
L 201.01176 425.455969 
L 212.801184 426.916477 
L 214.38144 423.735378 
L 214.542144 421.028536 
L 214.56 420.198287 
L 214.56 420.087955 
L 214.56 420.076658 
L 214.56 420.075696 
L 214.56 420.075216 
" clip-path="url(#p5fc6469fed)" style="fill: none; stroke: #1f77b4; stroke-linecap: square"/>
   </g>
   <g id="line2d_65">
    <path d="M 36.8928 420.074495 
L 36.8928 420.074495 
L 36.8928 420.074495 
L 36.8928 420.074495 
L 36.8928 420.074014 
L 36.910656 420.066562 
L 36.910656 420.065841 
L 36.977616 420.050457 
L 37.09368 420.020651 
L 37.397232 419.933395 
L 38.18736 419.683167 
L 38.874816 419.452889 
L 43.954848 417.646245 
L 52.231104 414.704317 
L 55.074672 413.73345 
L 63.7884 410.935266 
L 74.207376 408.015453 
L 86.121792 405.330966 
L 99.665568 403.224095 
L 115.07976 402.149146 
L 132.426864 402.758251 
L 136.8864 403.238757 
L 140.32368 403.704841 
L 140.328144 403.704841 
L 144.345744 404.352647 
L 151.702416 405.834067 
L 159.514416 407.830606 
L 167.826384 410.443222 
L 176.678496 413.784169 
L 186.115392 417.982527 
L 196.181712 423.175549 
L 206.88192 429.442558 
L 218.698128 437.0059 
L 222.345216 439.35026 
L 234.897984 443.649334 
L 236.67912 436.637889 
L 236.862144 428.390204 
L 236.88 422.279438 
L 236.88 420.359096 
L 236.88 420.100936 
L 236.88 420.074495 
L 236.88 420.071129 
" clip-path="url(#p5fc6469fed)" style="fill: none; stroke: #1f77b4; stroke-linecap: square"/>
   </g>
   <g id="line2d_66">
    <path d="M 36 420.074495 
L 259.2 420.074495 
" clip-path="url(#p5fc6469fed)" style="fill: none; stroke-dasharray: 5.55,2.4; stroke-dashoffset: 0; stroke: #000000; stroke-width: 1.5"/>
   </g>
   <g id="patch_16">
    <path d="M 36 496.173913 
L 36 375.652174 
" style="fill: none; stroke: #000000; stroke-width: 0.8; stroke-linejoin: miter; stroke-linecap: square"/>
   </g>
   <g id="patch_17">
    <path d="M 259.2 496.173913 
L 259.2 375.652174 
" style="fill: none; stroke: #000000; stroke-width: 0.8; stroke-linejoin: miter; stroke-linecap: square"/>
   </g>
   <g id="patch_18">
    <path d="M 36 496.173913 
L 259.2 496.173913 
" style="fill: none; stroke: #000000; stroke-width: 0.8; stroke-linejoin: miter; stroke-linecap: square"/>
   </g>
   <g id="patch_19">
    <path d="M 36 375.652174 
L 259.2 375.652174 
" style="fill: none; stroke: #000000; stroke-width: 0.8; stroke-linejoin: miter; stroke-linecap: square"/>
   </g>
  </g>
  <g id="axes_4">
   <g id="patch_20">
    <path d="M 36 640.8 
L 259.2 640.8 
L 259.2 520.278261 
L 36 520.278261 
z
" style="fill: #ffffff"/>
   </g>
   <g id="patch_21">
    <path d="M 90.4608 640.8 
L 259.2 640.8 
L 259.2 520.278261 
L 90.4608 520.278261 
z
" clip-path="url(#pe104299894)" style="opacity: 0.1"/>
   </g>
   <g id="matplotlib.axis_7">
    <g id="xtick_19">
     <g id="line2d_67">
      <g>
       <use xlink:href="#m5eb6888ce7" x="36" y="640.8" style="stroke: #000000; stroke-width: 0.8"/>
      </g>
     </g>
     <g id="line2d_68">
      <g>
       <use xlink:href="#m6c3f1fe929" x="36" y="520.278261" style="stroke: #000000; stroke-width: 0.8"/>
      </g>
     </g>
    </g>
    <g id="xtick_20">
     <g id="line2d_69">
      <g>
       <use xlink:href="#m5eb6888ce7" x="80.64" y="640.8" style="stroke: #000000; stroke-width: 0.8"/>
      </g>
     </g>
     <g id="line2d_70">
      <g>
       <use xlink:href="#m6c3f1fe929" x="80.64" y="520.278261" style="stroke: #000000; stroke-width: 0.8"/>
      </g>
     </g>
    </g>
    <g id="xtick_21">
     <g id="line2d_71">
      <g>
       <use xlink:href="#m5eb6888ce7" x="125.28" y="640.8" style="stroke: #000000; stroke-width: 0.8"/>
      </g>
     </g>
     <g id="line2d_72">
      <g>
       <use xlink:href="#m6c3f1fe929" x="125.28" y="520.278261" style="stroke: #000000; stroke-width: 0.8"/>
      </g>
     </g>
    </g>
    <g id="xtick_22">
     <g id="line2d_73">
      <g>
       <use xlink:href="#m5eb6888ce7" x="169.92" y="640.8" style="stroke: #000000; stroke-width: 0.8"/>
      </g>
     </g>
     <g id="line2d_74">
      <g>
       <use xlink:href="#m6c3f1fe929" x="169.92" y="520.278261" style="stroke: #000000; stroke-width: 0.8"/>
      </g>
     </g>
    </g>
    <g id="xtick_23">
     <g id="line2d_75">
      <g>
       <use xlink:href="#m5eb6888ce7" x="214.56" y="640.8" style="stroke: #000000; stroke-width: 0.8"/>
      </g>
     </g>
     <g id="line2d_76">
      <g>
       <use xlink:href="#m6c3f1fe929" x="214.56" y="520.278261" style="stroke: #000000; stroke-width: 0.8"/>
      </g>
     </g>
    </g>
    <g id="xtick_24">
     <g id="line2d_77">
      <g>
       <use xlink:href="#m5eb6888ce7" x="259.2" y="640.8" style="stroke: #000000; stroke-width: 0.8"/>
      </g>
     </g>
     <g id="line2d_78">
      <g>
       <use xlink:href="#m6c3f1fe929" x="259.2" y="520.278261" style="stroke: #000000; stroke-width: 0.8"/>
      </g>
     </g>
    </g>
   </g>
   <g id="matplotlib.axis_8">
    <g id="ytick_17">
     <g id="line2d_79">
      <g>
       <use xlink:href="#mb041ef8cd9" x="36" y="622.159583" style="stroke: #000000; stroke-width: 0.8"/>
      </g>
     </g>
    </g>
    <g id="ytick_18">
     <g id="line2d_80">
      <g>
       <use xlink:href="#mb041ef8cd9" x="36" y="594.094686" style="stroke: #000000; stroke-width: 0.8"/>
      </g>
     </g>
    </g>
    <g id="ytick_19">
     <g id="line2d_81">
      <g>
       <use xlink:href="#mb041ef8cd9" x="36" y="566.029789" style="stroke: #000000; stroke-width: 0.8"/>
      </g>
     </g>
    </g>
    <g id="ytick_20">
     <g id="line2d_82">
      <g>
       <use xlink:href="#mb041ef8cd9" x="36" y="537.964892" style="stroke: #000000; stroke-width: 0.8"/>
      </g>
     </g>
    </g>
   </g>
   <g id="line2d_83">
    <path d="M 36.8928 594.094686 
L 36.8928 594.094686 
L 36.8928 594.094686 
L 36.8928 594.094686 
L 36.8928 594.094406 
L 36.910656 594.087951 
L 36.91512 594.086968 
L 36.964224 594.073918 
L 37.07136 594.041503 
L 37.116 594.027611 
L 37.432944 593.918439 
L 38.267712 593.606918 
L 39.093552 593.279261 
L 44.919072 590.841544 
L 53.436384 587.288247 
L 57.101328 585.81933 
L 66.855168 582.170753 
L 77.979456 578.556556 
L 90.5724 575.266087 
L 104.92416 572.675416 
L 121.302576 571.360015 
L 139.627296 572.130116 
L 142.359264 572.457633 
L 142.363728 572.456651 
L 147.238416 573.184935 
L 148.0464 573.323716 
L 149.3856 573.564653 
L 157.050288 575.209256 
L 165.206016 577.478583 
L 173.884032 580.49149 
L 183.137904 584.402895 
L 193.003344 589.388203 
L 203.524992 595.650604 
L 214.720704 603.395814 
L 226.572624 612.786609 
L 238.991472 623.699925 
L 242.763552 627.098444 
L 256.999248 635.321739 
L 258.9768 626.367634 
L 259.17768 615.020014 
L 259.2 604.056181 
L 259.2 596.532122 
L 259.2 594.418555 
L 259.2 594.149834 
L 259.2 594.119524 
" clip-path="url(#pe104299894)" style="fill: none; stroke: #000000; stroke-width: 2; stroke-linecap: square"/>
   </g>
   <g id="line2d_84">
    <path d="M 36.8928 594.094686 
L 36.8928 594.094686 
L 36.8928 594.094686 
L 36.8928 594.094686 
L 36.8928 594.094686 
L 36.8928 594.094546 
L 36.897264 594.094406 
L 36.906192 594.093283 
L 36.91512 594.091459 
L 36.941904 594.082899 
L 37.0044 594.05722 
L 37.116 594.002914 
L 37.410624 593.827929 
L 38.169504 593.312096 
L 39.093552 592.632926 
L 44.767296 588.103392 
L 53.280144 581.091658 
L 57.101328 577.964246 
L 67.029264 569.998587 
L 78.22944 561.397538 
L 90.875952 552.375094 
L 105.276816 543.3135 
L 121.704336 534.987207 
L 140.069232 528.673727 
L 142.805664 528.020938 
L 142.810128 528.019675 
L 147.863376 527.02267 
L 148.0464 526.992219 
L 149.14008 526.814709 
L 156.79584 525.946521 
L 164.933712 525.756522 
L 173.593872 526.420818 
L 182.829888 528.161824 
L 192.677472 531.253453 
L 203.1768 536.05255 
L 214.354656 542.998472 
L 226.215504 552.636519 
L 238.991472 565.955698 
L 243.825984 571.87276 
L 256.999248 590.733073 
L 258.9768 593.937523 
L 259.17768 594.266022 
L 259.2 594.299981 
L 259.2 594.299981 
L 259.2 594.299981 
L 259.2 594.299981 
L 259.2 594.299981 
" clip-path="url(#pe104299894)" style="fill: none; stroke: #1f77b4; stroke-linecap: square"/>
   </g>
   <g id="line2d_85">
    <path d="M 36.8928 594.094686 
L 36.8928 594.094686 
L 36.8928 594.094686 
L 36.8928 594.094686 
L 36.8928 594.094406 
L 36.910656 594.091739 
L 36.91512 594.091739 
L 37.0044 594.090757 
L 37.116 594.089915 
L 37.937376 594.082759 
L 39.093552 594.072375 
L 45.316368 594.013438 
L 53.909568 593.937382 
L 57.101328 593.911984 
L 66.328416 593.848978 
L 77.193792 593.797058 
L 89.630496 593.770677 
L 103.826016 593.786955 
L 120.043728 593.870307 
L 138.243456 594.051326 
L 143.711856 594.124575 
L 143.71632 594.124716 
L 148.0464 594.188984 
L 149.372208 594.209893 
L 157.036896 594.340815 
L 165.18816 594.500224 
L 173.866176 594.69303 
L 183.120048 594.925407 
L 192.981024 595.204232 
L 203.498208 595.537503 
L 214.69392 595.933639 
L 226.541376 596.398113 
L 238.991472 596.92896 
L 242.768016 597.094683 
L 256.999248 597.579785 
L 258.9768 597.328464 
L 259.17768 596.970496 
L 259.2 596.602285 
L 259.2 596.23281 
L 259.2 595.863336 
L 259.2 595.493721 
L 259.2 594.095247 
" clip-path="url(#pe104299894)" style="fill: none; stroke: #d62728; stroke-linecap: square"/>
   </g>
   <g id="line2d_86">
    <path d="M 36 594.094686 
L 259.2 594.094686 
" clip-path="url(#pe104299894)" style="fill: none; stroke-dasharray: 5.55,2.4; stroke-dashoffset: 0; stroke: #000000; stroke-width: 1.5"/>
   </g>
   <g id="patch_22">
    <path d="M 36 640.8 
L 36 520.278261 
" style="fill: none; stroke: #000000; stroke-width: 0.8; stroke-linejoin: miter; stroke-linecap: square"/>
   </g>
   <g id="patch_23">
    <path d="M 259.2 640.8 
L 259.2 520.278261 
" style="fill: none; stroke: #000000; stroke-width: 0.8; stroke-linejoin: miter; stroke-linecap: square"/>
   </g>
   <g id="patch_24">
    <path d="M 36 640.8 
L 259.2 640.8 
" style="fill: none; stroke: #000000; stroke-width: 0.8; stroke-linejoin: miter; stroke-linecap: square"/>
   </g>
   <g id="patch_25">
    <path d="M 36 520.278261 
L 259.2 520.278261 
" style="fill: none; stroke: #000000; stroke-width: 0.8; stroke-linejoin: miter; stroke-linecap: square"/>
   </g>
  </g>
 </g>
 <defs>
  <clipPath id="p76bf347aca">
   <rect x="36" y="86.4" width="223.2" height="120.521739"/>
  </clipPath>
  <clipPath id="p06632363a5">
   <rect x="36" y="231.026087" width="223.2" height="120.521739"/>
  </clipPath>
  <clipPath id="p5fc6469fed">
   <rect x="36" y="375.652174" width="223.2" height="120.521739"/>
  </clipPath>
  <clipPath id="pe104299894">
   <rect x="36" y="520.278261" width="223.2" height="120.521739"/>
  </clipPath>
 </defs>
</svg>
