<?xml version="1.0" encoding="utf-8" standalone="no"?>
<!DOCTYPE svg PUBLIC "-//W3C//DTD SVG 1.1//EN"
  "http://www.w3.org/Graphics/SVG/1.1/DTD/svg11.dtd">
<svg xmlns:xlink="http://www.w3.org/1999/xlink" width="576pt" height="720pt" viewBox="0 0 576 720" xmlns="http://www.w3.org/2000/svg" version="1.1">
 <metadata>
  <rdf:RDF xmlns:dc="http://purl.org/dc/elements/1.1/" xmlns:cc="http://creativecommons.org/ns#" xmlns:rdf="http://www.w3.org/1999/02/22-rdf-syntax-ns#">
   <cc:Work>
    <dc:type rdf:resource="http://purl.org/dc/dcmitype/StillImage"/>
    <dc:date>2025-12-01T13:34:00.832818</dc:date>
    <dc:format>image/svg+xml</dc:format>
    <dc:creator>
     <cc:Agent>
      <dc:title>Matplotlib v3.10.3, https://matplotlib.org/</dc:title>
     </cc:Agent>
    </dc:creator>
   </cc:Work>
  </rdf:RDF>
 </metadata>
 <defs>
  <style type="text/css">*{stroke-linejoin: round; stroke-linecap: butt}</style>
 </defs>
 <g id="figure_1">
  <g id="patch_1">
   <path d="M 0 720 
L 576 720 
L 576 0 
L 0 0 
z
" style="fill: #ffffff"/>
  </g>
  <g id="axes_1">
   <g id="patch_2">
    <path d="M 72 206.921739 
L 274.909091 206.921739 
L 274.909091 86.4 
L 72 86.4 
z
" style="fill: #ffffff"/>
   </g>
   <g id="patch_3">
    <path d="M 121.509818 206.921739 
L 274.909091 206.921739 
L 274.909091 86.4 
L 121.509818 86.4 
z
" clip-path="url(#pb6550c16fa)" style="opacity: 0.1"/>
   </g>
   <g id="matplotlib.axis_1">
    <g id="xtick_1">
     <g id="line2d_1">
      <defs>
       <path id="m17797d259f" d="M 0 0 
L 0 3.5 
" style="stroke: #000000; stroke-width: 0.8"/>
      </defs>
      <g>
       <use xlink:href="#m17797d259f" x="72" y="206.921739" style="stroke: #000000; stroke-width: 0.8"/>
      </g>
     </g>
     <g id="line2d_2">
      <defs>
       <path id="mc7a7aa098a" d="M 0 0 
L 0 -3.5 
" style="stroke: #000000; stroke-width: 0.8"/>
      </defs>
      <g>
       <use xlink:href="#mc7a7aa098a" x="72" y="86.4" style="stroke: #000000; stroke-width: 0.8"/>
      </g>
     </g>
    </g>
    <g id="xtick_2">
     <g id="line2d_3">
      <g>
       <use xlink:href="#m17797d259f" x="112.581818" y="206.921739" style="stroke: #000000; stroke-width: 0.8"/>
      </g>
     </g>
     <g id="line2d_4">
      <g>
       <use xlink:href="#mc7a7aa098a" x="112.581818" y="86.4" style="stroke: #000000; stroke-width: 0.8"/>
      </g>
     </g>
    </g>
    <g id="xtick_3">
     <g id="line2d_5">
      <g>
       <use xlink:href="#m17797d259f" x="153.163636" y="206.921739" style="stroke: #000000; stroke-width: 0.8"/>
      </g>
     </g>
     <g id="line2d_6">
      <g>
       <use xlink:href="#mc7a7aa098a" x="153.163636" y="86.4" style="stroke: #000000; stroke-width: 0.8"/>
      </g>
     </g>
    </g>
    <g id="xtick_4">
     <g id="line2d_7">
      <g>
       <use xlink:href="#m17797d259f" x="193.745455" y="206.921739" style="stroke: #000000; stroke-width: 0.8"/>
      </g>
     </g>
     <g id="line2d_8">
      <g>
       <use xlink:href="#mc7a7aa098a" x="193.745455" y="86.4" style="stroke: #000000; stroke-width: 0.8"/>
      </g>
     </g>
    </g>
    <g id="xtick_5">
     <g id="line2d_9">
      <g>
       <use xlink:href="#m17797d259f" x="234.327273" y="206.921739" style="stroke: #000000; stroke-width: 0.8"/>
      </g>
     </g>
     <g id="line2d_10">
      <g>
       <use xlink:href="#mc7a7aa098a" x="234.327273" y="86.4" style="stroke: #000000; stroke-width: 0.8"/>
      </g>
     </g>
    </g>
    <g id="xtick_6">
     <g id="line2d_11">
      <g>
       <use xlink:href="#m17797d259f" x="274.909091" y="206.921739" style="stroke: #000000; stroke-width: 0.8"/>
      </g>
     </g>
     <g id="line2d_12">
      <g>
       <use xlink:href="#mc7a7aa098a" x="274.909091" y="86.4" style="stroke: #000000; stroke-width: 0.8"/>
      </g>
     </g>
    </g>
   </g>
   <g id="matplotlib.axis_2">
    <g id="ytick_1">
     <g id="line2d_13">
      <defs>
       <path id="m5dfec8baf7" d="M 0 0 
L -3.5 0 
" style="stroke: #000000; stroke-width: 0.8"/>
      </defs>
      <g>
       <use xlink:href="#m5dfec8baf7" x="72" y="202.934109" style="stroke: #000000; stroke-width: 0.8"/>
      </g>
     </g>
    </g>
    <g id="ytick_2">
     <g id="line2d_14">
      <g>
       <use xlink:href="#m5dfec8baf7" x="72" y="178.899428" style="stroke: #000000; stroke-width: 0.8"/>
      </g>
     </g>
    </g>
    <g id="ytick_3">
     <g id="line2d_15">
      <g>
       <use xlink:href="#m5dfec8baf7" x="72" y="154.864747" style="stroke: #000000; stroke-width: 0.8"/>
      </g>
     </g>
    </g>
    <g id="ytick_4">
     <g id="line2d_16">
      <g>
       <use xlink:href="#m5dfec8baf7" x="72" y="130.830066" style="stroke: #000000; stroke-width: 0.8"/>
      </g>
     </g>
    </g>
    <g id="ytick_5">
     <g id="line2d_17">
      <g>
       <use xlink:href="#m5dfec8baf7" x="72" y="106.795386" style="stroke: #000000; stroke-width: 0.8"/>
      </g>
     </g>
    </g>
   </g>
   <g id="line2d_18">
    <path d="M 72.811636 130.830066 
L 72.811636 130.830066 
L 72.811636 130.830066 
L 72.811636 130.830066 
L 72.811636 130.829586 
L 72.827869 130.81853 
L 72.831927 130.816847 
L 72.876567 130.794495 
L 72.973964 130.738975 
L 73.014545 130.715181 
L 73.302676 130.528191 
L 74.061556 129.994621 
L 74.81232 129.433411 
L 80.108247 125.258106 
L 87.851258 119.172044 
L 91.183025 116.656094 
L 100.050153 110.406837 
L 110.163142 104.216464 
L 121.611273 98.580572 
L 134.658327 94.143289 
L 149.547796 91.890278 
L 166.206633 93.209301 
L 168.69024 93.770271 
L 168.694298 93.768589 
L 173.125833 95.015988 
L 173.860364 95.253691 
L 175.077818 95.666367 
L 182.045716 98.483232 
L 189.460015 102.37012 
L 197.34912 107.530606 
L 205.761731 114.230033 
L 214.730313 122.768834 
L 224.295447 133.495032 
L 234.473367 146.760974 
L 245.24784 162.845463 
L 256.537702 181.537715 
L 259.966865 187.358675 
L 272.908407 201.443478 
L 274.706182 186.106948 
L 274.8888 166.670823 
L 274.909091 147.892046 
L 274.909091 135.004891 
L 274.909091 131.384787 
L 274.909091 130.924523 
L 274.909091 130.872608 
" clip-path="url(#pb6550c16fa)" style="fill: none; stroke: #000000; stroke-width: 2; stroke-linecap: square"/>
   </g>
   <g id="line2d_19">
    <path d="M 72.811636 130.830066 
L 72.811636 130.830066 
L 72.811636 130.830066 
L 72.811636 130.829826 
L 72.811636 130.827663 
L 72.831927 130.816367 
L 72.876567 130.794014 
L 72.973964 130.738494 
L 73.014545 130.7147 
L 73.302676 130.52747 
L 74.061556 129.99366 
L 74.81232 129.43269 
L 80.096073 125.266999 
L 87.835025 119.18262 
L 91.183025 116.655133 
L 100.070444 110.396502 
L 110.187491 104.202044 
L 121.643738 98.567353 
L 134.690793 94.131993 
L 149.58432 91.885471 
L 166.247215 93.215791 
L 168.73488 93.781087 
L 168.738938 93.782048 
L 173.138007 95.020315 
L 173.860364 95.25297 
L 174.915491 95.607722 
L 181.879331 98.407522 
L 189.277396 102.262445 
L 197.158385 107.393609 
L 205.558822 114.054821 
L 214.515229 122.543149 
L 224.060073 133.205895 
L 234.225818 146.417518 
L 244.992175 162.439277 
L 256.537702 181.537715 
L 260.007447 187.428135 
L 272.908407 201.443478 
L 274.706182 186.106948 
L 274.8888 166.670823 
L 274.909091 147.892046 
L 274.909091 135.004891 
L 274.909091 131.384787 
L 274.909091 130.924523 
L 274.909091 130.872608 
" clip-path="url(#pb6550c16fa)" style="fill: none; stroke: #1f77b4; stroke-linecap: square"/>
   </g>
   <g id="line2d_20">
    <path d="M 72.811636 130.830066 
L 72.811636 130.830066 
L 72.811636 130.830066 
L 72.811636 130.830066 
L 72.811636 130.830066 
L 72.831927 130.830066 
L 72.876567 130.829826 
L 72.961789 130.777911 
L 73.014545 130.717825 
L 73.266153 130.556071 
L 73.939811 130.082348 
L 74.81232 129.434613 
L 79.982444 125.35785 
L 87.733571 119.262175 
L 91.183025 116.657055 
L 100.184073 110.323196 
L 110.353876 104.110952 
L 121.842589 98.485395 
L 134.922109 94.075511 
L 149.85216 91.878261 
L 166.539404 93.279002 
L 169.027069 93.856796 
L 169.031127 93.854392 
L 173.438313 95.117415 
L 173.860364 95.254893 
L 175.232029 95.719003 
L 182.212102 98.562786 
L 189.634516 102.474431 
L 197.535796 107.667844 
L 205.960582 114.406448 
L 214.945396 122.989713 
L 224.522705 133.768066 
L 234.716858 147.105872 
L 245.495389 163.239632 
L 256.537702 181.537715 
L 259.930342 187.30027 
L 272.908407 201.443478 
L 274.706182 186.106948 
L 274.8888 166.670823 
L 274.909091 147.892046 
L 274.909091 135.004891 
L 274.909091 131.384787 
L 274.909091 130.924523 
L 274.909091 130.872608 
" clip-path="url(#pb6550c16fa)" style="fill: none; stroke: #d62728; stroke-linecap: square"/>
   </g>
   <g id="line2d_21">
    <path d="M 72 130.830066 
L 274.909091 130.830066 
" clip-path="url(#pb6550c16fa)" style="fill: none; stroke-dasharray: 5.55,2.4; stroke-dashoffset: 0; stroke: #000000; stroke-width: 1.5"/>
   </g>
   <g id="line2d_22">
    <path d="M 72.811636 130.829004 
L 72.811636 130.829004 
L 72.811636 130.829003 
L 72.811636 130.82899 
L 72.811636 130.828861 
L 72.827869 130.827811 
L 72.831927 130.827571 
L 72.876567 130.824464 
L 72.973964 130.817512 
L 73.014545 130.814693 
L 73.302676 130.794085 
L 74.061556 130.740472 
L 74.81232 130.68715 
L 80.108247 130.311885 
L 87.851258 129.762777 
L 91.183025 129.526353 
L 100.050153 128.897733 
L 110.163142 128.181065 
L 121.611273 127.369222 
L 134.658327 126.44494 
L 149.547796 125.389024 
L 166.206633 124.208174 
L 168.69024 124.032051 
L 168.694298 124.032051 
L 173.125833 123.716586 
L 173.860364 123.665628 
L 175.077818 123.57933 
L 182.045716 123.083984 
L 189.460015 122.558607 
L 197.34912 121.999631 
L 205.761731 121.402879 
L 214.730313 120.768117 
L 224.295447 120.090614 
L 234.473367 119.367493 
L 245.24784 118.60413 
L 256.537702 117.804934 
L 259.966865 117.559724 
L 272.908407 116.643342 
L 274.706182 116.51537 
L 274.8888 116.50218 
L 274.909091 116.50218 
L 274.909091 116.50218 
L 274.909091 116.50218 
L 274.909091 116.50218 
L 274.909091 116.50218 
" clip-path="url(#pb6550c16fa)" style="fill: none; stroke-dasharray: 1,1.65; stroke-dashoffset: 0; stroke: #000000"/>
   </g>
   <g id="patch_4">
    <path d="M 72 206.921739 
L 72 86.4 
" style="fill: none; stroke: #000000; stroke-width: 0.8; stroke-linejoin: miter; stroke-linecap: square"/>
   </g>
   <g id="patch_5">
    <path d="M 274.909091 206.921739 
L 274.909091 86.4 
" style="fill: none; stroke: #000000; stroke-width: 0.8; stroke-linejoin: miter; stroke-linecap: square"/>
   </g>
   <g id="patch_6">
    <path d="M 72 206.921739 
L 274.909091 206.921739 
" style="fill: none; stroke: #000000; stroke-width: 0.8; stroke-linejoin: miter; stroke-linecap: square"/>
   </g>
   <g id="patch_7">
    <path d="M 72 86.4 
L 274.909091 86.4 
" style="fill: none; stroke: #000000; stroke-width: 0.8; stroke-linejoin: miter; stroke-linecap: square"/>
   </g>
  </g>
  <g id="axes_2">
   <g id="patch_8">
    <path d="M 315.490909 206.921739 
L 518.4 206.921739 
L 518.4 86.4 
L 315.490909 86.4 
z
" style="fill: #ffffff"/>
   </g>
   <g id="patch_9">
    <path d="M 365.000727 206.921739 
L 518.4 206.921739 
L 518.4 86.4 
L 365.000727 86.4 
z
" clip-path="url(#p034055fd40)" style="opacity: 0.1"/>
   </g>
   <g id="matplotlib.axis_3">
    <g id="xtick_7">
     <g id="line2d_23">
      <g>
       <use xlink:href="#m17797d259f" x="315.490909" y="206.921739" style="stroke: #000000; stroke-width: 0.8"/>
      </g>
     </g>
     <g id="line2d_24">
      <g>
       <use xlink:href="#mc7a7aa098a" x="315.490909" y="86.4" style="stroke: #000000; stroke-width: 0.8"/>
      </g>
     </g>
    </g>
    <g id="xtick_8">
     <g id="line2d_25">
      <g>
       <use xlink:href="#m17797d259f" x="356.072727" y="206.921739" style="stroke: #000000; stroke-width: 0.8"/>
      </g>
     </g>
     <g id="line2d_26">
      <g>
       <use xlink:href="#mc7a7aa098a" x="356.072727" y="86.4" style="stroke: #000000; stroke-width: 0.8"/>
      </g>
     </g>
    </g>
    <g id="xtick_9">
     <g id="line2d_27">
      <g>
       <use xlink:href="#m17797d259f" x="396.654545" y="206.921739" style="stroke: #000000; stroke-width: 0.8"/>
      </g>
     </g>
     <g id="line2d_28">
      <g>
       <use xlink:href="#mc7a7aa098a" x="396.654545" y="86.4" style="stroke: #000000; stroke-width: 0.8"/>
      </g>
     </g>
    </g>
    <g id="xtick_10">
     <g id="line2d_29">
      <g>
       <use xlink:href="#m17797d259f" x="437.236364" y="206.921739" style="stroke: #000000; stroke-width: 0.8"/>
      </g>
     </g>
     <g id="line2d_30">
      <g>
       <use xlink:href="#mc7a7aa098a" x="437.236364" y="86.4" style="stroke: #000000; stroke-width: 0.8"/>
      </g>
     </g>
    </g>
    <g id="xtick_11">
     <g id="line2d_31">
      <g>
       <use xlink:href="#m17797d259f" x="477.818182" y="206.921739" style="stroke: #000000; stroke-width: 0.8"/>
      </g>
     </g>
     <g id="line2d_32">
      <g>
       <use xlink:href="#mc7a7aa098a" x="477.818182" y="86.4" style="stroke: #000000; stroke-width: 0.8"/>
      </g>
     </g>
    </g>
    <g id="xtick_12">
     <g id="line2d_33">
      <g>
       <use xlink:href="#m17797d259f" x="518.4" y="206.921739" style="stroke: #000000; stroke-width: 0.8"/>
      </g>
     </g>
     <g id="line2d_34">
      <g>
       <use xlink:href="#mc7a7aa098a" x="518.4" y="86.4" style="stroke: #000000; stroke-width: 0.8"/>
      </g>
     </g>
    </g>
   </g>
   <g id="matplotlib.axis_4">
    <g id="ytick_6">
     <g id="line2d_35">
      <g>
       <use xlink:href="#m5dfec8baf7" x="315.490909" y="202.934148" style="stroke: #000000; stroke-width: 0.8"/>
      </g>
     </g>
    </g>
    <g id="ytick_7">
     <g id="line2d_36">
      <g>
       <use xlink:href="#m5dfec8baf7" x="315.490909" y="178.898835" style="stroke: #000000; stroke-width: 0.8"/>
      </g>
     </g>
    </g>
    <g id="ytick_8">
     <g id="line2d_37">
      <g>
       <use xlink:href="#m5dfec8baf7" x="315.490909" y="154.863521" style="stroke: #000000; stroke-width: 0.8"/>
      </g>
     </g>
    </g>
    <g id="ytick_9">
     <g id="line2d_38">
      <g>
       <use xlink:href="#m5dfec8baf7" x="315.490909" y="130.828208" style="stroke: #000000; stroke-width: 0.8"/>
      </g>
     </g>
    </g>
    <g id="ytick_10">
     <g id="line2d_39">
      <g>
       <use xlink:href="#m5dfec8baf7" x="315.490909" y="106.792894" style="stroke: #000000; stroke-width: 0.8"/>
      </g>
     </g>
    </g>
   </g>
   <g id="line2d_40">
    <path d="M 316.302545 130.828208 
L 316.302545 130.828208 
L 316.302545 130.828208 
L 316.302545 130.828208 
L 316.302545 130.827727 
L 316.318778 130.816671 
L 316.322836 130.814988 
L 316.367476 130.792635 
L 316.464873 130.737114 
L 316.505455 130.713319 
L 316.793585 130.526324 
L 317.552465 129.99274 
L 318.303229 129.431516 
L 323.599156 125.256101 
L 331.342167 119.169879 
L 334.673935 116.653862 
L 343.541062 110.40444 
L 353.654051 104.213905 
L 365.102182 98.577864 
L 378.149236 94.140465 
L 393.038705 91.887394 
L 409.697542 93.206452 
L 412.181149 93.767437 
L 412.185207 93.765754 
L 416.616742 95.013187 
L 417.351273 95.250896 
L 418.568727 95.663582 
L 425.536625 98.480521 
L 432.950924 102.367512 
L 440.840029 107.528134 
L 449.25264 114.227738 
L 458.221222 122.766763 
L 467.786356 133.493243 
L 477.964276 146.759535 
L 488.738749 162.844447 
L 500.028611 181.537191 
L 503.457775 187.358304 
L 516.399316 201.443478 
L 518.197091 186.106545 
L 518.379709 166.669908 
L 518.4 147.890636 
L 518.4 135.003142 
L 518.4 131.382943 
L 518.4 130.922666 
L 518.4 130.87075 
" clip-path="url(#p034055fd40)" style="fill: none; stroke: #000000; stroke-width: 2; stroke-linecap: square"/>
   </g>
   <g id="line2d_41">
    <path d="M 316.302545 130.828208 
L 316.302545 130.828208 
L 316.302545 130.828208 
L 316.302545 130.828208 
L 316.302545 130.827727 
L 316.310662 130.824843 
L 316.322836 130.814988 
L 316.363418 130.793356 
L 316.460815 130.739277 
L 316.505455 130.713319 
L 316.789527 130.528968 
L 317.540291 130.000431 
L 318.303229 129.431275 
L 323.574807 125.273887 
L 331.31376 119.190309 
L 334.673935 116.65266 
L 343.573527 110.382328 
L 353.698691 104.185303 
L 365.158996 98.551425 
L 378.210109 94.117391 
L 393.111753 91.878261 
L 409.774647 93.214384 
L 412.262313 93.783781 
L 412.266371 93.782098 
L 416.474705 94.964155 
L 417.351273 95.245849 
L 418.67424 95.695069 
L 425.654313 98.532197 
L 433.072669 102.436013 
L 440.969891 107.620911 
L 449.390618 114.346712 
L 458.371375 122.922993 
L 467.940567 133.673989 
L 478.13472 146.999167 
L 488.913251 163.120132 
L 500.028611 181.531903 
L 503.433425 187.312877 
L 516.399316 201.435787 
L 518.197091 186.100055 
L 518.379709 166.666062 
L 518.4 147.888954 
L 518.4 135.002661 
L 518.4 131.382943 
L 518.4 130.922666 
L 518.4 130.87075 
" clip-path="url(#p034055fd40)" style="fill: none; stroke: #1f77b4; stroke-linecap: square"/>
   </g>
   <g id="line2d_42">
    <path d="M 316.302545 130.828208 
L 316.302545 130.828208 
L 316.302545 130.828208 
L 316.302545 130.828208 
L 316.302545 130.827727 
L 316.318778 130.81643 
L 316.322836 130.814988 
L 316.367476 130.792635 
L 316.464873 130.737114 
L 316.505455 130.713319 
L 316.793585 130.526084 
L 317.552465 129.992259 
L 318.303229 129.431996 
L 323.566691 125.28254 
L 331.301585 119.203047 
L 334.673935 116.659631 
L 343.585702 110.385933 
L 353.714924 104.191312 
L 365.179287 98.565366 
L 378.234458 94.142628 
L 393.136102 91.916958 
L 409.803055 93.274232 
L 412.29072 93.842907 
L 412.294778 93.84459 
L 416.511229 95.032175 
L 417.351273 95.303533 
L 418.670182 95.751071 
L 425.650255 98.593006 
L 433.068611 102.498985 
L 440.969891 107.689652 
L 449.38656 114.410166 
L 458.367316 122.978034 
L 467.936509 133.719415 
L 478.130662 147.031134 
L 488.909193 163.139601 
L 500.028611 181.546565 
L 503.433425 187.325135 
L 516.399316 201.441075 
L 518.197091 186.106064 
L 518.379709 166.672071 
L 518.4 147.8928 
L 518.4 135.006747 
L 518.4 131.387029 
L 518.4 130.926752 
L 518.4 130.874596 
" clip-path="url(#p034055fd40)" style="fill: none; stroke: #d62728; stroke-linecap: square"/>
   </g>
   <g id="line2d_43">
    <path d="M 315.490909 130.828208 
L 518.4 130.828208 
" clip-path="url(#p034055fd40)" style="fill: none; stroke-dasharray: 5.55,2.4; stroke-dashoffset: 0; stroke: #000000; stroke-width: 1.5"/>
   </g>
   <g id="line2d_44">
    <path d="M 316.302545 130.827145 
L 316.302545 130.827145 
L 316.302545 130.827144 
L 316.302545 130.827131 
L 316.302545 130.827002 
L 316.318778 130.825952 
L 316.322836 130.825712 
L 316.367476 130.822605 
L 316.464873 130.815653 
L 316.505455 130.812833 
L 316.793585 130.792225 
L 317.552465 130.738611 
L 318.303229 130.685287 
L 323.599156 130.310012 
L 331.342167 129.76089 
L 334.673935 129.52446 
L 343.541062 128.895823 
L 353.654051 128.179137 
L 365.102182 127.367272 
L 378.149236 126.442966 
L 393.038705 125.387022 
L 409.697542 124.206141 
L 412.181149 124.030013 
L 412.185207 124.030013 
L 416.616742 123.71454 
L 417.351273 123.663581 
L 418.568727 123.57728 
L 425.536625 123.081921 
L 432.950924 122.556531 
L 440.840029 121.997539 
L 449.25264 121.400772 
L 458.221222 120.765993 
L 467.786356 120.088473 
L 477.964276 119.365332 
L 488.738749 118.601949 
L 500.028611 117.802733 
L 503.457775 117.557516 
L 516.399316 116.64111 
L 518.197091 116.513135 
L 518.379709 116.499944 
L 518.4 116.499944 
L 518.4 116.499944 
L 518.4 116.499944 
L 518.4 116.499944 
L 518.4 116.499944 
" clip-path="url(#p034055fd40)" style="fill: none; stroke-dasharray: 1,1.65; stroke-dashoffset: 0; stroke: #000000"/>
   </g>
   <g id="patch_10">
    <path d="M 315.490909 206.921739 
L 315.490909 86.4 
" style="fill: none; stroke: #000000; stroke-width: 0.8; stroke-linejoin: miter; stroke-linecap: square"/>
   </g>
   <g id="patch_11">
    <path d="M 518.4 206.921739 
L 518.4 86.4 
" style="fill: none; stroke: #000000; stroke-width: 0.8; stroke-linejoin: miter; stroke-linecap: square"/>
   </g>
   <g id="patch_12">
    <path d="M 315.490909 206.921739 
L 518.4 206.921739 
" style="fill: none; stroke: #000000; stroke-width: 0.8; stroke-linejoin: miter; stroke-linecap: square"/>
   </g>
   <g id="patch_13">
    <path d="M 315.490909 86.4 
L 518.4 86.4 
" style="fill: none; stroke: #000000; stroke-width: 0.8; stroke-linejoin: miter; stroke-linecap: square"/>
   </g>
  </g>
  <g id="axes_3">
   <g id="patch_14">
    <path d="M 72 351.547826 
L 274.909091 351.547826 
L 274.909091 231.026087 
L 72 231.026087 
z
" style="fill: #ffffff"/>
   </g>
   <g id="patch_15">
    <path d="M 121.509818 351.547826 
L 274.909091 351.547826 
L 274.909091 231.026087 
L 121.509818 231.026087 
z
" clip-path="url(#p4b835dbe8f)" style="opacity: 0.1"/>
   </g>
   <g id="matplotlib.axis_5">
    <g id="xtick_13">
     <g id="line2d_45">
      <g>
       <use xlink:href="#m17797d259f" x="72" y="351.547826" style="stroke: #000000; stroke-width: 0.8"/>
      </g>
     </g>
     <g id="line2d_46">
      <g>
       <use xlink:href="#mc7a7aa098a" x="72" y="231.026087" style="stroke: #000000; stroke-width: 0.8"/>
      </g>
     </g>
    </g>
    <g id="xtick_14">
     <g id="line2d_47">
      <g>
       <use xlink:href="#m17797d259f" x="112.581818" y="351.547826" style="stroke: #000000; stroke-width: 0.8"/>
      </g>
     </g>
     <g id="line2d_48">
      <g>
       <use xlink:href="#mc7a7aa098a" x="112.581818" y="231.026087" style="stroke: #000000; stroke-width: 0.8"/>
      </g>
     </g>
    </g>
    <g id="xtick_15">
     <g id="line2d_49">
      <g>
       <use xlink:href="#m17797d259f" x="153.163636" y="351.547826" style="stroke: #000000; stroke-width: 0.8"/>
      </g>
     </g>
     <g id="line2d_50">
      <g>
       <use xlink:href="#mc7a7aa098a" x="153.163636" y="231.026087" style="stroke: #000000; stroke-width: 0.8"/>
      </g>
     </g>
    </g>
    <g id="xtick_16">
     <g id="line2d_51">
      <g>
       <use xlink:href="#m17797d259f" x="193.745455" y="351.547826" style="stroke: #000000; stroke-width: 0.8"/>
      </g>
     </g>
     <g id="line2d_52">
      <g>
       <use xlink:href="#mc7a7aa098a" x="193.745455" y="231.026087" style="stroke: #000000; stroke-width: 0.8"/>
      </g>
     </g>
    </g>
    <g id="xtick_17">
     <g id="line2d_53">
      <g>
       <use xlink:href="#m17797d259f" x="234.327273" y="351.547826" style="stroke: #000000; stroke-width: 0.8"/>
      </g>
     </g>
     <g id="line2d_54">
      <g>
       <use xlink:href="#mc7a7aa098a" x="234.327273" y="231.026087" style="stroke: #000000; stroke-width: 0.8"/>
      </g>
     </g>
    </g>
    <g id="xtick_18">
     <g id="line2d_55">
      <g>
       <use xlink:href="#m17797d259f" x="274.909091" y="351.547826" style="stroke: #000000; stroke-width: 0.8"/>
      </g>
     </g>
     <g id="line2d_56">
      <g>
       <use xlink:href="#mc7a7aa098a" x="274.909091" y="231.026087" style="stroke: #000000; stroke-width: 0.8"/>
      </g>
     </g>
    </g>
   </g>
   <g id="matplotlib.axis_6">
    <g id="ytick_11">
     <g id="line2d_57">
      <g>
       <use xlink:href="#m5dfec8baf7" x="72" y="350.844577" style="stroke: #000000; stroke-width: 0.8"/>
      </g>
     </g>
    </g>
    <g id="ytick_12">
     <g id="line2d_58">
      <g>
       <use xlink:href="#m5dfec8baf7" x="72" y="331.187851" style="stroke: #000000; stroke-width: 0.8"/>
      </g>
     </g>
    </g>
    <g id="ytick_13">
     <g id="line2d_59">
      <g>
       <use xlink:href="#m5dfec8baf7" x="72" y="311.531124" style="stroke: #000000; stroke-width: 0.8"/>
      </g>
     </g>
    </g>
    <g id="ytick_14">
     <g id="line2d_60">
      <g>
       <use xlink:href="#m5dfec8baf7" x="72" y="291.874398" style="stroke: #000000; stroke-width: 0.8"/>
      </g>
     </g>
    </g>
    <g id="ytick_15">
     <g id="line2d_61">
      <g>
       <use xlink:href="#m5dfec8baf7" x="72" y="272.217671" style="stroke: #000000; stroke-width: 0.8"/>
      </g>
     </g>
    </g>
    <g id="ytick_16">
     <g id="line2d_62">
      <g>
       <use xlink:href="#m5dfec8baf7" x="72" y="252.560945" style="stroke: #000000; stroke-width: 0.8"/>
      </g>
     </g>
    </g>
    <g id="ytick_17">
     <g id="line2d_63">
      <g>
       <use xlink:href="#m5dfec8baf7" x="72" y="232.904218" style="stroke: #000000; stroke-width: 0.8"/>
      </g>
     </g>
    </g>
   </g>
   <g id="line2d_64">
    <path d="M 72.811636 272.217671 
L 72.811636 272.217671 
L 72.811636 272.217671 
L 72.811636 272.217671 
L 72.811636 272.217278 
L 72.827869 272.208236 
L 72.831927 272.20686 
L 72.876567 272.188579 
L 72.973964 272.143172 
L 73.014545 272.123712 
L 73.302676 271.970783 
L 74.061556 271.534404 
L 74.81232 271.075419 
L 80.108247 267.660652 
L 87.851258 262.683176 
L 91.183025 260.62551 
L 100.050153 255.514565 
L 110.163142 250.451778 
L 121.611273 245.842472 
L 134.658327 242.213447 
L 149.547796 240.370826 
L 166.206633 241.449587 
L 168.69024 241.908375 
L 168.694298 241.906999 
L 173.125833 242.927183 
L 173.860364 243.121588 
L 175.077818 243.459094 
L 182.045716 245.762863 
L 189.460015 248.941748 
L 197.34912 253.162244 
L 205.761731 258.64136 
L 214.730313 265.624805 
L 224.295447 274.397209 
L 234.473367 285.246739 
L 245.24784 298.401414 
L 256.537702 313.688843 
L 259.966865 318.449506 
L 272.908407 329.968741 
L 274.706182 317.425783 
L 274.8888 301.529978 
L 274.909091 286.171785 
L 274.909091 275.632045 
L 274.909091 272.671349 
L 274.909091 272.294922 
L 274.909091 272.252464 
" clip-path="url(#p4b835dbe8f)" style="fill: none; stroke: #000000; stroke-width: 2; stroke-linecap: square"/>
   </g>
   <g id="line2d_65">
    <path d="M 72.811636 272.217671 
L 72.811636 272.217671 
L 72.811636 272.217671 
L 72.811636 272.217671 
L 72.811636 272.217278 
L 72.827869 272.207253 
L 72.831927 272.205877 
L 72.876567 272.186417 
L 72.973964 272.138062 
L 73.014545 272.117422 
L 73.302676 271.95604 
L 74.061556 271.497645 
L 74.81232 271.016252 
L 80.104189 267.437352 
L 87.8472 262.192151 
L 91.183025 260.008485 
L 100.054211 254.536642 
L 110.163142 249.013495 
L 121.615331 243.819402 
L 134.662385 239.441456 
L 149.551855 236.637817 
L 166.210691 236.504348 
L 168.698356 236.772859 
L 168.702415 236.772859 
L 173.125833 237.437059 
L 173.860364 237.573477 
L 175.081876 237.813289 
L 182.049775 239.535612 
L 189.464073 242.069167 
L 197.353178 245.572192 
L 205.765789 250.2501 
L 214.738429 256.343096 
L 224.299505 264.107699 
L 234.481484 273.851538 
L 245.255956 285.769608 
L 256.537702 299.682836 
L 259.966865 304.016358 
L 272.908407 313.878924 
L 274.706182 301.189327 
L 274.8888 286.131882 
L 274.909091 275.632045 
L 274.909091 272.671349 
L 274.909091 272.294922 
L 274.909091 272.255805 
L 274.909091 272.252464 
" clip-path="url(#p4b835dbe8f)" style="fill: none; stroke: #1f77b4; stroke-linecap: square"/>
   </g>
   <g id="line2d_66">
    <path d="M 72.811636 272.217671 
L 72.811636 272.217671 
L 72.811636 272.217671 
L 72.811636 272.217671 
L 72.811636 272.217475 
L 72.827869 272.209022 
L 72.831927 272.207843 
L 72.876567 272.190938 
L 72.973964 272.14848 
L 73.014545 272.130002 
L 73.302676 271.985525 
L 74.061556 271.571555 
L 74.81232 271.134586 
L 80.12448 267.874518 
L 87.871549 263.162997 
L 91.183025 261.242535 
L 100.029862 256.504084 
L 110.126618 251.902248 
L 121.570691 247.876354 
L 134.609629 244.98996 
L 149.490982 244.099314 
L 166.14576 246.378118 
L 168.629367 247.026397 
L 168.633425 247.027969 
L 173.097425 248.407085 
L 173.860364 248.669699 
L 175.021004 249.084063 
L 181.988902 251.967312 
L 189.395084 255.780324 
L 197.284189 260.711017 
L 205.688684 266.979154 
L 214.653207 274.838503 
L 224.210225 284.590008 
L 234.384087 296.542477 
L 245.154502 310.912724 
L 256.537702 327.69603 
L 259.983098 332.91037 
L 272.908407 346.069565 
L 274.706182 333.75384 
L 274.8888 317.790416 
L 274.909091 301.572437 
L 274.909091 286.171785 
L 274.909091 275.632045 
L 274.909091 272.671349 
L 274.909091 272.252464 
" clip-path="url(#p4b835dbe8f)" style="fill: none; stroke: #d62728; stroke-linecap: square"/>
   </g>
   <g id="line2d_67">
    <path d="M 72 272.217671 
L 274.909091 272.217671 
" clip-path="url(#p4b835dbe8f)" style="fill: none; stroke-dasharray: 5.55,2.4; stroke-dashoffset: 0; stroke: #000000; stroke-width: 1.5"/>
   </g>
   <g id="line2d_68">
    <path d="M 72.811636 272.216803 
L 72.811636 272.216802 
L 72.811636 272.216801 
L 72.811636 272.216791 
L 72.811636 272.216685 
L 72.827869 272.215827 
L 72.831927 272.215631 
L 72.876567 272.213089 
L 72.973964 272.207404 
L 73.014545 272.205098 
L 73.302676 272.188244 
L 74.061556 272.144396 
L 74.81232 272.100787 
L 80.108247 271.793877 
L 87.851258 271.34479 
L 91.183025 271.151431 
L 100.050153 270.637315 
L 110.163142 270.05119 
L 121.611273 269.387225 
L 134.658327 268.631302 
L 149.547796 267.767723 
L 166.206633 266.801967 
L 168.69024 266.657925 
L 168.694298 266.657925 
L 173.125833 266.399922 
L 173.860364 266.358247 
L 175.077818 266.287668 
L 182.045716 265.88255 
L 189.460015 265.452871 
L 197.34912 264.995713 
L 205.761731 264.507661 
L 214.730313 263.988521 
L 224.295447 263.434427 
L 234.473367 262.843023 
L 245.24784 262.218708 
L 256.537702 261.565087 
L 259.966865 261.364542 
L 272.908407 260.615081 
L 274.706182 260.510419 
L 274.8888 260.499632 
L 274.909091 260.499632 
L 274.909091 260.499632 
L 274.909091 260.499632 
L 274.909091 260.499632 
L 274.909091 260.499632 
" clip-path="url(#p4b835dbe8f)" style="fill: none; stroke-dasharray: 1,1.65; stroke-dashoffset: 0; stroke: #000000"/>
   </g>
   <g id="patch_16">
    <path d="M 72 351.547826 
L 72 231.026087 
" style="fill: none; stroke: #000000; stroke-width: 0.8; stroke-linejoin: miter; stroke-linecap: square"/>
   </g>
   <g id="patch_17">
    <path d="M 274.909091 351.547826 
L 274.909091 231.026087 
" style="fill: none; stroke: #000000; stroke-width: 0.8; stroke-linejoin: miter; stroke-linecap: square"/>
   </g>
   <g id="patch_18">
    <path d="M 72 351.547826 
L 274.909091 351.547826 
" style="fill: none; stroke: #000000; stroke-width: 0.8; stroke-linejoin: miter; stroke-linecap: square"/>
   </g>
   <g id="patch_19">
    <path d="M 72 231.026087 
L 274.909091 231.026087 
" style="fill: none; stroke: #000000; stroke-width: 0.8; stroke-linejoin: miter; stroke-linecap: square"/>
   </g>
  </g>
  <g id="axes_4">
   <g id="patch_20">
    <path d="M 315.490909 351.547826 
L 518.4 351.547826 
L 518.4 231.026087 
L 315.490909 231.026087 
z
" style="fill: #ffffff"/>
   </g>
   <g id="patch_21">
    <path d="M 365.000727 351.547826 
L 518.4 351.547826 
L 518.4 231.026087 
L 365.000727 231.026087 
z
" clip-path="url(#pe78b1de37b)" style="opacity: 0.1"/>
   </g>
   <g id="matplotlib.axis_7">
    <g id="xtick_19">
     <g id="line2d_69">
      <g>
       <use xlink:href="#m17797d259f" x="315.490909" y="351.547826" style="stroke: #000000; stroke-width: 0.8"/>
      </g>
     </g>
     <g id="line2d_70">
      <g>
       <use xlink:href="#mc7a7aa098a" x="315.490909" y="231.026087" style="stroke: #000000; stroke-width: 0.8"/>
      </g>
     </g>
    </g>
    <g id="xtick_20">
     <g id="line2d_71">
      <g>
       <use xlink:href="#m17797d259f" x="356.072727" y="351.547826" style="stroke: #000000; stroke-width: 0.8"/>
      </g>
     </g>
     <g id="line2d_72">
      <g>
       <use xlink:href="#mc7a7aa098a" x="356.072727" y="231.026087" style="stroke: #000000; stroke-width: 0.8"/>
      </g>
     </g>
    </g>
    <g id="xtick_21">
     <g id="line2d_73">
      <g>
       <use xlink:href="#m17797d259f" x="396.654545" y="351.547826" style="stroke: #000000; stroke-width: 0.8"/>
      </g>
     </g>
     <g id="line2d_74">
      <g>
       <use xlink:href="#mc7a7aa098a" x="396.654545" y="231.026087" style="stroke: #000000; stroke-width: 0.8"/>
      </g>
     </g>
    </g>
    <g id="xtick_22">
     <g id="line2d_75">
      <g>
       <use xlink:href="#m17797d259f" x="437.236364" y="351.547826" style="stroke: #000000; stroke-width: 0.8"/>
      </g>
     </g>
     <g id="line2d_76">
      <g>
       <use xlink:href="#mc7a7aa098a" x="437.236364" y="231.026087" style="stroke: #000000; stroke-width: 0.8"/>
      </g>
     </g>
    </g>
    <g id="xtick_23">
     <g id="line2d_77">
      <g>
       <use xlink:href="#m17797d259f" x="477.818182" y="351.547826" style="stroke: #000000; stroke-width: 0.8"/>
      </g>
     </g>
     <g id="line2d_78">
      <g>
       <use xlink:href="#mc7a7aa098a" x="477.818182" y="231.026087" style="stroke: #000000; stroke-width: 0.8"/>
      </g>
     </g>
    </g>
    <g id="xtick_24">
     <g id="line2d_79">
      <g>
       <use xlink:href="#m17797d259f" x="518.4" y="351.547826" style="stroke: #000000; stroke-width: 0.8"/>
      </g>
     </g>
     <g id="line2d_80">
      <g>
       <use xlink:href="#mc7a7aa098a" x="518.4" y="231.026087" style="stroke: #000000; stroke-width: 0.8"/>
      </g>
     </g>
    </g>
   </g>
   <g id="matplotlib.axis_8">
    <g id="ytick_18">
     <g id="line2d_81">
      <g>
       <use xlink:href="#m5dfec8baf7" x="315.490909" y="347.49978" style="stroke: #000000; stroke-width: 0.8"/>
      </g>
     </g>
    </g>
    <g id="ytick_19">
     <g id="line2d_82">
      <g>
       <use xlink:href="#m5dfec8baf7" x="315.490909" y="324.439244" style="stroke: #000000; stroke-width: 0.8"/>
      </g>
     </g>
    </g>
    <g id="ytick_20">
     <g id="line2d_83">
      <g>
       <use xlink:href="#m5dfec8baf7" x="315.490909" y="301.378708" style="stroke: #000000; stroke-width: 0.8"/>
      </g>
     </g>
    </g>
    <g id="ytick_21">
     <g id="line2d_84">
      <g>
       <use xlink:href="#m5dfec8baf7" x="315.490909" y="278.318172" style="stroke: #000000; stroke-width: 0.8"/>
      </g>
     </g>
    </g>
    <g id="ytick_22">
     <g id="line2d_85">
      <g>
       <use xlink:href="#m5dfec8baf7" x="315.490909" y="255.257637" style="stroke: #000000; stroke-width: 0.8"/>
      </g>
     </g>
    </g>
    <g id="ytick_23">
     <g id="line2d_86">
      <g>
       <use xlink:href="#m5dfec8baf7" x="315.490909" y="232.197101" style="stroke: #000000; stroke-width: 0.8"/>
      </g>
     </g>
    </g>
   </g>
   <g id="line2d_87">
    <path d="M 316.302545 278.318172 
L 316.302545 278.318172 
L 316.302545 278.318172 
L 316.302545 278.318172 
L 316.302545 278.317711 
L 316.318778 278.307103 
L 316.322836 278.305489 
L 316.367476 278.284043 
L 316.464873 278.230773 
L 316.505455 278.207943 
L 316.793585 278.028532 
L 317.552465 277.516588 
L 318.303229 276.978125 
L 323.599156 272.972048 
L 331.342167 267.13266 
L 334.673935 264.718683 
L 343.541062 258.722713 
L 353.654051 252.783241 
L 365.102182 247.375776 
L 378.149236 243.11834 
L 393.038705 240.956645 
L 409.697542 242.222208 
L 412.181149 242.760441 
L 412.185207 242.758826 
L 416.616742 243.955668 
L 417.351273 244.183737 
L 418.568727 244.579686 
L 425.536625 247.282381 
L 432.950924 251.011731 
L 440.840029 255.963058 
L 449.25264 262.390952 
L 458.221222 270.583669 
L 467.786356 280.875125 
L 477.964276 293.603387 
L 488.738749 309.035959 
L 500.028611 326.970599 
L 503.457775 332.55563 
L 516.399316 346.069565 
L 518.197091 331.354637 
L 518.379709 312.706274 
L 518.4 294.688616 
L 518.4 282.323787 
L 518.4 278.85041 
L 518.4 278.4088 
L 518.4 278.35899 
" clip-path="url(#pe78b1de37b)" style="fill: none; stroke: #000000; stroke-width: 2; stroke-linecap: square"/>
   </g>
   <g id="line2d_88">
    <path d="M 316.302545 278.318172 
L 316.302545 278.318172 
L 316.302545 278.318172 
L 316.302545 278.318172 
L 316.302545 278.318172 
L 316.322836 278.317711 
L 316.367476 278.315175 
L 316.464873 278.304567 
L 316.505455 278.299263 
L 316.797644 278.250374 
L 317.552465 278.08872 
L 318.303229 277.907926 
L 323.538284 276.506076 
L 331.26912 274.402955 
L 334.673935 273.507745 
L 343.622225 271.289091 
L 353.771738 269.051527 
L 365.248276 266.972158 
L 378.315622 265.352617 
L 393.225382 264.695161 
L 409.904509 265.665318 
L 412.392175 265.971331 
L 412.396233 265.971331 
L 417.351273 266.708576 
L 418.309004 266.870922 
L 425.264727 268.250404 
L 432.658735 270.101704 
L 440.531607 272.517756 
L 448.923927 275.607637 
L 457.86816 279.493568 
L 467.408945 284.323367 
L 477.566575 290.246696 
L 488.324815 297.380934 
L 500.028611 305.972367 
L 503.522705 308.608647 
L 516.399316 315.132242 
L 518.197091 308.992375 
L 518.379709 301.037643 
L 518.4 292.94916 
L 518.4 285.271616 
L 518.4 280.017042 
L 518.4 278.541168 
L 518.4 278.332239 
" clip-path="url(#pe78b1de37b)" style="fill: none; stroke: #1f77b4; stroke-linecap: square"/>
   </g>
   <g id="line2d_89">
    <path d="M 316.302545 278.318172 
L 316.302545 278.318172 
L 316.302545 278.318172 
L 316.302545 278.317711 
L 316.302545 278.313099 
L 316.302545 278.312638 
L 316.31472 278.308718 
L 316.322836 278.304106 
L 316.367476 278.281045 
L 316.464873 278.224316 
L 316.505455 278.200333 
L 316.793585 278.010775 
L 317.552465 277.473004 
L 318.303229 276.909404 
L 323.570749 272.734986 
L 331.309702 266.593274 
L 334.673935 264.011416 
L 343.577585 257.577065 
L 353.702749 251.100283 
L 365.167113 245.020834 
L 378.222284 239.902548 
L 393.119869 236.63464 
L 409.786822 236.504348 
L 412.274487 236.822814 
L 412.278545 236.823506 
L 416.170342 237.501255 
L 417.351273 237.751462 
L 418.284655 237.962696 
L 425.240378 239.95259 
L 432.630327 242.875513 
L 440.5032 246.933936 
L 448.891462 252.351548 
L 457.839753 259.416374 
L 467.37648 268.425894 
L 477.530051 279.73824 
L 488.300465 293.616532 
L 500.028611 310.532818 
L 504.001571 316.411641 
L 516.399316 327.167305 
L 518.197091 312.305021 
L 518.379709 294.669245 
L 518.4 282.371062 
L 518.4 278.903218 
L 518.4 278.462301 
L 518.4 278.41641 
L 518.4 278.41249 
" clip-path="url(#pe78b1de37b)" style="fill: none; stroke: #d62728; stroke-linecap: square"/>
   </g>
   <g id="line2d_90">
    <path d="M 315.490909 278.318172 
L 518.4 278.318172 
" clip-path="url(#pe78b1de37b)" style="fill: none; stroke-dasharray: 5.55,2.4; stroke-dashoffset: 0; stroke: #000000; stroke-width: 1.5"/>
   </g>
   <g id="line2d_91">
    <path d="M 316.302545 278.317153 
L 316.302545 278.317153 
L 316.302545 278.317152 
L 316.302545 278.317139 
L 316.302545 278.317016 
L 316.318778 278.316009 
L 316.322836 278.315778 
L 316.367476 278.312797 
L 316.464873 278.306127 
L 316.505455 278.303422 
L 316.793585 278.283649 
L 317.552465 278.232209 
L 318.303229 278.181049 
L 323.599156 277.820993 
L 331.342167 277.294141 
L 334.673935 277.0673 
L 343.541062 276.464158 
L 353.654051 275.776538 
L 365.102182 274.997598 
L 378.149236 274.110779 
L 393.038705 273.09766 
L 409.697542 271.96467 
L 412.181149 271.795686 
L 412.185207 271.795686 
L 416.616742 271.493007 
L 417.351273 271.444115 
L 418.568727 271.361314 
L 425.536625 270.886045 
L 432.950924 270.381962 
L 440.840029 269.845641 
L 449.25264 269.273077 
L 458.221222 268.664042 
L 467.786356 268.013999 
L 477.964276 267.320186 
L 488.738749 266.587763 
L 500.028611 265.82096 
L 503.457775 265.585688 
L 516.399316 264.706447 
L 518.197091 264.583663 
L 518.379709 264.571007 
L 518.4 264.571007 
L 518.4 264.571007 
L 518.4 264.571007 
L 518.4 264.571007 
L 518.4 264.571007 
" clip-path="url(#pe78b1de37b)" style="fill: none; stroke-dasharray: 1,1.65; stroke-dashoffset: 0; stroke: #000000"/>
   </g>
   <g id="patch_22">
    <path d="M 315.490909 351.547826 
L 315.490909 231.026087 
" style="fill: none; stroke: #000000; stroke-width: 0.8; stroke-linejoin: miter; stroke-linecap: square"/>
   </g>
   <g id="patch_23">
    <path d="M 518.4 351.547826 
L 518.4 231.026087 
" style="fill: none; stroke: #000000; stroke-width: 0.8; stroke-linejoin: miter; stroke-linecap: square"/>
   </g>
   <g id="patch_24">
    <path d="M 315.490909 351.547826 
L 518.4 351.547826 
" style="fill: none; stroke: #000000; stroke-width: 0.8; stroke-linejoin: miter; stroke-linecap: square"/>
   </g>
   <g id="patch_25">
    <path d="M 315.490909 231.026087 
L 518.4 231.026087 
" style="fill: none; stroke: #000000; stroke-width: 0.8; stroke-linejoin: miter; stroke-linecap: square"/>
   </g>
  </g>
  <g id="axes_5">
   <g id="patch_26">
    <path d="M 72 496.173913 
L 274.909091 496.173913 
L 274.909091 375.652174 
L 72 375.652174 
z
" style="fill: #ffffff"/>
   </g>
   <g id="patch_27">
    <path d="M 121.509818 496.173913 
L 274.909091 496.173913 
L 274.909091 375.652174 
L 121.509818 375.652174 
z
" clip-path="url(#pc27dcfa1f5)" style="opacity: 0.1"/>
   </g>
   <g id="matplotlib.axis_9">
    <g id="xtick_25">
     <g id="line2d_92">
      <g>
       <use xlink:href="#m17797d259f" x="72" y="496.173913" style="stroke: #000000; stroke-width: 0.8"/>
      </g>
     </g>
     <g id="line2d_93">
      <g>
       <use xlink:href="#mc7a7aa098a" x="72" y="375.652174" style="stroke: #000000; stroke-width: 0.8"/>
      </g>
     </g>
    </g>
    <g id="xtick_26">
     <g id="line2d_94">
      <g>
       <use xlink:href="#m17797d259f" x="112.581818" y="496.173913" style="stroke: #000000; stroke-width: 0.8"/>
      </g>
     </g>
     <g id="line2d_95">
      <g>
       <use xlink:href="#mc7a7aa098a" x="112.581818" y="375.652174" style="stroke: #000000; stroke-width: 0.8"/>
      </g>
     </g>
    </g>
    <g id="xtick_27">
     <g id="line2d_96">
      <g>
       <use xlink:href="#m17797d259f" x="153.163636" y="496.173913" style="stroke: #000000; stroke-width: 0.8"/>
      </g>
     </g>
     <g id="line2d_97">
      <g>
       <use xlink:href="#mc7a7aa098a" x="153.163636" y="375.652174" style="stroke: #000000; stroke-width: 0.8"/>
      </g>
     </g>
    </g>
    <g id="xtick_28">
     <g id="line2d_98">
      <g>
       <use xlink:href="#m17797d259f" x="193.745455" y="496.173913" style="stroke: #000000; stroke-width: 0.8"/>
      </g>
     </g>
     <g id="line2d_99">
      <g>
       <use xlink:href="#mc7a7aa098a" x="193.745455" y="375.652174" style="stroke: #000000; stroke-width: 0.8"/>
      </g>
     </g>
    </g>
    <g id="xtick_29">
     <g id="line2d_100">
      <g>
       <use xlink:href="#m17797d259f" x="234.327273" y="496.173913" style="stroke: #000000; stroke-width: 0.8"/>
      </g>
     </g>
     <g id="line2d_101">
      <g>
       <use xlink:href="#mc7a7aa098a" x="234.327273" y="375.652174" style="stroke: #000000; stroke-width: 0.8"/>
      </g>
     </g>
    </g>
    <g id="xtick_30">
     <g id="line2d_102">
      <g>
       <use xlink:href="#m17797d259f" x="274.909091" y="496.173913" style="stroke: #000000; stroke-width: 0.8"/>
      </g>
     </g>
     <g id="line2d_103">
      <g>
       <use xlink:href="#mc7a7aa098a" x="274.909091" y="375.652174" style="stroke: #000000; stroke-width: 0.8"/>
      </g>
     </g>
    </g>
   </g>
   <g id="matplotlib.axis_10">
    <g id="ytick_24">
     <g id="line2d_104">
      <g>
       <use xlink:href="#m5dfec8baf7" x="72" y="491.963474" style="stroke: #000000; stroke-width: 0.8"/>
      </g>
     </g>
    </g>
    <g id="ytick_25">
     <g id="line2d_105">
      <g>
       <use xlink:href="#m5dfec8baf7" x="72" y="467.974417" style="stroke: #000000; stroke-width: 0.8"/>
      </g>
     </g>
    </g>
    <g id="ytick_26">
     <g id="line2d_106">
      <g>
       <use xlink:href="#m5dfec8baf7" x="72" y="443.985361" style="stroke: #000000; stroke-width: 0.8"/>
      </g>
     </g>
    </g>
    <g id="ytick_27">
     <g id="line2d_107">
      <g>
       <use xlink:href="#m5dfec8baf7" x="72" y="419.996305" style="stroke: #000000; stroke-width: 0.8"/>
      </g>
     </g>
    </g>
    <g id="ytick_28">
     <g id="line2d_108">
      <g>
       <use xlink:href="#m5dfec8baf7" x="72" y="396.007248" style="stroke: #000000; stroke-width: 0.8"/>
      </g>
     </g>
    </g>
   </g>
   <g id="line2d_109">
    <path d="M 72.811636 419.996305 
L 72.811636 419.996305 
L 72.811636 419.996305 
L 72.811636 419.996305 
L 72.811636 419.995825 
L 72.827869 419.98479 
L 72.831927 419.983111 
L 72.876567 419.960801 
L 72.973964 419.905386 
L 73.014545 419.881637 
L 73.302676 419.695002 
L 74.061556 419.162445 
L 74.81232 418.6023 
L 80.108247 414.434922 
L 87.851258 408.360413 
L 91.183025 405.849238 
L 100.050153 399.611844 
L 110.163142 393.433222 
L 121.611273 387.808029 
L 134.658327 383.379169 
L 149.547796 381.130435 
L 166.206633 382.446954 
L 168.69024 383.006859 
L 168.694298 383.00518 
L 173.125833 384.250212 
L 173.860364 384.487463 
L 175.077818 384.899355 
L 182.045716 387.710873 
L 189.460015 391.590383 
L 197.34912 396.741073 
L 205.761731 403.427783 
L 214.730313 411.950375 
L 224.295447 422.656211 
L 234.473367 435.896971 
L 245.24784 451.950927 
L 256.537702 470.607696 
L 259.966865 476.417606 
L 272.908407 490.475673 
L 274.706182 475.168256 
L 274.8888 455.769025 
L 274.909091 437.025896 
L 274.909091 424.163204 
L 274.909091 420.549972 
L 274.909091 420.090582 
L 274.909091 420.038765 
" clip-path="url(#pc27dcfa1f5)" style="fill: none; stroke: #000000; stroke-width: 2; stroke-linecap: square"/>
   </g>
   <g id="line2d_110">
    <path d="M 76.058182 419.996305 
L 76.058182 419.996305 
L 76.058182 419.996305 
L 76.058182 419.996305 
L 76.058182 419.996065 
L 76.078473 419.983111 
L 76.127171 419.959601 
L 76.228625 419.901068 
L 76.257033 419.885715 
L 76.557338 419.696681 
L 77.316218 419.166763 
L 78.0264 418.644281 
L 84.093382 413.903084 
L 92.290909 407.573572 
L 94.137382 406.205716 
L 102.967985 400.061399 
L 113.33664 393.838877 
L 125.206822 388.22232 
L 138.785498 383.999286 
L 154.247171 382.309737 
L 168.816044 383.99089 
L 168.820102 383.99113 
L 173.271927 385.170672 
L 175.483636 385.877869 
L 182.199927 388.509229 
L 189.602051 392.286066 
L 197.48304 397.342959 
L 205.883476 403.932753 
L 214.843942 412.368984 
L 224.392844 422.994217 
L 234.558589 436.175004 
L 245.353353 452.227041 
L 256.829891 471.201185 
L 260.027738 476.625831 
L 272.940873 490.551958 
L 274.71024 475.177851 
L 274.8888 455.769025 
L 274.909091 437.025896 
L 274.909091 424.163204 
L 274.909091 420.549972 
L 274.909091 420.090582 
L 274.909091 420.038765 
" clip-path="url(#pc27dcfa1f5)" style="fill: none; stroke: #d62728; stroke-linecap: square"/>
   </g>
   <g id="line2d_111">
    <path d="M 82.145455 419.996305 
L 82.145455 419.996305 
L 82.145455 419.996305 
L 82.145455 419.996305 
L 82.145455 419.996065 
L 82.165745 419.986229 
L 82.22256 419.953844 
L 82.336189 419.892432 
L 82.636495 419.711794 
L 83.387258 419.205145 
L 84.0528 418.726564 
L 89.198575 414.7902 
L 97.826269 408.23591 
L 99.668684 406.894441 
L 109.0512 400.54094 
L 120.223375 394.177843 
L 133.11216 388.721052 
L 147.863651 385.234962 
L 164.425091 385.147162 
L 169.40448 385.961111 
L 169.408538 385.962071 
L 173.909062 387.044217 
L 178.527273 388.500832 
L 182.703142 390.12873 
L 190.097149 393.74508 
L 197.970022 398.652042 
L 206.362342 405.109416 
L 215.314691 413.432899 
L 224.855476 423.966253 
L 235.017164 437.108178 
L 245.795695 453.142703 
L 257.385862 472.333949 
L 260.137309 476.996941 
L 273.001745 490.695652 
L 274.718356 475.196803 
L 274.8888 455.769025 
L 274.909091 437.025896 
L 274.909091 424.163204 
L 274.909091 420.549972 
L 274.909091 420.090582 
L 274.909091 420.038765 
" clip-path="url(#pc27dcfa1f5)" style="fill: none; stroke: #d62728; stroke-linecap: square"/>
   </g>
   <g id="line2d_112">
    <path d="M 72 419.996305 
L 274.909091 419.996305 
" clip-path="url(#pc27dcfa1f5)" style="fill: none; stroke-dasharray: 5.55,2.4; stroke-dashoffset: 0; stroke: #000000; stroke-width: 1.5"/>
   </g>
   <g id="line2d_113">
    <path d="M 72.811636 419.995244 
L 72.811636 419.995244 
L 72.811636 419.995243 
L 72.811636 419.99523 
L 72.811636 419.995101 
L 72.827869 419.994054 
L 72.831927 419.993814 
L 72.876567 419.990713 
L 72.973964 419.983774 
L 73.014545 419.98096 
L 73.302676 419.960391 
L 74.061556 419.90688 
L 74.81232 419.853659 
L 80.108247 419.479106 
L 87.851258 418.931041 
L 91.183025 418.695066 
L 100.050153 418.067639 
L 110.163142 417.352332 
L 121.611273 416.542029 
L 134.658327 415.619502 
L 149.547796 414.56559 
L 166.206633 413.386982 
L 168.69024 413.211194 
L 168.694298 413.211194 
L 173.125833 412.896328 
L 173.860364 412.845467 
L 175.077818 412.759332 
L 182.045716 412.264926 
L 189.460015 411.740547 
L 197.34912 411.182631 
L 205.761731 410.587013 
L 214.730313 409.953455 
L 224.295447 409.277239 
L 234.473367 408.55549 
L 245.24784 407.793576 
L 256.537702 406.995898 
L 259.966865 406.751153 
L 272.908407 405.83651 
L 274.706182 405.708782 
L 274.8888 405.695616 
L 274.909091 405.695616 
L 274.909091 405.695616 
L 274.909091 405.695616 
L 274.909091 405.695616 
L 274.909091 405.695616 
" clip-path="url(#pc27dcfa1f5)" style="fill: none; stroke-dasharray: 1,1.65; stroke-dashoffset: 0; stroke: #000000"/>
   </g>
   <g id="patch_28">
    <path d="M 72 496.173913 
L 72 375.652174 
" style="fill: none; stroke: #000000; stroke-width: 0.8; stroke-linejoin: miter; stroke-linecap: square"/>
   </g>
   <g id="patch_29">
    <path d="M 274.909091 496.173913 
L 274.909091 375.652174 
" style="fill: none; stroke: #000000; stroke-width: 0.8; stroke-linejoin: miter; stroke-linecap: square"/>
   </g>
   <g id="patch_30">
    <path d="M 72 496.173913 
L 274.909091 496.173913 
" style="fill: none; stroke: #000000; stroke-width: 0.8; stroke-linejoin: miter; stroke-linecap: square"/>
   </g>
   <g id="patch_31">
    <path d="M 72 375.652174 
L 274.909091 375.652174 
" style="fill: none; stroke: #000000; stroke-width: 0.8; stroke-linejoin: miter; stroke-linecap: square"/>
   </g>
  </g>
  <g id="axes_6">
   <g id="patch_32">
    <path d="M 315.490909 496.173913 
L 518.4 496.173913 
L 518.4 375.652174 
L 315.490909 375.652174 
z
" style="fill: #ffffff"/>
   </g>
   <g id="patch_33">
    <path d="M 365.000727 496.173913 
L 518.4 496.173913 
L 518.4 375.652174 
L 365.000727 375.652174 
z
" clip-path="url(#p770fa9be81)" style="opacity: 0.1"/>
   </g>
   <g id="matplotlib.axis_11">
    <g id="xtick_31">
     <g id="line2d_114">
      <g>
       <use xlink:href="#m17797d259f" x="315.490909" y="496.173913" style="stroke: #000000; stroke-width: 0.8"/>
      </g>
     </g>
     <g id="line2d_115">
      <g>
       <use xlink:href="#mc7a7aa098a" x="315.490909" y="375.652174" style="stroke: #000000; stroke-width: 0.8"/>
      </g>
     </g>
    </g>
    <g id="xtick_32">
     <g id="line2d_116">
      <g>
       <use xlink:href="#m17797d259f" x="356.072727" y="496.173913" style="stroke: #000000; stroke-width: 0.8"/>
      </g>
     </g>
     <g id="line2d_117">
      <g>
       <use xlink:href="#mc7a7aa098a" x="356.072727" y="375.652174" style="stroke: #000000; stroke-width: 0.8"/>
      </g>
     </g>
    </g>
    <g id="xtick_33">
     <g id="line2d_118">
      <g>
       <use xlink:href="#m17797d259f" x="396.654545" y="496.173913" style="stroke: #000000; stroke-width: 0.8"/>
      </g>
     </g>
     <g id="line2d_119">
      <g>
       <use xlink:href="#mc7a7aa098a" x="396.654545" y="375.652174" style="stroke: #000000; stroke-width: 0.8"/>
      </g>
     </g>
    </g>
    <g id="xtick_34">
     <g id="line2d_120">
      <g>
       <use xlink:href="#m17797d259f" x="437.236364" y="496.173913" style="stroke: #000000; stroke-width: 0.8"/>
      </g>
     </g>
     <g id="line2d_121">
      <g>
       <use xlink:href="#mc7a7aa098a" x="437.236364" y="375.652174" style="stroke: #000000; stroke-width: 0.8"/>
      </g>
     </g>
    </g>
    <g id="xtick_35">
     <g id="line2d_122">
      <g>
       <use xlink:href="#m17797d259f" x="477.818182" y="496.173913" style="stroke: #000000; stroke-width: 0.8"/>
      </g>
     </g>
     <g id="line2d_123">
      <g>
       <use xlink:href="#mc7a7aa098a" x="477.818182" y="375.652174" style="stroke: #000000; stroke-width: 0.8"/>
      </g>
     </g>
    </g>
    <g id="xtick_36">
     <g id="line2d_124">
      <g>
       <use xlink:href="#m17797d259f" x="518.4" y="496.173913" style="stroke: #000000; stroke-width: 0.8"/>
      </g>
     </g>
     <g id="line2d_125">
      <g>
       <use xlink:href="#mc7a7aa098a" x="518.4" y="375.652174" style="stroke: #000000; stroke-width: 0.8"/>
      </g>
     </g>
    </g>
   </g>
   <g id="matplotlib.axis_12">
    <g id="ytick_29">
     <g id="line2d_126">
      <g>
       <use xlink:href="#m5dfec8baf7" x="315.490909" y="492.186447" style="stroke: #000000; stroke-width: 0.8"/>
      </g>
     </g>
    </g>
    <g id="ytick_30">
     <g id="line2d_127">
      <g>
       <use xlink:href="#m5dfec8baf7" x="315.490909" y="468.149129" style="stroke: #000000; stroke-width: 0.8"/>
      </g>
     </g>
    </g>
    <g id="ytick_31">
     <g id="line2d_128">
      <g>
       <use xlink:href="#m5dfec8baf7" x="315.490909" y="444.111812" style="stroke: #000000; stroke-width: 0.8"/>
      </g>
     </g>
    </g>
    <g id="ytick_32">
     <g id="line2d_129">
      <g>
       <use xlink:href="#m5dfec8baf7" x="315.490909" y="420.074495" style="stroke: #000000; stroke-width: 0.8"/>
      </g>
     </g>
    </g>
    <g id="ytick_33">
     <g id="line2d_130">
      <g>
       <use xlink:href="#m5dfec8baf7" x="315.490909" y="396.037177" style="stroke: #000000; stroke-width: 0.8"/>
      </g>
     </g>
    </g>
   </g>
   <g id="line2d_131">
    <path d="M 316.302545 420.074495 
L 316.302545 420.074495 
L 316.302545 420.074495 
L 316.302545 420.074495 
L 316.302545 420.074014 
L 316.318778 420.062957 
L 316.322836 420.061274 
L 316.367476 420.038919 
L 316.464873 419.983393 
L 316.505455 419.959596 
L 316.793585 419.772586 
L 317.552465 419.238957 
L 318.303229 418.677686 
L 323.599156 414.501923 
L 331.342167 408.415194 
L 334.673935 405.898967 
L 343.541062 399.649024 
L 353.654051 393.457973 
L 365.102182 387.821462 
L 378.149236 383.383693 
L 393.038705 381.130435 
L 409.697542 382.449603 
L 412.181149 383.010634 
L 412.185207 383.008951 
L 416.616742 384.256488 
L 417.351273 384.494217 
L 418.568727 384.906938 
L 425.536625 387.724111 
L 432.950924 391.611426 
L 440.840029 396.772479 
L 449.25264 403.472641 
L 458.221222 412.012378 
L 467.786356 422.739752 
L 477.964276 436.00715 
L 488.738749 452.093403 
L 500.028611 470.787706 
L 503.457775 476.609303 
L 516.399316 490.695652 
L 518.197091 475.35744 
L 518.379709 455.919183 
L 518.4 437.138346 
L 518.4 424.249777 
L 518.4 420.629276 
L 518.4 420.168961 
L 518.4 420.117041 
" clip-path="url(#p770fa9be81)" style="fill: none; stroke: #000000; stroke-width: 2; stroke-linecap: square"/>
   </g>
   <g id="line2d_132">
    <path d="M 316.302545 420.074495 
L 316.302545 420.074495 
L 316.302545 420.074495 
L 316.302545 420.074495 
L 316.302545 420.074254 
L 316.31472 420.069206 
L 316.31472 420.069206 
L 316.363418 420.066562 
L 316.424291 420.063678 
L 316.785469 420.044448 
L 317.499709 420.002863 
L 320.77872 419.7947 
L 327.29616 419.373326 
L 335.010764 418.910367 
L 343.772378 418.457023 
L 353.471433 418.06209 
L 364.205324 417.769556 
L 376.152611 417.63687 
L 376.769455 417.635668 
L 380.600378 417.641678 
L 385.41744 417.680378 
L 390.482051 417.75946 
L 395.77392 417.884455 
L 401.268698 418.059687 
L 406.962327 418.289243 
L 410.598458 418.46111 
L 410.602516 418.46135 
L 412.420582 418.554375 
L 418.998895 418.926713 
L 426.242749 419.390633 
L 428.486924 419.541106 
L 436.0392 420.019449 
L 437.114618 420.073293 
L 437.224189 420.07834 
L 437.236364 420.079062 
L 437.236364 420.079062 
L 437.236364 420.079062 
L 437.236364 420.079062 
L 437.236364 420.079062 
" clip-path="url(#p770fa9be81)" style="fill: none; stroke: #1f77b4; stroke-linecap: square"/>
   </g>
   <g id="line2d_133">
    <path d="M 316.302545 420.074495 
L 316.302545 420.074495 
L 316.302545 420.074495 
L 316.302545 420.074495 
L 316.302545 420.074014 
L 316.31472 420.068966 
L 316.31472 420.068726 
L 316.375593 420.063678 
L 316.444582 420.057909 
L 316.753004 420.028824 
L 317.560582 419.944933 
L 317.702618 419.929549 
L 321.517309 419.490628 
L 328.72464 418.65461 
L 329.142633 418.607737 
L 336.857236 417.784219 
L 345.837993 416.954691 
L 355.914458 416.216986 
L 367.188087 415.660041 
L 379.849615 415.398756 
L 386.914909 415.429523 
L 391.253105 415.512933 
L 396.57744 415.683117 
L 402.100625 415.939355 
L 407.875418 416.294867 
L 411.134138 416.534519 
L 411.142255 416.53548 
L 414.818967 416.840033 
L 421.555549 417.488079 
L 428.714182 418.30006 
L 436.315156 419.281023 
L 444.687185 420.436737 
L 447.389935 420.796335 
L 456.1272 421.187182 
L 457.385236 420.354049 
L 457.515098 420.108387 
L 457.527273 420.07834 
L 457.527273 420.074975 
L 457.527273 420.074495 
L 457.527273 420.074495 
L 457.527273 420.074495 
" clip-path="url(#p770fa9be81)" style="fill: none; stroke: #1f77b4; stroke-linecap: square"/>
   </g>
   <g id="line2d_134">
    <path d="M 316.302545 420.074495 
L 316.302545 420.074495 
L 316.302545 420.074495 
L 316.302545 420.074495 
L 316.302545 420.074014 
L 316.31472 420.068245 
L 316.318778 420.067764 
L 316.383709 420.05839 
L 316.464873 420.04613 
L 316.728655 420.001421 
L 317.426662 419.872341 
L 317.901469 419.779557 
L 322.369527 418.849553 
L 329.836582 417.294338 
L 330.985047 417.063099 
L 339.673615 415.422552 
L 349.291505 413.870223 
L 359.980756 412.519085 
L 371.992975 411.522498 
L 385.575709 411.114584 
L 397.060364 411.400629 
L 401.686691 411.685951 
L 407.453367 412.18088 
L 410.708029 412.529661 
L 410.712087 412.529902 
L 415.310007 413.10824 
L 422.079055 414.142325 
L 429.270153 415.480002 
L 436.923884 417.17319 
L 445.076771 419.267802 
L 453.76128 421.791961 
L 463.13568 424.725235 
L 465.5016 425.455969 
L 476.219258 426.916477 
L 477.655855 423.735378 
L 477.801949 421.028536 
L 477.818182 420.198287 
L 477.818182 420.087955 
L 477.818182 420.076658 
L 477.818182 420.075696 
L 477.818182 420.075216 
" clip-path="url(#p770fa9be81)" style="fill: none; stroke: #1f77b4; stroke-linecap: square"/>
   </g>
   <g id="line2d_135">
    <path d="M 316.302545 420.074495 
L 316.302545 420.074495 
L 316.302545 420.074495 
L 316.302545 420.074495 
L 316.302545 420.074014 
L 316.318778 420.066562 
L 316.318778 420.065841 
L 316.379651 420.050457 
L 316.485164 420.020651 
L 316.76112 419.933395 
L 317.479418 419.683167 
L 318.104378 419.452889 
L 322.722589 417.646245 
L 330.246458 414.704317 
L 332.83152 413.73345 
L 340.753091 410.935266 
L 350.224887 408.015453 
L 361.056175 405.330966 
L 373.368698 403.224095 
L 387.3816 402.149146 
L 403.151695 402.758251 
L 407.205818 403.238757 
L 410.330618 403.704841 
L 410.334676 403.704841 
L 413.98704 404.352647 
L 420.674924 405.834067 
L 427.776742 407.830606 
L 435.333076 410.443222 
L 443.380451 413.784169 
L 451.959447 417.982527 
L 461.110647 423.175549 
L 470.838109 429.442558 
L 481.580116 437.0059 
L 484.895651 439.35026 
L 496.307258 443.649334 
L 497.926473 436.637889 
L 498.092858 428.390204 
L 498.109091 422.279438 
L 498.109091 420.359096 
L 498.109091 420.100936 
L 498.109091 420.074495 
L 498.109091 420.071129 
" clip-path="url(#p770fa9be81)" style="fill: none; stroke: #1f77b4; stroke-linecap: square"/>
   </g>
   <g id="line2d_136">
    <path d="M 315.490909 420.074495 
L 518.4 420.074495 
" clip-path="url(#p770fa9be81)" style="fill: none; stroke-dasharray: 5.55,2.4; stroke-dashoffset: 0; stroke: #000000; stroke-width: 1.5"/>
   </g>
   <g id="line2d_137">
    <path d="M 316.302545 420.073432 
L 316.302545 420.073432 
L 316.302545 420.073431 
L 316.302545 420.073418 
L 316.302545 420.073289 
L 316.318778 420.072239 
L 316.322836 420.071999 
L 316.367476 420.068891 
L 316.464873 420.061939 
L 316.505455 420.059119 
L 316.793585 420.038509 
L 317.552465 419.98489 
L 318.303229 419.931562 
L 323.599156 419.556256 
L 331.342167 419.007088 
L 334.673935 418.770638 
L 343.541062 418.141949 
L 353.654051 417.425203 
L 365.102182 416.61327 
L 378.149236 415.688887 
L 393.038705 414.632855 
L 409.697542 413.451875 
L 412.181149 413.275734 
L 412.185207 413.275734 
L 416.616742 412.960234 
L 417.351273 412.909271 
L 418.568727 412.822962 
L 425.536625 412.327562 
L 432.950924 411.802128 
L 440.840029 411.24309 
L 449.25264 410.646273 
L 458.221222 410.011441 
L 467.786356 409.333864 
L 477.964276 408.610664 
L 488.738749 407.847217 
L 500.028611 407.047934 
L 503.457775 406.802696 
L 516.399316 405.886214 
L 518.197091 405.758228 
L 518.379709 405.745036 
L 518.4 405.745036 
L 518.4 405.745036 
L 518.4 405.745036 
L 518.4 405.745036 
L 518.4 405.745036 
" clip-path="url(#p770fa9be81)" style="fill: none; stroke-dasharray: 1,1.65; stroke-dashoffset: 0; stroke: #000000"/>
   </g>
   <g id="patch_34">
    <path d="M 315.490909 496.173913 
L 315.490909 375.652174 
" style="fill: none; stroke: #000000; stroke-width: 0.8; stroke-linejoin: miter; stroke-linecap: square"/>
   </g>
   <g id="patch_35">
    <path d="M 518.4 496.173913 
L 518.4 375.652174 
" style="fill: none; stroke: #000000; stroke-width: 0.8; stroke-linejoin: miter; stroke-linecap: square"/>
   </g>
   <g id="patch_36">
    <path d="M 315.490909 496.173913 
L 518.4 496.173913 
" style="fill: none; stroke: #000000; stroke-width: 0.8; stroke-linejoin: miter; stroke-linecap: square"/>
   </g>
   <g id="patch_37">
    <path d="M 315.490909 375.652174 
L 518.4 375.652174 
" style="fill: none; stroke: #000000; stroke-width: 0.8; stroke-linejoin: miter; stroke-linecap: square"/>
   </g>
  </g>
  <g id="axes_7">
   <g id="patch_38">
    <path d="M 72 640.8 
L 274.909091 640.8 
L 274.909091 520.278261 
L 72 520.278261 
z
" style="fill: #ffffff"/>
   </g>
   <g id="patch_39">
    <path d="M 121.509818 640.8 
L 274.909091 640.8 
L 274.909091 520.278261 
L 121.509818 520.278261 
z
" clip-path="url(#pd24332a6e1)" style="opacity: 0.1"/>
   </g>
   <g id="matplotlib.axis_13">
    <g id="xtick_37">
     <g id="line2d_138">
      <g>
       <use xlink:href="#m17797d259f" x="72" y="640.8" style="stroke: #000000; stroke-width: 0.8"/>
      </g>
     </g>
     <g id="line2d_139">
      <g>
       <use xlink:href="#mc7a7aa098a" x="72" y="520.278261" style="stroke: #000000; stroke-width: 0.8"/>
      </g>
     </g>
    </g>
    <g id="xtick_38">
     <g id="line2d_140">
      <g>
       <use xlink:href="#m17797d259f" x="112.581818" y="640.8" style="stroke: #000000; stroke-width: 0.8"/>
      </g>
     </g>
     <g id="line2d_141">
      <g>
       <use xlink:href="#mc7a7aa098a" x="112.581818" y="520.278261" style="stroke: #000000; stroke-width: 0.8"/>
      </g>
     </g>
    </g>
    <g id="xtick_39">
     <g id="line2d_142">
      <g>
       <use xlink:href="#m17797d259f" x="153.163636" y="640.8" style="stroke: #000000; stroke-width: 0.8"/>
      </g>
     </g>
     <g id="line2d_143">
      <g>
       <use xlink:href="#mc7a7aa098a" x="153.163636" y="520.278261" style="stroke: #000000; stroke-width: 0.8"/>
      </g>
     </g>
    </g>
    <g id="xtick_40">
     <g id="line2d_144">
      <g>
       <use xlink:href="#m17797d259f" x="193.745455" y="640.8" style="stroke: #000000; stroke-width: 0.8"/>
      </g>
     </g>
     <g id="line2d_145">
      <g>
       <use xlink:href="#mc7a7aa098a" x="193.745455" y="520.278261" style="stroke: #000000; stroke-width: 0.8"/>
      </g>
     </g>
    </g>
    <g id="xtick_41">
     <g id="line2d_146">
      <g>
       <use xlink:href="#m17797d259f" x="234.327273" y="640.8" style="stroke: #000000; stroke-width: 0.8"/>
      </g>
     </g>
     <g id="line2d_147">
      <g>
       <use xlink:href="#mc7a7aa098a" x="234.327273" y="520.278261" style="stroke: #000000; stroke-width: 0.8"/>
      </g>
     </g>
    </g>
    <g id="xtick_42">
     <g id="line2d_148">
      <g>
       <use xlink:href="#m17797d259f" x="274.909091" y="640.8" style="stroke: #000000; stroke-width: 0.8"/>
      </g>
     </g>
     <g id="line2d_149">
      <g>
       <use xlink:href="#mc7a7aa098a" x="274.909091" y="520.278261" style="stroke: #000000; stroke-width: 0.8"/>
      </g>
     </g>
    </g>
   </g>
   <g id="matplotlib.axis_14">
    <g id="ytick_34">
     <g id="line2d_150">
      <g>
       <use xlink:href="#m5dfec8baf7" x="72" y="636.809479" style="stroke: #000000; stroke-width: 0.8"/>
      </g>
     </g>
    </g>
    <g id="ytick_35">
     <g id="line2d_151">
      <g>
       <use xlink:href="#m5dfec8baf7" x="72" y="612.798184" style="stroke: #000000; stroke-width: 0.8"/>
      </g>
     </g>
    </g>
    <g id="ytick_36">
     <g id="line2d_152">
      <g>
       <use xlink:href="#m5dfec8baf7" x="72" y="588.78689" style="stroke: #000000; stroke-width: 0.8"/>
      </g>
     </g>
    </g>
    <g id="ytick_37">
     <g id="line2d_153">
      <g>
       <use xlink:href="#m5dfec8baf7" x="72" y="564.775596" style="stroke: #000000; stroke-width: 0.8"/>
      </g>
     </g>
    </g>
    <g id="ytick_38">
     <g id="line2d_154">
      <g>
       <use xlink:href="#m5dfec8baf7" x="72" y="540.764301" style="stroke: #000000; stroke-width: 0.8"/>
      </g>
     </g>
    </g>
   </g>
   <g id="line2d_155">
    <path d="M 72.811636 564.775596 
L 72.811636 564.775596 
L 72.811636 564.775596 
L 72.811636 564.775596 
L 72.811636 564.775115 
L 72.827869 564.76407 
L 72.831927 564.762389 
L 72.876567 564.740059 
L 72.973964 564.684593 
L 73.014545 564.660822 
L 73.302676 564.474014 
L 74.061556 563.940963 
L 74.81232 563.380299 
L 80.108247 559.209057 
L 87.851258 553.128917 
L 91.183025 550.615415 
L 100.050153 544.372238 
L 110.163142 538.187889 
L 121.611273 532.557481 
L 134.658327 528.124516 
L 149.547796 525.873697 
L 166.206633 527.191437 
L 168.69024 527.75186 
L 168.694298 527.75018 
L 173.125833 528.996366 
L 173.860364 529.233837 
L 175.077818 529.646111 
L 182.045716 532.460235 
L 189.460015 536.343342 
L 197.34912 541.498807 
L 205.761731 548.191715 
L 214.730313 556.722207 
L 224.295447 567.437968 
L 234.473367 580.691002 
L 245.24784 596.75984 
L 256.537702 615.433904 
L 259.966865 621.2492 
L 272.908407 635.320298 
L 274.706182 619.998691 
L 274.8888 600.581478 
L 274.909091 581.820973 
L 274.909091 568.946357 
L 274.909091 565.329776 
L 274.909091 564.86996 
L 274.909091 564.818096 
" clip-path="url(#pd24332a6e1)" style="fill: none; stroke: #000000; stroke-width: 2; stroke-linecap: square"/>
   </g>
   <g id="line2d_156">
    <path d="M 72.811636 564.775596 
L 72.811636 564.775596 
L 72.811636 564.775596 
L 72.811636 564.775596 
L 72.811636 564.774875 
L 72.827869 564.758788 
L 72.831927 564.753745 
L 72.913091 564.595751 
L 73.014545 564.373646 
L 73.761251 563.82907 
L 74.81232 563.034537 
L 80.469425 558.551388 
L 88.281425 552.440753 
L 91.183025 550.26413 
L 99.571287 544.364314 
L 109.448902 538.288256 
L 120.754996 532.663611 
L 133.660015 528.162694 
L 148.403389 525.756522 
L 164.948596 526.813019 
L 169.919869 527.949473 
L 169.923927 527.951154 
L 173.860364 529.125787 
L 175.077818 529.540222 
L 182.045716 532.374034 
L 189.455956 536.268426 
L 197.34912 541.444541 
L 205.757673 548.147054 
L 214.726255 556.690993 
L 224.287331 567.413957 
L 234.469309 580.684519 
L 245.239724 596.753117 
L 256.537702 615.438226 
L 259.970924 621.260965 
L 272.908407 635.321739 
L 274.706182 619.998691 
L 274.8888 600.581478 
L 274.909091 581.820973 
L 274.909091 568.946357 
L 274.909091 565.329776 
L 274.909091 564.86996 
L 274.909091 564.818096 
" clip-path="url(#pd24332a6e1)" style="fill: none; stroke: #1f77b4; stroke-linecap: square"/>
   </g>
   <g id="line2d_157">
    <path d="M 72.811636 564.775596 
L 72.811636 564.775596 
L 72.811636 564.775596 
L 72.811636 564.775596 
L 72.811636 564.775596 
L 72.811636 564.775355 
L 72.815695 564.774155 
L 72.823811 564.771754 
L 72.831927 564.768392 
L 72.856276 564.756387 
L 72.913091 564.726372 
L 73.014545 564.669226 
L 73.282385 564.497785 
L 73.972276 564.014438 
L 74.81232 563.391104 
L 79.970269 559.327913 
L 87.709222 553.246092 
L 91.183025 550.62694 
L 100.208422 544.280755 
L 110.3904 538.069754 
L 121.887229 532.45039 
L 134.974865 528.0496 
L 149.908975 525.862171 
L 166.604335 527.278598 
L 169.092 527.856069 
L 169.096058 527.85703 
L 173.535709 529.131789 
L 173.860364 529.236719 
L 175.07376 529.645391 
L 182.045716 532.465758 
L 189.455956 536.344062 
L 197.34912 541.500007 
L 205.761731 548.192435 
L 214.730313 556.722448 
L 224.291389 567.431965 
L 234.473367 580.691002 
L 245.24784 596.7596 
L 256.537702 615.433184 
L 259.966865 621.2492 
L 272.908407 635.320298 
L 274.706182 619.998691 
L 274.8888 600.581478 
L 274.909091 581.820973 
L 274.909091 568.946357 
L 274.909091 565.329776 
L 274.909091 564.86996 
L 274.909091 564.818096 
" clip-path="url(#pd24332a6e1)" style="fill: none; stroke: #d62728; stroke-linecap: square"/>
   </g>
   <g id="line2d_158">
    <path d="M 72 564.775596 
L 274.909091 564.775596 
" clip-path="url(#pd24332a6e1)" style="fill: none; stroke-dasharray: 5.55,2.4; stroke-dashoffset: 0; stroke: #000000; stroke-width: 1.5"/>
   </g>
   <g id="line2d_159">
    <path d="M 72.811636 564.774534 
L 72.811636 564.774534 
L 72.811636 564.774533 
L 72.811636 564.77452 
L 72.811636 564.774391 
L 72.827869 564.773343 
L 72.831927 564.773103 
L 72.876567 564.769999 
L 72.973964 564.763054 
L 73.014545 564.760237 
L 73.302676 564.739649 
L 74.061556 564.686088 
L 74.81232 564.632818 
L 80.108247 564.257918 
L 87.851258 563.709345 
L 91.183025 563.473151 
L 100.050153 562.845142 
L 110.163142 562.129172 
L 121.611273 561.318118 
L 134.658327 560.394736 
L 149.547796 559.339847 
L 166.206633 558.160146 
L 168.69024 557.984195 
L 168.694298 557.984195 
L 173.125833 557.669037 
L 173.860364 557.618129 
L 175.077818 557.531914 
L 182.045716 557.03705 
L 189.460015 556.512185 
L 197.34912 555.953752 
L 205.761731 555.357581 
L 214.730313 554.723437 
L 224.295447 554.046593 
L 234.473367 553.324175 
L 245.24784 552.561555 
L 256.537702 551.763137 
L 259.966865 551.518165 
L 272.908407 550.602675 
L 274.706182 550.474828 
L 274.8888 550.46165 
L 274.909091 550.46165 
L 274.909091 550.46165 
L 274.909091 550.46165 
L 274.909091 550.46165 
L 274.909091 550.46165 
" clip-path="url(#pd24332a6e1)" style="fill: none; stroke-dasharray: 1,1.65; stroke-dashoffset: 0; stroke: #000000"/>
   </g>
   <g id="patch_40">
    <path d="M 72 640.8 
L 72 520.278261 
" style="fill: none; stroke: #000000; stroke-width: 0.8; stroke-linejoin: miter; stroke-linecap: square"/>
   </g>
   <g id="patch_41">
    <path d="M 274.909091 640.8 
L 274.909091 520.278261 
" style="fill: none; stroke: #000000; stroke-width: 0.8; stroke-linejoin: miter; stroke-linecap: square"/>
   </g>
   <g id="patch_42">
    <path d="M 72 640.8 
L 274.909091 640.8 
" style="fill: none; stroke: #000000; stroke-width: 0.8; stroke-linejoin: miter; stroke-linecap: square"/>
   </g>
   <g id="patch_43">
    <path d="M 72 520.278261 
L 274.909091 520.278261 
" style="fill: none; stroke: #000000; stroke-width: 0.8; stroke-linejoin: miter; stroke-linecap: square"/>
   </g>
  </g>
  <g id="axes_8">
   <g id="patch_44">
    <path d="M 315.490909 640.8 
L 518.4 640.8 
L 518.4 520.278261 
L 315.490909 520.278261 
z
" style="fill: #ffffff"/>
   </g>
   <g id="patch_45">
    <path d="M 365.000727 640.8 
L 518.4 640.8 
L 518.4 520.278261 
L 365.000727 520.278261 
z
" clip-path="url(#p29b28298fa)" style="opacity: 0.1"/>
   </g>
   <g id="matplotlib.axis_15">
    <g id="xtick_43">
     <g id="line2d_160">
      <g>
       <use xlink:href="#m17797d259f" x="315.490909" y="640.8" style="stroke: #000000; stroke-width: 0.8"/>
      </g>
     </g>
     <g id="line2d_161">
      <g>
       <use xlink:href="#mc7a7aa098a" x="315.490909" y="520.278261" style="stroke: #000000; stroke-width: 0.8"/>
      </g>
     </g>
    </g>
    <g id="xtick_44">
     <g id="line2d_162">
      <g>
       <use xlink:href="#m17797d259f" x="356.072727" y="640.8" style="stroke: #000000; stroke-width: 0.8"/>
      </g>
     </g>
     <g id="line2d_163">
      <g>
       <use xlink:href="#mc7a7aa098a" x="356.072727" y="520.278261" style="stroke: #000000; stroke-width: 0.8"/>
      </g>
     </g>
    </g>
    <g id="xtick_45">
     <g id="line2d_164">
      <g>
       <use xlink:href="#m17797d259f" x="396.654545" y="640.8" style="stroke: #000000; stroke-width: 0.8"/>
      </g>
     </g>
     <g id="line2d_165">
      <g>
       <use xlink:href="#mc7a7aa098a" x="396.654545" y="520.278261" style="stroke: #000000; stroke-width: 0.8"/>
      </g>
     </g>
    </g>
    <g id="xtick_46">
     <g id="line2d_166">
      <g>
       <use xlink:href="#m17797d259f" x="437.236364" y="640.8" style="stroke: #000000; stroke-width: 0.8"/>
      </g>
     </g>
     <g id="line2d_167">
      <g>
       <use xlink:href="#mc7a7aa098a" x="437.236364" y="520.278261" style="stroke: #000000; stroke-width: 0.8"/>
      </g>
     </g>
    </g>
    <g id="xtick_47">
     <g id="line2d_168">
      <g>
       <use xlink:href="#m17797d259f" x="477.818182" y="640.8" style="stroke: #000000; stroke-width: 0.8"/>
      </g>
     </g>
     <g id="line2d_169">
      <g>
       <use xlink:href="#mc7a7aa098a" x="477.818182" y="520.278261" style="stroke: #000000; stroke-width: 0.8"/>
      </g>
     </g>
    </g>
    <g id="xtick_48">
     <g id="line2d_170">
      <g>
       <use xlink:href="#m17797d259f" x="518.4" y="640.8" style="stroke: #000000; stroke-width: 0.8"/>
      </g>
     </g>
     <g id="line2d_171">
      <g>
       <use xlink:href="#mc7a7aa098a" x="518.4" y="520.278261" style="stroke: #000000; stroke-width: 0.8"/>
      </g>
     </g>
    </g>
   </g>
   <g id="matplotlib.axis_16">
    <g id="ytick_39">
     <g id="line2d_172">
      <g>
       <use xlink:href="#m5dfec8baf7" x="315.490909" y="622.159583" style="stroke: #000000; stroke-width: 0.8"/>
      </g>
     </g>
    </g>
    <g id="ytick_40">
     <g id="line2d_173">
      <g>
       <use xlink:href="#m5dfec8baf7" x="315.490909" y="594.094686" style="stroke: #000000; stroke-width: 0.8"/>
      </g>
     </g>
    </g>
    <g id="ytick_41">
     <g id="line2d_174">
      <g>
       <use xlink:href="#m5dfec8baf7" x="315.490909" y="566.029789" style="stroke: #000000; stroke-width: 0.8"/>
      </g>
     </g>
    </g>
    <g id="ytick_42">
     <g id="line2d_175">
      <g>
       <use xlink:href="#m5dfec8baf7" x="315.490909" y="537.964892" style="stroke: #000000; stroke-width: 0.8"/>
      </g>
     </g>
    </g>
   </g>
   <g id="line2d_176">
    <path d="M 316.302545 594.094686 
L 316.302545 594.094686 
L 316.302545 594.094686 
L 316.302545 594.094686 
L 316.302545 594.094406 
L 316.318778 594.087951 
L 316.322836 594.086968 
L 316.367476 594.073918 
L 316.464873 594.041503 
L 316.505455 594.027611 
L 316.793585 593.918439 
L 317.552465 593.606918 
L 318.303229 593.279261 
L 323.599156 590.841544 
L 331.342167 587.288247 
L 334.673935 585.81933 
L 343.541062 582.170753 
L 353.654051 578.556556 
L 365.102182 575.266087 
L 378.149236 572.675416 
L 393.038705 571.360015 
L 409.697542 572.130116 
L 412.181149 572.457633 
L 412.185207 572.456651 
L 416.616742 573.184935 
L 417.351273 573.323716 
L 418.568727 573.564653 
L 425.536625 575.209256 
L 432.950924 577.478583 
L 440.840029 580.49149 
L 449.25264 584.402895 
L 458.221222 589.388203 
L 467.786356 595.650604 
L 477.964276 603.395814 
L 488.738749 612.786609 
L 500.028611 623.699925 
L 503.457775 627.098444 
L 516.399316 635.321739 
L 518.197091 626.367634 
L 518.379709 615.020014 
L 518.4 604.056181 
L 518.4 596.532122 
L 518.4 594.418555 
L 518.4 594.149834 
L 518.4 594.119524 
" clip-path="url(#p29b28298fa)" style="fill: none; stroke: #000000; stroke-width: 2; stroke-linecap: square"/>
   </g>
   <g id="line2d_177">
    <path d="M 316.302545 594.094686 
L 316.302545 594.094686 
L 316.302545 594.094686 
L 316.302545 594.094686 
L 316.302545 594.094686 
L 316.302545 594.094546 
L 316.306604 594.094406 
L 316.31472 594.093283 
L 316.322836 594.091459 
L 316.347185 594.082899 
L 316.404 594.05722 
L 316.505455 594.002914 
L 316.773295 593.827929 
L 317.463185 593.312096 
L 318.303229 592.632926 
L 323.461178 588.103392 
L 331.200131 581.091658 
L 334.673935 577.964246 
L 343.699331 569.998587 
L 353.881309 561.397538 
L 365.378138 552.375094 
L 378.469833 543.3135 
L 393.403942 534.987207 
L 410.099302 528.673727 
L 412.586967 528.020938 
L 412.591025 528.019675 
L 417.184887 527.02267 
L 417.351273 526.992219 
L 418.345527 526.814709 
L 425.305309 525.946521 
L 432.703375 525.756522 
L 440.576247 526.420818 
L 448.972625 528.161824 
L 457.924975 531.253453 
L 467.469818 536.05255 
L 477.631505 542.998472 
L 488.414095 552.636519 
L 500.028611 565.955698 
L 504.423622 571.87276 
L 516.399316 590.733073 
L 518.197091 593.937523 
L 518.379709 594.266022 
L 518.4 594.299981 
L 518.4 594.299981 
L 518.4 594.299981 
L 518.4 594.299981 
L 518.4 594.299981 
" clip-path="url(#p29b28298fa)" style="fill: none; stroke: #1f77b4; stroke-linecap: square"/>
   </g>
   <g id="line2d_178">
    <path d="M 316.302545 594.094686 
L 316.302545 594.094686 
L 316.302545 594.094686 
L 316.302545 594.094686 
L 316.302545 594.094406 
L 316.318778 594.091739 
L 316.322836 594.091739 
L 316.404 594.090757 
L 316.505455 594.089915 
L 317.25216 594.082759 
L 318.303229 594.072375 
L 323.960335 594.013438 
L 331.772335 593.937382 
L 334.673935 593.911984 
L 343.062196 593.848978 
L 352.939811 593.797058 
L 364.245905 593.770677 
L 377.150924 593.786955 
L 391.894298 593.870307 
L 408.439505 594.051326 
L 413.410778 594.124575 
L 413.414836 594.124716 
L 417.351273 594.188984 
L 418.556553 594.209893 
L 425.524451 594.340815 
L 432.934691 594.500224 
L 440.823796 594.69303 
L 449.236407 594.925407 
L 458.200931 595.204232 
L 467.762007 595.537503 
L 477.939927 595.933639 
L 488.710342 596.398113 
L 500.028611 596.92896 
L 503.461833 597.094683 
L 516.399316 597.579785 
L 518.197091 597.328464 
L 518.379709 596.970496 
L 518.4 596.602285 
L 518.4 596.23281 
L 518.4 595.863336 
L 518.4 595.493721 
L 518.4 594.095247 
" clip-path="url(#p29b28298fa)" style="fill: none; stroke: #d62728; stroke-linecap: square"/>
   </g>
   <g id="line2d_179">
    <path d="M 315.490909 594.094686 
L 518.4 594.094686 
" clip-path="url(#p29b28298fa)" style="fill: none; stroke-dasharray: 5.55,2.4; stroke-dashoffset: 0; stroke: #000000; stroke-width: 1.5"/>
   </g>
   <g id="line2d_180">
    <path d="M 316.302545 594.094066 
L 316.302545 594.094066 
L 316.302545 594.094065 
L 316.302545 594.094058 
L 316.302545 594.093982 
L 316.318778 594.093369 
L 316.322836 594.093229 
L 316.367476 594.091415 
L 316.464873 594.087357 
L 316.505455 594.08571 
L 316.793585 594.073679 
L 317.552465 594.042377 
L 318.303229 594.011246 
L 323.599156 593.79215 
L 331.342167 593.471558 
L 334.673935 593.333524 
L 343.541062 592.966509 
L 353.654051 592.548089 
L 365.102182 592.074101 
L 378.149236 591.534466 
L 393.038705 590.917979 
L 409.697542 590.228549 
L 412.181149 590.125721 
L 412.185207 590.125721 
L 416.616742 589.94154 
L 417.351273 589.911789 
L 418.568727 589.861404 
L 425.536625 589.5722 
L 432.950924 589.265463 
L 440.840029 588.93911 
L 449.25264 588.590701 
L 458.221222 588.220101 
L 467.786356 587.824546 
L 477.964276 587.402358 
L 488.738749 586.956675 
L 500.028611 586.490071 
L 503.457775 586.346907 
L 516.399316 585.811885 
L 518.197091 585.73717 
L 518.379709 585.729469 
L 518.4 585.729469 
L 518.4 585.729469 
L 518.4 585.729469 
L 518.4 585.729469 
L 518.4 585.729469 
" clip-path="url(#p29b28298fa)" style="fill: none; stroke-dasharray: 1,1.65; stroke-dashoffset: 0; stroke: #000000"/>
   </g>
   <g id="patch_46">
    <path d="M 315.490909 640.8 
L 315.490909 520.278261 
" style="fill: none; stroke: #000000; stroke-width: 0.8; stroke-linejoin: miter; stroke-linecap: square"/>
   </g>
   <g id="patch_47">
    <path d="M 518.4 640.8 
L 518.4 520.278261 
" style="fill: none; stroke: #000000; stroke-width: 0.8; stroke-linejoin: miter; stroke-linecap: square"/>
   </g>
   <g id="patch_48">
    <path d="M 315.490909 640.8 
L 518.4 640.8 
" style="fill: none; stroke: #000000; stroke-width: 0.8; stroke-linejoin: miter; stroke-linecap: square"/>
   </g>
   <g id="patch_49">
    <path d="M 315.490909 520.278261 
L 518.4 520.278261 
" style="fill: none; stroke: #000000; stroke-width: 0.8; stroke-linejoin: miter; stroke-linecap: square"/>
   </g>
  </g>
 </g>
 <defs>
  <clipPath id="pb6550c16fa">
   <rect x="72" y="86.4" width="202.909091" height="120.521739"/>
  </clipPath>
  <clipPath id="p034055fd40">
   <rect x="315.490909" y="86.4" width="202.909091" height="120.521739"/>
  </clipPath>
  <clipPath id="p4b835dbe8f">
   <rect x="72" y="231.026087" width="202.909091" height="120.521739"/>
  </clipPath>
  <clipPath id="pe78b1de37b">
   <rect x="315.490909" y="231.026087" width="202.909091" height="120.521739"/>
  </clipPath>
  <clipPath id="pc27dcfa1f5">
   <rect x="72" y="375.652174" width="202.909091" height="120.521739"/>
  </clipPath>
  <clipPath id="p770fa9be81">
   <rect x="315.490909" y="375.652174" width="202.909091" height="120.521739"/>
  </clipPath>
  <clipPath id="pd24332a6e1">
   <rect x="72" y="520.278261" width="202.909091" height="120.521739"/>
  </clipPath>
  <clipPath id="p29b28298fa">
   <rect x="315.490909" y="520.278261" width="202.909091" height="120.521739"/>
  </clipPath>
 </defs>
</svg>
