<?xml version="1.0" encoding="utf-8" standalone="no"?>
<!DOCTYPE svg PUBLIC "-//W3C//DTD SVG 1.1//EN"
  "http://www.w3.org/Graphics/SVG/1.1/DTD/svg11.dtd">
<svg xmlns:xlink="http://www.w3.org/1999/xlink" width="288pt" height="720pt" viewBox="0 0 288 720" xmlns="http://www.w3.org/2000/svg" version="1.1">
 <metadata>
  <rdf:RDF xmlns:dc="http://purl.org/dc/elements/1.1/" xmlns:cc="http://creativecommons.org/ns#" xmlns:rdf="http://www.w3.org/1999/02/22-rdf-syntax-ns#">
   <cc:Work>
    <dc:type rdf:resource="http://purl.org/dc/dcmitype/StillImage"/>
    <dc:date>2025-12-19T23:11:01.100630</dc:date>
    <dc:format>image/svg+xml</dc:format>
    <dc:creator>
     <cc:Agent>
      <dc:title>Matplotlib v3.10.3, https://matplotlib.org/</dc:title>
     </cc:Agent>
    </dc:creator>
   </cc:Work>
  </rdf:RDF>
 </metadata>
 <defs>
  <style type="text/css">*{stroke-linejoin: round; stroke-linecap: butt}</style>
 </defs>
 <g id="figure_1">
  <g id="patch_1">
   <path d="M 0 720 
L 288 720 
L 288 0 
L 0 0 
z
" style="fill: #ffffff"/>
  </g>
  <g id="axes_1">
   <g id="patch_2">
    <path d="M 36 206.921739 
L 259.2 206.921739 
L 259.2 86.4 
L 36 86.4 
z
" style="fill: #ffffff"/>
   </g>
   <g id="patch_3">
    <path d="M 90.4608 206.921739 
L 259.2 206.921739 
L 259.2 86.4 
L 90.4608 86.4 
z
" clip-path="url(#pac1c4b6ae8)" style="opacity: 0.1"/>
   </g>
   <g id="matplotlib.axis_1">
    <g id="xtick_1">
     <g id="line2d_1">
      <defs>
       <path id="m0f8370f9b2" d="M 0 0 
L 0 3.5 
" style="stroke: #000000; stroke-width: 0.8"/>
      </defs>
      <g>
       <use xlink:href="#m0f8370f9b2" x="36" y="206.921739" style="stroke: #000000; stroke-width: 0.8"/>
      </g>
     </g>
     <g id="line2d_2">
      <defs>
       <path id="m89aee8cafa" d="M 0 0 
L 0 -3.5 
" style="stroke: #000000; stroke-width: 0.8"/>
      </defs>
      <g>
       <use xlink:href="#m89aee8cafa" x="36" y="86.4" style="stroke: #000000; stroke-width: 0.8"/>
      </g>
     </g>
    </g>
    <g id="xtick_2">
     <g id="line2d_3">
      <g>
       <use xlink:href="#m0f8370f9b2" x="80.64" y="206.921739" style="stroke: #000000; stroke-width: 0.8"/>
      </g>
     </g>
     <g id="line2d_4">
      <g>
       <use xlink:href="#m89aee8cafa" x="80.64" y="86.4" style="stroke: #000000; stroke-width: 0.8"/>
      </g>
     </g>
    </g>
    <g id="xtick_3">
     <g id="line2d_5">
      <g>
       <use xlink:href="#m0f8370f9b2" x="125.28" y="206.921739" style="stroke: #000000; stroke-width: 0.8"/>
      </g>
     </g>
     <g id="line2d_6">
      <g>
       <use xlink:href="#m89aee8cafa" x="125.28" y="86.4" style="stroke: #000000; stroke-width: 0.8"/>
      </g>
     </g>
    </g>
    <g id="xtick_4">
     <g id="line2d_7">
      <g>
       <use xlink:href="#m0f8370f9b2" x="169.92" y="206.921739" style="stroke: #000000; stroke-width: 0.8"/>
      </g>
     </g>
     <g id="line2d_8">
      <g>
       <use xlink:href="#m89aee8cafa" x="169.92" y="86.4" style="stroke: #000000; stroke-width: 0.8"/>
      </g>
     </g>
    </g>
    <g id="xtick_5">
     <g id="line2d_9">
      <g>
       <use xlink:href="#m0f8370f9b2" x="214.56" y="206.921739" style="stroke: #000000; stroke-width: 0.8"/>
      </g>
     </g>
     <g id="line2d_10">
      <g>
       <use xlink:href="#m89aee8cafa" x="214.56" y="86.4" style="stroke: #000000; stroke-width: 0.8"/>
      </g>
     </g>
    </g>
    <g id="xtick_6">
     <g id="line2d_11">
      <g>
       <use xlink:href="#m0f8370f9b2" x="259.2" y="206.921739" style="stroke: #000000; stroke-width: 0.8"/>
      </g>
     </g>
     <g id="line2d_12">
      <g>
       <use xlink:href="#m89aee8cafa" x="259.2" y="86.4" style="stroke: #000000; stroke-width: 0.8"/>
      </g>
     </g>
    </g>
   </g>
   <g id="matplotlib.axis_2">
    <g id="ytick_1">
     <g id="line2d_13">
      <defs>
       <path id="mc08913ac9d" d="M 0 0 
L -3.5 0 
" style="stroke: #000000; stroke-width: 0.8"/>
      </defs>
      <g>
       <use xlink:href="#mc08913ac9d" x="36" y="204.511304" style="stroke: #000000; stroke-width: 0.8"/>
      </g>
     </g>
     <g id="text_1">
      <!-- 0 -->
      <g transform="translate(23.91 207.550679) scale(0.08 -0.08)">
       <defs>
        <path id="DejaVuSans-30" d="M 2034 4250 
Q 1547 4250 1301 3770 
Q 1056 3291 1056 2328 
Q 1056 1369 1301 889 
Q 1547 409 2034 409 
Q 2525 409 2770 889 
Q 3016 1369 3016 2328 
Q 3016 3291 2770 3770 
Q 2525 4250 2034 4250 
z
M 2034 4750 
Q 2819 4750 3233 4129 
Q 3647 3509 3647 2328 
Q 3647 1150 3233 529 
Q 2819 -91 2034 -91 
Q 1250 -91 836 529 
Q 422 1150 422 2328 
Q 422 3509 836 4129 
Q 1250 4750 2034 4750 
z
" transform="scale(0.015625)"/>
       </defs>
       <use xlink:href="#DejaVuSans-30"/>
      </g>
     </g>
    </g>
    <g id="ytick_2">
     <g id="line2d_14">
      <g>
       <use xlink:href="#mc08913ac9d" x="36" y="180.406957" style="stroke: #000000; stroke-width: 0.8"/>
      </g>
     </g>
     <g id="text_2">
      <!-- 20 -->
      <g transform="translate(18.82 183.446332) scale(0.08 -0.08)">
       <defs>
        <path id="DejaVuSans-32" d="M 1228 531 
L 3431 531 
L 3431 0 
L 469 0 
L 469 531 
Q 828 903 1448 1529 
Q 2069 2156 2228 2338 
Q 2531 2678 2651 2914 
Q 2772 3150 2772 3378 
Q 2772 3750 2511 3984 
Q 2250 4219 1831 4219 
Q 1534 4219 1204 4116 
Q 875 4013 500 3803 
L 500 4441 
Q 881 4594 1212 4672 
Q 1544 4750 1819 4750 
Q 2544 4750 2975 4387 
Q 3406 4025 3406 3419 
Q 3406 3131 3298 2873 
Q 3191 2616 2906 2266 
Q 2828 2175 2409 1742 
Q 1991 1309 1228 531 
z
" transform="scale(0.015625)"/>
       </defs>
       <use xlink:href="#DejaVuSans-32"/>
       <use xlink:href="#DejaVuSans-30" transform="translate(63.623047 0)"/>
      </g>
     </g>
    </g>
    <g id="ytick_3">
     <g id="line2d_15">
      <g>
       <use xlink:href="#mc08913ac9d" x="36" y="156.302609" style="stroke: #000000; stroke-width: 0.8"/>
      </g>
     </g>
     <g id="text_3">
      <!-- 40 -->
      <g transform="translate(18.82 159.341984) scale(0.08 -0.08)">
       <defs>
        <path id="DejaVuSans-34" d="M 2419 4116 
L 825 1625 
L 2419 1625 
L 2419 4116 
z
M 2253 4666 
L 3047 4666 
L 3047 1625 
L 3713 1625 
L 3713 1100 
L 3047 1100 
L 3047 0 
L 2419 0 
L 2419 1100 
L 313 1100 
L 313 1709 
L 2253 4666 
z
" transform="scale(0.015625)"/>
       </defs>
       <use xlink:href="#DejaVuSans-34"/>
       <use xlink:href="#DejaVuSans-30" transform="translate(63.623047 0)"/>
      </g>
     </g>
    </g>
    <g id="ytick_4">
     <g id="line2d_16">
      <g>
       <use xlink:href="#mc08913ac9d" x="36" y="132.198261" style="stroke: #000000; stroke-width: 0.8"/>
      </g>
     </g>
     <g id="text_4">
      <!-- 60 -->
      <g transform="translate(18.82 135.237636) scale(0.08 -0.08)">
       <defs>
        <path id="DejaVuSans-36" d="M 2113 2584 
Q 1688 2584 1439 2293 
Q 1191 2003 1191 1497 
Q 1191 994 1439 701 
Q 1688 409 2113 409 
Q 2538 409 2786 701 
Q 3034 994 3034 1497 
Q 3034 2003 2786 2293 
Q 2538 2584 2113 2584 
z
M 3366 4563 
L 3366 3988 
Q 3128 4100 2886 4159 
Q 2644 4219 2406 4219 
Q 1781 4219 1451 3797 
Q 1122 3375 1075 2522 
Q 1259 2794 1537 2939 
Q 1816 3084 2150 3084 
Q 2853 3084 3261 2657 
Q 3669 2231 3669 1497 
Q 3669 778 3244 343 
Q 2819 -91 2113 -91 
Q 1303 -91 875 529 
Q 447 1150 447 2328 
Q 447 3434 972 4092 
Q 1497 4750 2381 4750 
Q 2619 4750 2861 4703 
Q 3103 4656 3366 4563 
z
" transform="scale(0.015625)"/>
       </defs>
       <use xlink:href="#DejaVuSans-36"/>
       <use xlink:href="#DejaVuSans-30" transform="translate(63.623047 0)"/>
      </g>
     </g>
    </g>
    <g id="ytick_5">
     <g id="line2d_17">
      <g>
       <use xlink:href="#mc08913ac9d" x="36" y="108.093913" style="stroke: #000000; stroke-width: 0.8"/>
      </g>
     </g>
     <g id="text_5">
      <!-- 80 -->
      <g transform="translate(18.82 111.133288) scale(0.08 -0.08)">
       <defs>
        <path id="DejaVuSans-38" d="M 2034 2216 
Q 1584 2216 1326 1975 
Q 1069 1734 1069 1313 
Q 1069 891 1326 650 
Q 1584 409 2034 409 
Q 2484 409 2743 651 
Q 3003 894 3003 1313 
Q 3003 1734 2745 1975 
Q 2488 2216 2034 2216 
z
M 1403 2484 
Q 997 2584 770 2862 
Q 544 3141 544 3541 
Q 544 4100 942 4425 
Q 1341 4750 2034 4750 
Q 2731 4750 3128 4425 
Q 3525 4100 3525 3541 
Q 3525 3141 3298 2862 
Q 3072 2584 2669 2484 
Q 3125 2378 3379 2068 
Q 3634 1759 3634 1313 
Q 3634 634 3220 271 
Q 2806 -91 2034 -91 
Q 1263 -91 848 271 
Q 434 634 434 1313 
Q 434 1759 690 2068 
Q 947 2378 1403 2484 
z
M 1172 3481 
Q 1172 3119 1398 2916 
Q 1625 2713 2034 2713 
Q 2441 2713 2670 2916 
Q 2900 3119 2900 3481 
Q 2900 3844 2670 4047 
Q 2441 4250 2034 4250 
Q 1625 4250 1398 4047 
Q 1172 3844 1172 3481 
z
" transform="scale(0.015625)"/>
       </defs>
       <use xlink:href="#DejaVuSans-38"/>
       <use xlink:href="#DejaVuSans-30" transform="translate(63.623047 0)"/>
      </g>
     </g>
    </g>
    <g id="text_6">
     <!-- kg of early ocean added -->
     <g transform="translate(4.198 195.117745) rotate(-90) scale(0.08 -0.08)">
      <defs>
       <path id="DejaVuSans-6b" d="M 581 4863 
L 1159 4863 
L 1159 1991 
L 2875 3500 
L 3609 3500 
L 1753 1863 
L 3688 0 
L 2938 0 
L 1159 1709 
L 1159 0 
L 581 0 
L 581 4863 
z
" transform="scale(0.015625)"/>
       <path id="DejaVuSans-67" d="M 2906 1791 
Q 2906 2416 2648 2759 
Q 2391 3103 1925 3103 
Q 1463 3103 1205 2759 
Q 947 2416 947 1791 
Q 947 1169 1205 825 
Q 1463 481 1925 481 
Q 2391 481 2648 825 
Q 2906 1169 2906 1791 
z
M 3481 434 
Q 3481 -459 3084 -895 
Q 2688 -1331 1869 -1331 
Q 1566 -1331 1297 -1286 
Q 1028 -1241 775 -1147 
L 775 -588 
Q 1028 -725 1275 -790 
Q 1522 -856 1778 -856 
Q 2344 -856 2625 -561 
Q 2906 -266 2906 331 
L 2906 616 
Q 2728 306 2450 153 
Q 2172 0 1784 0 
Q 1141 0 747 490 
Q 353 981 353 1791 
Q 353 2603 747 3093 
Q 1141 3584 1784 3584 
Q 2172 3584 2450 3431 
Q 2728 3278 2906 2969 
L 2906 3500 
L 3481 3500 
L 3481 434 
z
" transform="scale(0.015625)"/>
       <path id="DejaVuSans-20" transform="scale(0.015625)"/>
       <path id="DejaVuSans-6f" d="M 1959 3097 
Q 1497 3097 1228 2736 
Q 959 2375 959 1747 
Q 959 1119 1226 758 
Q 1494 397 1959 397 
Q 2419 397 2687 759 
Q 2956 1122 2956 1747 
Q 2956 2369 2687 2733 
Q 2419 3097 1959 3097 
z
M 1959 3584 
Q 2709 3584 3137 3096 
Q 3566 2609 3566 1747 
Q 3566 888 3137 398 
Q 2709 -91 1959 -91 
Q 1206 -91 779 398 
Q 353 888 353 1747 
Q 353 2609 779 3096 
Q 1206 3584 1959 3584 
z
" transform="scale(0.015625)"/>
       <path id="DejaVuSans-66" d="M 2375 4863 
L 2375 4384 
L 1825 4384 
Q 1516 4384 1395 4259 
Q 1275 4134 1275 3809 
L 1275 3500 
L 2222 3500 
L 2222 3053 
L 1275 3053 
L 1275 0 
L 697 0 
L 697 3053 
L 147 3053 
L 147 3500 
L 697 3500 
L 697 3744 
Q 697 4328 969 4595 
Q 1241 4863 1831 4863 
L 2375 4863 
z
" transform="scale(0.015625)"/>
       <path id="DejaVuSans-65" d="M 3597 1894 
L 3597 1613 
L 953 1613 
Q 991 1019 1311 708 
Q 1631 397 2203 397 
Q 2534 397 2845 478 
Q 3156 559 3463 722 
L 3463 178 
Q 3153 47 2828 -22 
Q 2503 -91 2169 -91 
Q 1331 -91 842 396 
Q 353 884 353 1716 
Q 353 2575 817 3079 
Q 1281 3584 2069 3584 
Q 2775 3584 3186 3129 
Q 3597 2675 3597 1894 
z
M 3022 2063 
Q 3016 2534 2758 2815 
Q 2500 3097 2075 3097 
Q 1594 3097 1305 2825 
Q 1016 2553 972 2059 
L 3022 2063 
z
" transform="scale(0.015625)"/>
       <path id="DejaVuSans-61" d="M 2194 1759 
Q 1497 1759 1228 1600 
Q 959 1441 959 1056 
Q 959 750 1161 570 
Q 1363 391 1709 391 
Q 2188 391 2477 730 
Q 2766 1069 2766 1631 
L 2766 1759 
L 2194 1759 
z
M 3341 1997 
L 3341 0 
L 2766 0 
L 2766 531 
Q 2569 213 2275 61 
Q 1981 -91 1556 -91 
Q 1019 -91 701 211 
Q 384 513 384 1019 
Q 384 1609 779 1909 
Q 1175 2209 1959 2209 
L 2766 2209 
L 2766 2266 
Q 2766 2663 2505 2880 
Q 2244 3097 1772 3097 
Q 1472 3097 1187 3025 
Q 903 2953 641 2809 
L 641 3341 
Q 956 3463 1253 3523 
Q 1550 3584 1831 3584 
Q 2591 3584 2966 3190 
Q 3341 2797 3341 1997 
z
" transform="scale(0.015625)"/>
       <path id="DejaVuSans-72" d="M 2631 2963 
Q 2534 3019 2420 3045 
Q 2306 3072 2169 3072 
Q 1681 3072 1420 2755 
Q 1159 2438 1159 1844 
L 1159 0 
L 581 0 
L 581 3500 
L 1159 3500 
L 1159 2956 
Q 1341 3275 1631 3429 
Q 1922 3584 2338 3584 
Q 2397 3584 2469 3576 
Q 2541 3569 2628 3553 
L 2631 2963 
z
" transform="scale(0.015625)"/>
       <path id="DejaVuSans-6c" d="M 603 4863 
L 1178 4863 
L 1178 0 
L 603 0 
L 603 4863 
z
" transform="scale(0.015625)"/>
       <path id="DejaVuSans-79" d="M 2059 -325 
Q 1816 -950 1584 -1140 
Q 1353 -1331 966 -1331 
L 506 -1331 
L 506 -850 
L 844 -850 
Q 1081 -850 1212 -737 
Q 1344 -625 1503 -206 
L 1606 56 
L 191 3500 
L 800 3500 
L 1894 763 
L 2988 3500 
L 3597 3500 
L 2059 -325 
z
" transform="scale(0.015625)"/>
       <path id="DejaVuSans-63" d="M 3122 3366 
L 3122 2828 
Q 2878 2963 2633 3030 
Q 2388 3097 2138 3097 
Q 1578 3097 1268 2742 
Q 959 2388 959 1747 
Q 959 1106 1268 751 
Q 1578 397 2138 397 
Q 2388 397 2633 464 
Q 2878 531 3122 666 
L 3122 134 
Q 2881 22 2623 -34 
Q 2366 -91 2075 -91 
Q 1284 -91 818 406 
Q 353 903 353 1747 
Q 353 2603 823 3093 
Q 1294 3584 2113 3584 
Q 2378 3584 2631 3529 
Q 2884 3475 3122 3366 
z
" transform="scale(0.015625)"/>
       <path id="DejaVuSans-6e" d="M 3513 2113 
L 3513 0 
L 2938 0 
L 2938 2094 
Q 2938 2591 2744 2837 
Q 2550 3084 2163 3084 
Q 1697 3084 1428 2787 
Q 1159 2491 1159 1978 
L 1159 0 
L 581 0 
L 581 3500 
L 1159 3500 
L 1159 2956 
Q 1366 3272 1645 3428 
Q 1925 3584 2291 3584 
Q 2894 3584 3203 3211 
Q 3513 2838 3513 2113 
z
" transform="scale(0.015625)"/>
       <path id="DejaVuSans-64" d="M 2906 2969 
L 2906 4863 
L 3481 4863 
L 3481 0 
L 2906 0 
L 2906 525 
Q 2725 213 2448 61 
Q 2172 -91 1784 -91 
Q 1150 -91 751 415 
Q 353 922 353 1747 
Q 353 2572 751 3078 
Q 1150 3584 1784 3584 
Q 2172 3584 2448 3432 
Q 2725 3281 2906 2969 
z
M 947 1747 
Q 947 1113 1208 752 
Q 1469 391 1925 391 
Q 2381 391 2643 752 
Q 2906 1113 2906 1747 
Q 2906 2381 2643 2742 
Q 2381 3103 1925 3103 
Q 1469 3103 1208 2742 
Q 947 2381 947 1747 
z
" transform="scale(0.015625)"/>
      </defs>
      <use xlink:href="#DejaVuSans-6b"/>
      <use xlink:href="#DejaVuSans-67" transform="translate(57.910156 0)"/>
      <use xlink:href="#DejaVuSans-20" transform="translate(121.386719 0)"/>
      <use xlink:href="#DejaVuSans-6f" transform="translate(153.173828 0)"/>
      <use xlink:href="#DejaVuSans-66" transform="translate(214.355469 0)"/>
      <use xlink:href="#DejaVuSans-20" transform="translate(249.560547 0)"/>
      <use xlink:href="#DejaVuSans-65" transform="translate(281.347656 0)"/>
      <use xlink:href="#DejaVuSans-61" transform="translate(342.871094 0)"/>
      <use xlink:href="#DejaVuSans-72" transform="translate(404.150391 0)"/>
      <use xlink:href="#DejaVuSans-6c" transform="translate(445.263672 0)"/>
      <use xlink:href="#DejaVuSans-79" transform="translate(473.046875 0)"/>
      <use xlink:href="#DejaVuSans-20" transform="translate(532.226562 0)"/>
      <use xlink:href="#DejaVuSans-6f" transform="translate(564.013672 0)"/>
      <use xlink:href="#DejaVuSans-63" transform="translate(625.195312 0)"/>
      <use xlink:href="#DejaVuSans-65" transform="translate(680.175781 0)"/>
      <use xlink:href="#DejaVuSans-61" transform="translate(741.699219 0)"/>
      <use xlink:href="#DejaVuSans-6e" transform="translate(802.978516 0)"/>
      <use xlink:href="#DejaVuSans-20" transform="translate(866.357422 0)"/>
      <use xlink:href="#DejaVuSans-61" transform="translate(898.144531 0)"/>
      <use xlink:href="#DejaVuSans-64" transform="translate(959.423828 0)"/>
      <use xlink:href="#DejaVuSans-64" transform="translate(1022.900391 0)"/>
      <use xlink:href="#DejaVuSans-65" transform="translate(1086.376953 0)"/>
      <use xlink:href="#DejaVuSans-64" transform="translate(1147.900391 0)"/>
     </g>
     <!-- to kg of late fluid -->
     <g transform="translate(13.15625 180.76962) rotate(-90) scale(0.08 -0.08)">
      <defs>
       <path id="DejaVuSans-74" d="M 1172 4494 
L 1172 3500 
L 2356 3500 
L 2356 3053 
L 1172 3053 
L 1172 1153 
Q 1172 725 1289 603 
Q 1406 481 1766 481 
L 2356 481 
L 2356 0 
L 1766 0 
Q 1100 0 847 248 
Q 594 497 594 1153 
L 594 3053 
L 172 3053 
L 172 3500 
L 594 3500 
L 594 4494 
L 1172 4494 
z
" transform="scale(0.015625)"/>
       <path id="DejaVuSans-75" d="M 544 1381 
L 544 3500 
L 1119 3500 
L 1119 1403 
Q 1119 906 1312 657 
Q 1506 409 1894 409 
Q 2359 409 2629 706 
Q 2900 1003 2900 1516 
L 2900 3500 
L 3475 3500 
L 3475 0 
L 2900 0 
L 2900 538 
Q 2691 219 2414 64 
Q 2138 -91 1772 -91 
Q 1169 -91 856 284 
Q 544 659 544 1381 
z
M 1991 3584 
L 1991 3584 
z
" transform="scale(0.015625)"/>
       <path id="DejaVuSans-69" d="M 603 3500 
L 1178 3500 
L 1178 0 
L 603 0 
L 603 3500 
z
M 603 4863 
L 1178 4863 
L 1178 4134 
L 603 4134 
L 603 4863 
z
" transform="scale(0.015625)"/>
      </defs>
      <use xlink:href="#DejaVuSans-74"/>
      <use xlink:href="#DejaVuSans-6f" transform="translate(39.208984 0)"/>
      <use xlink:href="#DejaVuSans-20" transform="translate(100.390625 0)"/>
      <use xlink:href="#DejaVuSans-6b" transform="translate(132.177734 0)"/>
      <use xlink:href="#DejaVuSans-67" transform="translate(190.087891 0)"/>
      <use xlink:href="#DejaVuSans-20" transform="translate(253.564453 0)"/>
      <use xlink:href="#DejaVuSans-6f" transform="translate(285.351562 0)"/>
      <use xlink:href="#DejaVuSans-66" transform="translate(346.533203 0)"/>
      <use xlink:href="#DejaVuSans-20" transform="translate(381.738281 0)"/>
      <use xlink:href="#DejaVuSans-6c" transform="translate(413.525391 0)"/>
      <use xlink:href="#DejaVuSans-61" transform="translate(441.308594 0)"/>
      <use xlink:href="#DejaVuSans-74" transform="translate(502.587891 0)"/>
      <use xlink:href="#DejaVuSans-65" transform="translate(541.796875 0)"/>
      <use xlink:href="#DejaVuSans-20" transform="translate(603.320312 0)"/>
      <use xlink:href="#DejaVuSans-66" transform="translate(635.107422 0)"/>
      <use xlink:href="#DejaVuSans-6c" transform="translate(670.3125 0)"/>
      <use xlink:href="#DejaVuSans-75" transform="translate(698.095703 0)"/>
      <use xlink:href="#DejaVuSans-69" transform="translate(761.474609 0)"/>
      <use xlink:href="#DejaVuSans-64" transform="translate(789.257812 0)"/>
     </g>
    </g>
   </g>
   <g id="line2d_18">
    <path d="M 39.138327 86.4 
L 41.383855 146.058261 
L 43.629382 165.944348 
L 45.874909 175.887391 
L 48.120436 181.853217 
L 50.365964 185.830435 
L 52.611491 188.671304 
L 54.857018 190.801957 
L 57.102545 192.45913 
L 59.348073 193.78487 
L 61.5936 194.869565 
L 63.839127 195.773478 
L 66.084655 196.538328 
L 68.330182 197.193913 
L 70.575709 197.762087 
L 72.821236 198.259239 
L 75.066764 198.697903 
L 77.312291 199.087826 
L 79.557818 199.436705 
L 81.803345 199.750696 
L 84.048873 200.034783 
L 86.2944 200.293043 
L 88.539927 200.528847 
L 90.785455 200.745 
L 93.030982 200.943861 
L 95.276509 201.127425 
L 97.522036 201.297391 
L 99.767564 201.455217 
L 102.013091 201.602159 
L 104.258618 201.739304 
L 106.504145 201.867602 
L 108.749673 201.98788 
L 110.9952 202.10087 
L 113.240727 202.207212 
L 115.486255 202.307478 
L 117.731782 202.402174 
L 119.977309 202.491751 
L 122.222836 202.576613 
L 124.468364 202.657124 
L 126.713891 202.733609 
L 128.959418 202.806363 
L 131.204945 202.875652 
L 133.450473 202.941719 
L 135.696 203.004783 
L 137.941527 203.065043 
L 140.187055 203.122684 
L 142.432582 203.177872 
L 144.678109 203.230761 
L 146.923636 203.281491 
L 149.169164 203.330191 
L 151.414691 203.376982 
L 153.660218 203.421973 
L 155.905745 203.465267 
L 158.151273 203.506957 
L 160.3968 203.54713 
L 162.642327 203.58587 
L 164.887855 203.623249 
L 167.133382 203.65934 
L 169.378909 203.694208 
L 171.624436 203.727913 
L 173.869964 203.760513 
L 176.115491 203.792062 
L 178.361018 203.822609 
L 180.606545 203.852201 
L 182.852073 203.880883 
L 185.0976 203.908696 
L 187.343127 203.935678 
L 189.588655 203.961867 
L 191.834182 203.987297 
L 194.079709 204.012 
L 196.325236 204.036007 
L 198.570764 204.059348 
L 200.816291 204.082049 
L 203.061818 204.104136 
L 205.307345 204.125635 
L 207.552873 204.146568 
L 209.7984 204.166957 
L 212.043927 204.186823 
L 214.289455 204.206186 
L 216.534982 204.225065 
L 218.780509 204.243478 
L 221.026036 204.261442 
L 223.271564 204.278973 
L 225.517091 204.296087 
L 227.762618 204.312798 
L 230.008145 204.32912 
L 232.253673 204.345067 
L 234.4992 204.360652 
L 236.744727 204.375887 
L 238.990255 204.390783 
L 241.235782 204.405351 
L 243.481309 204.419603 
L 245.726836 204.433548 
L 247.972364 204.447197 
L 250.217891 204.460558 
L 252.463418 204.473641 
L 254.708945 204.486455 
L 256.954473 204.499006 
L 259.2 204.511304 
" clip-path="url(#pac1c4b6ae8)" style="fill: none; stroke: #000000; stroke-width: 1.5; stroke-linecap: square"/>
   </g>
   <g id="line2d_19">
    <path d="M 36 204.511304 
L 259.2 204.511304 
" clip-path="url(#pac1c4b6ae8)" style="fill: none; stroke-dasharray: 5.55,2.4; stroke-dashoffset: 0; stroke: #000000; stroke-width: 1.5"/>
   </g>
   <g id="patch_4">
    <path d="M 36 206.921739 
L 36 86.4 
" style="fill: none; stroke: #000000; stroke-width: 0.8; stroke-linejoin: miter; stroke-linecap: square"/>
   </g>
   <g id="patch_5">
    <path d="M 259.2 206.921739 
L 259.2 86.4 
" style="fill: none; stroke: #000000; stroke-width: 0.8; stroke-linejoin: miter; stroke-linecap: square"/>
   </g>
   <g id="patch_6">
    <path d="M 36 206.921739 
L 259.2 206.921739 
" style="fill: none; stroke: #000000; stroke-width: 0.8; stroke-linejoin: miter; stroke-linecap: square"/>
   </g>
   <g id="patch_7">
    <path d="M 36 86.4 
L 259.2 86.4 
" style="fill: none; stroke: #000000; stroke-width: 0.8; stroke-linejoin: miter; stroke-linecap: square"/>
   </g>
  </g>
  <g id="axes_2">
   <g id="patch_8">
    <path d="M 36 351.547826 
L 259.2 351.547826 
L 259.2 231.026087 
L 36 231.026087 
z
" style="fill: #ffffff"/>
   </g>
   <g id="matplotlib.axis_3">
    <g id="xtick_7">
     <g id="line2d_20">
      <g>
       <use xlink:href="#m0f8370f9b2" x="36" y="351.547826" style="stroke: #000000; stroke-width: 0.8"/>
      </g>
     </g>
     <g id="line2d_21">
      <g>
       <use xlink:href="#m89aee8cafa" x="36" y="231.026087" style="stroke: #000000; stroke-width: 0.8"/>
      </g>
     </g>
    </g>
    <g id="xtick_8">
     <g id="line2d_22">
      <g>
       <use xlink:href="#m0f8370f9b2" x="80.64" y="351.547826" style="stroke: #000000; stroke-width: 0.8"/>
      </g>
     </g>
     <g id="line2d_23">
      <g>
       <use xlink:href="#m89aee8cafa" x="80.64" y="231.026087" style="stroke: #000000; stroke-width: 0.8"/>
      </g>
     </g>
    </g>
    <g id="xtick_9">
     <g id="line2d_24">
      <g>
       <use xlink:href="#m0f8370f9b2" x="125.28" y="351.547826" style="stroke: #000000; stroke-width: 0.8"/>
      </g>
     </g>
     <g id="line2d_25">
      <g>
       <use xlink:href="#m89aee8cafa" x="125.28" y="231.026087" style="stroke: #000000; stroke-width: 0.8"/>
      </g>
     </g>
    </g>
    <g id="xtick_10">
     <g id="line2d_26">
      <g>
       <use xlink:href="#m0f8370f9b2" x="169.92" y="351.547826" style="stroke: #000000; stroke-width: 0.8"/>
      </g>
     </g>
     <g id="line2d_27">
      <g>
       <use xlink:href="#m89aee8cafa" x="169.92" y="231.026087" style="stroke: #000000; stroke-width: 0.8"/>
      </g>
     </g>
    </g>
    <g id="xtick_11">
     <g id="line2d_28">
      <g>
       <use xlink:href="#m0f8370f9b2" x="214.56" y="351.547826" style="stroke: #000000; stroke-width: 0.8"/>
      </g>
     </g>
     <g id="line2d_29">
      <g>
       <use xlink:href="#m89aee8cafa" x="214.56" y="231.026087" style="stroke: #000000; stroke-width: 0.8"/>
      </g>
     </g>
    </g>
    <g id="xtick_12">
     <g id="line2d_30">
      <g>
       <use xlink:href="#m0f8370f9b2" x="259.2" y="351.547826" style="stroke: #000000; stroke-width: 0.8"/>
      </g>
     </g>
     <g id="line2d_31">
      <g>
       <use xlink:href="#m89aee8cafa" x="259.2" y="231.026087" style="stroke: #000000; stroke-width: 0.8"/>
      </g>
     </g>
    </g>
   </g>
   <g id="matplotlib.axis_4">
    <g id="ytick_6">
     <g id="line2d_32">
      <g>
       <use xlink:href="#mc08913ac9d" x="36" y="338.089208" style="stroke: #000000; stroke-width: 0.8"/>
      </g>
     </g>
     <g id="text_7">
      <!-- 4.5 -->
      <g transform="translate(16.2775 341.128583) scale(0.08 -0.08)">
       <defs>
        <path id="DejaVuSans-2e" d="M 684 794 
L 1344 794 
L 1344 0 
L 684 0 
L 684 794 
z
" transform="scale(0.015625)"/>
        <path id="DejaVuSans-35" d="M 691 4666 
L 3169 4666 
L 3169 4134 
L 1269 4134 
L 1269 2991 
Q 1406 3038 1543 3061 
Q 1681 3084 1819 3084 
Q 2600 3084 3056 2656 
Q 3513 2228 3513 1497 
Q 3513 744 3044 326 
Q 2575 -91 1722 -91 
Q 1428 -91 1123 -41 
Q 819 9 494 109 
L 494 744 
Q 775 591 1075 516 
Q 1375 441 1709 441 
Q 2250 441 2565 725 
Q 2881 1009 2881 1497 
Q 2881 1984 2565 2268 
Q 2250 2553 1709 2553 
Q 1456 2553 1204 2497 
Q 953 2441 691 2322 
L 691 4666 
z
" transform="scale(0.015625)"/>
       </defs>
       <use xlink:href="#DejaVuSans-34"/>
       <use xlink:href="#DejaVuSans-2e" transform="translate(63.623047 0)"/>
       <use xlink:href="#DejaVuSans-35" transform="translate(95.410156 0)"/>
      </g>
     </g>
    </g>
    <g id="ytick_7">
     <g id="line2d_33">
      <g>
       <use xlink:href="#mc08913ac9d" x="36" y="319.373548" style="stroke: #000000; stroke-width: 0.8"/>
      </g>
     </g>
     <g id="text_8">
      <!-- 5.0 -->
      <g transform="translate(16.2775 322.412923) scale(0.08 -0.08)">
       <use xlink:href="#DejaVuSans-35"/>
       <use xlink:href="#DejaVuSans-2e" transform="translate(63.623047 0)"/>
       <use xlink:href="#DejaVuSans-30" transform="translate(95.410156 0)"/>
      </g>
     </g>
    </g>
    <g id="ytick_8">
     <g id="line2d_34">
      <g>
       <use xlink:href="#mc08913ac9d" x="36" y="300.657888" style="stroke: #000000; stroke-width: 0.8"/>
      </g>
     </g>
     <g id="text_9">
      <!-- 5.5 -->
      <g transform="translate(16.2775 303.697263) scale(0.08 -0.08)">
       <use xlink:href="#DejaVuSans-35"/>
       <use xlink:href="#DejaVuSans-2e" transform="translate(63.623047 0)"/>
       <use xlink:href="#DejaVuSans-35" transform="translate(95.410156 0)"/>
      </g>
     </g>
    </g>
    <g id="ytick_9">
     <g id="line2d_35">
      <g>
       <use xlink:href="#mc08913ac9d" x="36" y="281.942227" style="stroke: #000000; stroke-width: 0.8"/>
      </g>
     </g>
     <g id="text_10">
      <!-- 6.0 -->
      <g transform="translate(16.2775 284.981602) scale(0.08 -0.08)">
       <use xlink:href="#DejaVuSans-36"/>
       <use xlink:href="#DejaVuSans-2e" transform="translate(63.623047 0)"/>
       <use xlink:href="#DejaVuSans-30" transform="translate(95.410156 0)"/>
      </g>
     </g>
    </g>
    <g id="ytick_10">
     <g id="line2d_36">
      <g>
       <use xlink:href="#mc08913ac9d" x="36" y="263.226567" style="stroke: #000000; stroke-width: 0.8"/>
      </g>
     </g>
     <g id="text_11">
      <!-- 6.5 -->
      <g transform="translate(16.2775 266.265942) scale(0.08 -0.08)">
       <use xlink:href="#DejaVuSans-36"/>
       <use xlink:href="#DejaVuSans-2e" transform="translate(63.623047 0)"/>
       <use xlink:href="#DejaVuSans-35" transform="translate(95.410156 0)"/>
      </g>
     </g>
    </g>
    <g id="ytick_11">
     <g id="line2d_37">
      <g>
       <use xlink:href="#mc08913ac9d" x="36" y="244.510907" style="stroke: #000000; stroke-width: 0.8"/>
      </g>
     </g>
     <g id="text_12">
      <!-- 7.0 -->
      <g transform="translate(16.2775 247.550282) scale(0.08 -0.08)">
       <defs>
        <path id="DejaVuSans-37" d="M 525 4666 
L 3525 4666 
L 3525 4397 
L 1831 0 
L 1172 0 
L 2766 4134 
L 525 4134 
L 525 4666 
z
" transform="scale(0.015625)"/>
       </defs>
       <use xlink:href="#DejaVuSans-37"/>
       <use xlink:href="#DejaVuSans-2e" transform="translate(63.623047 0)"/>
       <use xlink:href="#DejaVuSans-30" transform="translate(95.410156 0)"/>
      </g>
     </g>
    </g>
    <g id="text_13">
     <!-- pH -->
     <g transform="translate(10.61375 296.834457) rotate(-90) scale(0.08 -0.08)">
      <defs>
       <path id="DejaVuSans-70" d="M 1159 525 
L 1159 -1331 
L 581 -1331 
L 581 3500 
L 1159 3500 
L 1159 2969 
Q 1341 3281 1617 3432 
Q 1894 3584 2278 3584 
Q 2916 3584 3314 3078 
Q 3713 2572 3713 1747 
Q 3713 922 3314 415 
Q 2916 -91 2278 -91 
Q 1894 -91 1617 61 
Q 1341 213 1159 525 
z
M 3116 1747 
Q 3116 2381 2855 2742 
Q 2594 3103 2138 3103 
Q 1681 3103 1420 2742 
Q 1159 2381 1159 1747 
Q 1159 1113 1420 752 
Q 1681 391 2138 391 
Q 2594 391 2855 752 
Q 3116 1113 3116 1747 
z
" transform="scale(0.015625)"/>
       <path id="DejaVuSans-48" d="M 628 4666 
L 1259 4666 
L 1259 2753 
L 3553 2753 
L 3553 4666 
L 4184 4666 
L 4184 0 
L 3553 0 
L 3553 2222 
L 1259 2222 
L 1259 0 
L 628 0 
L 628 4666 
z
" transform="scale(0.015625)"/>
      </defs>
      <use xlink:href="#DejaVuSans-70"/>
      <use xlink:href="#DejaVuSans-48" transform="translate(63.476562 0)"/>
     </g>
    </g>
   </g>
   <g id="line2d_38">
    <path d="M 36.8928 236.504348 
L 36.8928 236.51932 
L 36.8928 236.627871 
L 36.8928 237.709636 
L 36.8928 246.951429 
L 36.910656 269.773305 
L 36.91512 271.772138 
L 36.964224 283.679041 
L 37.07136 292.54652 
L 37.116 294.579041 
L 37.432944 302.701638 
L 38.267712 311.161116 
L 39.093552 315.578012 
L 44.919072 328.952222 
L 53.436384 337.535224 
L 57.101328 339.915856 
L 66.855168 344.059503 
L 77.979456 346.069565 
L 90.5724 345.916097 
L 104.92416 343.591612 
L 121.302576 339.298239 
L 139.627296 333.949304 
L 142.359264 333.110842 
L 142.363728 333.110842 
L 147.238416 331.374029 
L 148.0464 331.082065 
L 149.3856 330.599201 
L 157.050288 327.776879 
L 165.206016 324.726226 
L 173.884032 321.458472 
L 183.137904 318.018534 
L 193.003344 314.462558 
L 203.524992 310.854179 
L 214.720704 307.208369 
L 226.572624 303.454007 
L 238.991472 299.418911 
L 242.763552 298.131273 
L 256.999248 292.883402 
L 258.9768 292.089858 
L 259.17768 292.007509 
L 259.2 292.000023 
L 259.2 292.000023 
L 259.2 292.000023 
L 259.2 292.000023 
L 259.2 292.000023 
" clip-path="url(#p17ca6c21b6)" style="fill: none; stroke: #000000; stroke-width: 1.5; stroke-linecap: square"/>
   </g>
   <g id="line2d_39">
    <path d="M 36.8928 236.506336 
L 36.8928 236.506336 
L 36.8928 236.506336 
L 36.8928 236.506336 
L 36.8928 236.506336 
L 36.910656 236.535199 
L 36.91512 236.542413 
L 36.964224 236.621721 
L 37.07136 236.794463 
L 37.116 236.86632 
L 37.432944 237.374507 
L 38.267712 238.696349 
L 39.093552 239.980669 
L 44.919072 248.417993 
L 53.436384 259.023909 
L 57.101328 263.044281 
L 66.855168 272.40587 
L 77.979456 281.095258 
L 90.5724 288.88937 
L 104.92416 295.664926 
L 121.302576 301.20656 
L 139.627296 305.17845 
L 142.359264 305.597062 
L 142.363728 305.597712 
L 147.238416 306.242934 
L 148.0464 306.337667 
L 149.3856 306.487219 
L 157.050288 307.169771 
L 165.206016 307.589058 
L 173.884032 307.711256 
L 183.137904 307.495047 
L 193.003344 306.886578 
L 203.524992 305.813407 
L 214.720704 304.180139 
L 226.572624 301.867283 
L 238.991472 298.745784 
L 242.763552 297.64693 
L 256.999248 292.836982 
L 258.9768 292.085483 
L 259.17768 292.008028 
L 259.2 291.99941 
L 259.2 291.99941 
L 259.2 291.99941 
L 259.2 291.99941 
L 259.2 291.99941 
" clip-path="url(#p17ca6c21b6)" style="fill: none; stroke-dasharray: 5.55,2.4; stroke-dashoffset: 0; stroke: #000000; stroke-width: 1.5"/>
   </g>
   <g id="patch_9">
    <path d="M 36 351.547826 
L 36 231.026087 
" style="fill: none; stroke: #000000; stroke-width: 0.8; stroke-linejoin: miter; stroke-linecap: square"/>
   </g>
   <g id="patch_10">
    <path d="M 259.2 351.547826 
L 259.2 231.026087 
" style="fill: none; stroke: #000000; stroke-width: 0.8; stroke-linejoin: miter; stroke-linecap: square"/>
   </g>
   <g id="patch_11">
    <path d="M 36 351.547826 
L 259.2 351.547826 
" style="fill: none; stroke: #000000; stroke-width: 0.8; stroke-linejoin: miter; stroke-linecap: square"/>
   </g>
   <g id="patch_12">
    <path d="M 36 231.026087 
L 259.2 231.026087 
" style="fill: none; stroke: #000000; stroke-width: 0.8; stroke-linejoin: miter; stroke-linecap: square"/>
   </g>
  </g>
  <g id="axes_3">
   <g id="patch_13">
    <path d="M 36 496.173913 
L 259.2 496.173913 
L 259.2 375.652174 
L 36 375.652174 
z
" style="fill: #ffffff"/>
   </g>
   <g id="patch_14">
    <path d="M 90.4608 496.173913 
L 259.2 496.173913 
L 259.2 375.652174 
L 90.4608 375.652174 
z
" clip-path="url(#p4ec7337080)" style="opacity: 0.1"/>
   </g>
   <g id="matplotlib.axis_5">
    <g id="xtick_13">
     <g id="line2d_40">
      <g>
       <use xlink:href="#m0f8370f9b2" x="36" y="496.173913" style="stroke: #000000; stroke-width: 0.8"/>
      </g>
     </g>
     <g id="line2d_41">
      <g>
       <use xlink:href="#m89aee8cafa" x="36" y="375.652174" style="stroke: #000000; stroke-width: 0.8"/>
      </g>
     </g>
    </g>
    <g id="xtick_14">
     <g id="line2d_42">
      <g>
       <use xlink:href="#m0f8370f9b2" x="80.64" y="496.173913" style="stroke: #000000; stroke-width: 0.8"/>
      </g>
     </g>
     <g id="line2d_43">
      <g>
       <use xlink:href="#m89aee8cafa" x="80.64" y="375.652174" style="stroke: #000000; stroke-width: 0.8"/>
      </g>
     </g>
    </g>
    <g id="xtick_15">
     <g id="line2d_44">
      <g>
       <use xlink:href="#m0f8370f9b2" x="125.28" y="496.173913" style="stroke: #000000; stroke-width: 0.8"/>
      </g>
     </g>
     <g id="line2d_45">
      <g>
       <use xlink:href="#m89aee8cafa" x="125.28" y="375.652174" style="stroke: #000000; stroke-width: 0.8"/>
      </g>
     </g>
    </g>
    <g id="xtick_16">
     <g id="line2d_46">
      <g>
       <use xlink:href="#m0f8370f9b2" x="169.92" y="496.173913" style="stroke: #000000; stroke-width: 0.8"/>
      </g>
     </g>
     <g id="line2d_47">
      <g>
       <use xlink:href="#m89aee8cafa" x="169.92" y="375.652174" style="stroke: #000000; stroke-width: 0.8"/>
      </g>
     </g>
    </g>
    <g id="xtick_17">
     <g id="line2d_48">
      <g>
       <use xlink:href="#m0f8370f9b2" x="214.56" y="496.173913" style="stroke: #000000; stroke-width: 0.8"/>
      </g>
     </g>
     <g id="line2d_49">
      <g>
       <use xlink:href="#m89aee8cafa" x="214.56" y="375.652174" style="stroke: #000000; stroke-width: 0.8"/>
      </g>
     </g>
    </g>
    <g id="xtick_18">
     <g id="line2d_50">
      <g>
       <use xlink:href="#m0f8370f9b2" x="259.2" y="496.173913" style="stroke: #000000; stroke-width: 0.8"/>
      </g>
     </g>
     <g id="line2d_51">
      <g>
       <use xlink:href="#m89aee8cafa" x="259.2" y="375.652174" style="stroke: #000000; stroke-width: 0.8"/>
      </g>
     </g>
    </g>
   </g>
   <g id="matplotlib.axis_6">
    <g id="ytick_12">
     <g id="line2d_52">
      <g>
       <use xlink:href="#mc08913ac9d" x="36" y="496.173913" style="stroke: #000000; stroke-width: 0.8"/>
      </g>
     </g>
     <g id="text_14">
      <!-- −12 -->
      <g transform="translate(12.11625 499.213288) scale(0.08 -0.08)">
       <defs>
        <path id="DejaVuSans-2212" d="M 678 2272 
L 4684 2272 
L 4684 1741 
L 678 1741 
L 678 2272 
z
" transform="scale(0.015625)"/>
        <path id="DejaVuSans-31" d="M 794 531 
L 1825 531 
L 1825 4091 
L 703 3866 
L 703 4441 
L 1819 4666 
L 2450 4666 
L 2450 531 
L 3481 531 
L 3481 0 
L 794 0 
L 794 531 
z
" transform="scale(0.015625)"/>
       </defs>
       <use xlink:href="#DejaVuSans-2212"/>
       <use xlink:href="#DejaVuSans-31" transform="translate(83.789062 0)"/>
       <use xlink:href="#DejaVuSans-32" transform="translate(147.412109 0)"/>
      </g>
     </g>
    </g>
    <g id="ytick_13">
     <g id="line2d_53">
      <g>
       <use xlink:href="#mc08913ac9d" x="36" y="478.956522" style="stroke: #000000; stroke-width: 0.8"/>
      </g>
     </g>
     <g id="text_15">
      <!-- −10 -->
      <g transform="translate(12.11625 481.995897) scale(0.08 -0.08)">
       <use xlink:href="#DejaVuSans-2212"/>
       <use xlink:href="#DejaVuSans-31" transform="translate(83.789062 0)"/>
       <use xlink:href="#DejaVuSans-30" transform="translate(147.412109 0)"/>
      </g>
     </g>
    </g>
    <g id="ytick_14">
     <g id="line2d_54">
      <g>
       <use xlink:href="#mc08913ac9d" x="36" y="461.73913" style="stroke: #000000; stroke-width: 0.8"/>
      </g>
     </g>
     <g id="text_16">
      <!-- −8 -->
      <g transform="translate(17.20625 464.778505) scale(0.08 -0.08)">
       <use xlink:href="#DejaVuSans-2212"/>
       <use xlink:href="#DejaVuSans-38" transform="translate(83.789062 0)"/>
      </g>
     </g>
    </g>
    <g id="ytick_15">
     <g id="line2d_55">
      <g>
       <use xlink:href="#mc08913ac9d" x="36" y="444.521739" style="stroke: #000000; stroke-width: 0.8"/>
      </g>
     </g>
     <g id="text_17">
      <!-- −6 -->
      <g transform="translate(17.20625 447.561114) scale(0.08 -0.08)">
       <use xlink:href="#DejaVuSans-2212"/>
       <use xlink:href="#DejaVuSans-36" transform="translate(83.789062 0)"/>
      </g>
     </g>
    </g>
    <g id="ytick_16">
     <g id="line2d_56">
      <g>
       <use xlink:href="#mc08913ac9d" x="36" y="427.304348" style="stroke: #000000; stroke-width: 0.8"/>
      </g>
     </g>
     <g id="text_18">
      <!-- −4 -->
      <g transform="translate(17.20625 430.343723) scale(0.08 -0.08)">
       <use xlink:href="#DejaVuSans-2212"/>
       <use xlink:href="#DejaVuSans-34" transform="translate(83.789062 0)"/>
      </g>
     </g>
    </g>
    <g id="ytick_17">
     <g id="line2d_57">
      <g>
       <use xlink:href="#mc08913ac9d" x="36" y="410.086957" style="stroke: #000000; stroke-width: 0.8"/>
      </g>
     </g>
     <g id="text_19">
      <!-- −2 -->
      <g transform="translate(17.20625 413.126332) scale(0.08 -0.08)">
       <use xlink:href="#DejaVuSans-2212"/>
       <use xlink:href="#DejaVuSans-32" transform="translate(83.789062 0)"/>
      </g>
     </g>
    </g>
    <g id="ytick_18">
     <g id="line2d_58">
      <g>
       <use xlink:href="#mc08913ac9d" x="36" y="392.869565" style="stroke: #000000; stroke-width: 0.8"/>
      </g>
     </g>
     <g id="text_20">
      <!-- 0 -->
      <g transform="translate(23.91 395.90894) scale(0.08 -0.08)">
       <use xlink:href="#DejaVuSans-30"/>
      </g>
     </g>
    </g>
    <g id="ytick_19">
     <g id="line2d_59">
      <g>
       <use xlink:href="#mc08913ac9d" x="36" y="375.652174" style="stroke: #000000; stroke-width: 0.8"/>
      </g>
     </g>
     <g id="text_21">
      <!-- 2 -->
      <g transform="translate(23.91 378.691549) scale(0.08 -0.08)">
       <use xlink:href="#DejaVuSans-32"/>
      </g>
     </g>
    </g>
    <g id="text_22">
     <!-- log molality -->
     <g transform="translate(6.4525 459.346793) rotate(-90) scale(0.08 -0.08)">
      <defs>
       <path id="DejaVuSans-6d" d="M 3328 2828 
Q 3544 3216 3844 3400 
Q 4144 3584 4550 3584 
Q 5097 3584 5394 3201 
Q 5691 2819 5691 2113 
L 5691 0 
L 5113 0 
L 5113 2094 
Q 5113 2597 4934 2840 
Q 4756 3084 4391 3084 
Q 3944 3084 3684 2787 
Q 3425 2491 3425 1978 
L 3425 0 
L 2847 0 
L 2847 2094 
Q 2847 2600 2669 2842 
Q 2491 3084 2119 3084 
Q 1678 3084 1418 2786 
Q 1159 2488 1159 1978 
L 1159 0 
L 581 0 
L 581 3500 
L 1159 3500 
L 1159 2956 
Q 1356 3278 1631 3431 
Q 1906 3584 2284 3584 
Q 2666 3584 2933 3390 
Q 3200 3197 3328 2828 
z
" transform="scale(0.015625)"/>
      </defs>
      <use xlink:href="#DejaVuSans-6c"/>
      <use xlink:href="#DejaVuSans-6f" transform="translate(27.783203 0)"/>
      <use xlink:href="#DejaVuSans-67" transform="translate(88.964844 0)"/>
      <use xlink:href="#DejaVuSans-20" transform="translate(152.441406 0)"/>
      <use xlink:href="#DejaVuSans-6d" transform="translate(184.228516 0)"/>
      <use xlink:href="#DejaVuSans-6f" transform="translate(281.640625 0)"/>
      <use xlink:href="#DejaVuSans-6c" transform="translate(342.822266 0)"/>
      <use xlink:href="#DejaVuSans-61" transform="translate(370.605469 0)"/>
      <use xlink:href="#DejaVuSans-6c" transform="translate(431.884766 0)"/>
      <use xlink:href="#DejaVuSans-69" transform="translate(459.667969 0)"/>
      <use xlink:href="#DejaVuSans-74" transform="translate(487.451172 0)"/>
      <use xlink:href="#DejaVuSans-79" transform="translate(526.660156 0)"/>
     </g>
    </g>
   </g>
   <g id="line2d_60">
    <path d="M 36.8928 535.930591 
L 36.8928 487.840696 
L 36.8928 479.208757 
L 36.8928 470.375374 
L 36.8928 459.914087 
L 36.910656 448.259635 
L 36.91512 447.327313 
L 36.964224 441.821191 
L 37.07136 437.76047 
L 37.116 436.835896 
L 37.432944 433.178922 
L 38.267712 429.490096 
L 39.093552 427.653861 
L 44.919072 422.697835 
L 53.436384 419.958548 
L 57.101328 419.201843 
L 66.855168 417.709096 
L 77.979456 416.506461 
L 90.5724 415.480304 
L 104.92416 414.568643 
L 121.302576 413.741348 
L 139.627296 412.992391 
L 142.359264 412.89253 
L 142.363728 412.89253 
L 147.238416 412.721217 
L 148.0464 412.69367 
L 149.3856 412.648043 
L 157.050288 412.398391 
L 165.206016 412.1496 
L 173.884032 411.90253 
L 183.137904 411.656322 
L 193.003344 411.410974 
L 203.524992 411.166487 
L 214.720704 410.922 
L 226.572624 410.680957 
L 238.991472 410.443357 
L 242.763552 410.374487 
L 256.999248 410.123974 
L 258.9768 410.0904 
L 259.17768 410.086957 
L 259.2 410.086957 
L 259.2 410.086957 
L 259.2 410.086957 
L 259.2 410.086957 
L 259.2 410.086957 
" clip-path="url(#p4ec7337080)" style="fill: none; stroke: #1f77b4; stroke-linecap: square"/>
   </g>
   <g id="line2d_61">
    <path d="M 36.8928 410.086957 
L 36.8928 410.086957 
L 36.8928 410.086957 
L 36.8928 410.086957 
L 36.8928 410.086957 
L 36.910656 410.086957 
L 36.91512 410.086957 
L 36.964224 410.087817 
L 37.07136 410.089539 
L 37.116 410.0904 
L 37.432944 410.096426 
L 38.267712 410.1102 
L 39.093552 410.123974 
L 44.919072 410.224696 
L 53.436384 410.376209 
L 57.101328 410.443357 
L 66.855168 410.628443 
L 77.979456 410.850548 
L 90.5724 411.12 
L 104.92416 411.453157 
L 121.302576 411.8724 
L 139.627296 412.405278 
L 142.359264 412.492226 
L 142.363728 412.492226 
L 147.238416 412.651487 
L 148.0464 412.678174 
L 149.3856 412.7238 
L 157.050288 412.994113 
L 165.206016 413.304887 
L 173.884032 413.667313 
L 183.137904 414.096887 
L 193.003344 414.615991 
L 203.524992 415.263365 
L 214.720704 416.102713 
L 226.572624 417.261443 
L 238.991472 419.052052 
L 242.763552 419.825113 
L 256.999248 427.341365 
L 258.9768 435.910461 
L 259.17768 444.461478 
L 259.2 452.5614 
L 259.2 458.1054 
L 259.2 459.662713 
L 259.2 459.860713 
L 259.2 459.883096 
" clip-path="url(#p4ec7337080)" style="fill: none; stroke: #ff7f0e; stroke-linecap: square"/>
   </g>
   <g id="line2d_62">
    <path d="M 36.8928 445.867278 
L 36.8928 445.866417 
L 36.8928 445.862113 
L 36.8928 445.816487 
L 36.8928 445.3938 
L 36.910656 443.052235 
L 36.91512 442.674313 
L 36.964224 439.650078 
L 37.07136 436.633591 
L 37.116 435.876026 
L 37.432944 432.696835 
L 38.267712 429.28607 
L 39.093552 427.540226 
L 44.919072 422.724522 
L 53.436384 420.023113 
L 57.101328 419.275017 
L 66.855168 417.803791 
L 77.979456 416.6244 
L 90.5724 415.62493 
L 104.92416 414.739957 
L 121.302576 413.933322 
L 139.627296 413.199 
L 142.359264 413.100861 
L 142.363728 413.100861 
L 147.238416 412.93127 
L 148.0464 412.904583 
L 149.3856 412.859817 
L 157.050288 412.612748 
L 165.206016 412.3674 
L 173.884032 412.122913 
L 183.137904 411.878426 
L 193.003344 411.6348 
L 203.524992 411.391174 
L 214.720704 411.147548 
L 226.572624 410.906504 
L 238.991472 410.669765 
L 242.763552 410.600035 
L 256.999248 410.350383 
L 258.9768 410.316809 
L 259.17768 410.313365 
L 259.2 410.313365 
L 259.2 410.313365 
L 259.2 410.313365 
L 259.2 410.313365 
L 259.2 410.313365 
" clip-path="url(#p4ec7337080)" style="fill: none; stroke: #2ca02c; stroke-linecap: square"/>
   </g>
   <g id="line2d_63">
    <path d="M 36.8928 527.413148 
L 36.8928 479.325835 
L 36.8928 470.719722 
L 36.8928 462.13427 
L 36.8928 453.797609 
L 36.910656 447.386713 
L 36.91512 446.912374 
L 36.964224 444.131765 
L 37.07136 442.082035 
L 37.116 441.613722 
L 37.432944 439.742191 
L 38.267712 437.792322 
L 39.093552 436.775635 
L 44.919072 433.692 
L 53.436384 431.712 
L 57.101328 431.162765 
L 66.855168 430.204617 
L 77.979456 429.739748 
L 90.5724 429.774183 
L 104.92416 430.31567 
L 121.302576 431.32633 
L 139.627296 432.631409 
L 142.359264 432.843183 
L 142.363728 432.844043 
L 147.238416 433.28653 
L 148.0464 433.362287 
L 149.3856 433.488835 
L 157.050288 434.2464 
L 165.206016 435.121043 
L 173.884032 436.146339 
L 183.137904 437.367913 
L 193.003344 438.848609 
L 203.524992 440.660739 
L 214.720704 442.886087 
L 226.572624 445.590078 
L 238.991472 448.820061 
L 242.763552 449.884096 
L 256.999248 454.259896 
L 258.9768 454.915017 
L 259.17768 454.982165 
L 259.2 454.989052 
L 259.2 454.989913 
L 259.2 454.989913 
L 259.2 454.989913 
L 259.2 454.989913 
" clip-path="url(#p4ec7337080)" style="fill: none; stroke: #d62728; stroke-linecap: square"/>
   </g>
   <g id="line2d_64">
    <path d="M 36.8928 454.970113 
L 36.8928 454.96753 
L 36.8928 454.942565 
L 36.8928 454.693774 
L 36.8928 452.568287 
L 36.910656 447.317843 
L 36.91512 446.858139 
L 36.964224 444.117991 
L 37.07136 442.07687 
L 37.116 441.609417 
L 37.432944 439.74047 
L 38.267712 437.792322 
L 39.093552 436.774774 
L 44.919072 433.692861 
L 53.436384 431.712 
L 57.101328 431.162765 
L 66.855168 430.205478 
L 77.979456 429.739748 
L 90.5724 429.772461 
L 104.92416 430.307061 
L 121.302576 431.2962 
L 139.627296 432.528104 
L 142.359264 432.720939 
L 142.363728 432.720939 
L 147.238416 433.121243 
L 148.0464 433.188391 
L 149.3856 433.300304 
L 157.050288 433.9494 
L 165.206016 434.65273 
L 173.884032 435.40513 
L 183.137904 436.197991 
L 193.003344 437.016678 
L 203.524992 437.847417 
L 214.720704 438.685904 
L 226.572624 439.549357 
L 238.991472 440.477374 
L 242.763552 440.772652 
L 256.999248 441.979591 
L 258.9768 442.162096 
L 259.17768 442.181035 
L 259.2 442.182757 
L 259.2 442.182757 
L 259.2 442.182757 
L 259.2 442.182757 
L 259.2 442.182757 
" clip-path="url(#p4ec7337080)" style="fill: none; stroke: #9467bd; stroke-linecap: square"/>
   </g>
   <g id="patch_15">
    <path d="M 36 496.173913 
L 36 375.652174 
" style="fill: none; stroke: #000000; stroke-width: 0.8; stroke-linejoin: miter; stroke-linecap: square"/>
   </g>
   <g id="patch_16">
    <path d="M 259.2 496.173913 
L 259.2 375.652174 
" style="fill: none; stroke: #000000; stroke-width: 0.8; stroke-linejoin: miter; stroke-linecap: square"/>
   </g>
   <g id="patch_17">
    <path d="M 36 496.173913 
L 259.2 496.173913 
" style="fill: none; stroke: #000000; stroke-width: 0.8; stroke-linejoin: miter; stroke-linecap: square"/>
   </g>
   <g id="patch_18">
    <path d="M 36 375.652174 
L 259.2 375.652174 
" style="fill: none; stroke: #000000; stroke-width: 0.8; stroke-linejoin: miter; stroke-linecap: square"/>
   </g>
   <g id="legend_1">
    <g id="patch_19">
     <path d="M 41.6 492.173913 
L 97.36 492.173913 
Q 98.96 492.173913 98.96 490.573913 
L 98.96 432.661413 
Q 98.96 431.061413 97.36 431.061413 
L 41.6 431.061413 
Q 40 431.061413 40 432.661413 
L 40 490.573913 
Q 40 492.173913 41.6 492.173913 
z
" style="fill: #ffffff; opacity: 0.8; stroke: #cccccc; stroke-linejoin: miter"/>
    </g>
    <g id="line2d_65">
     <path d="M 43.2 437.540163 
L 51.2 437.540163 
L 59.2 437.540163 
" style="fill: none; stroke: #1f77b4; stroke-linecap: square"/>
    </g>
    <g id="text_23">
     <!-- $CO_2$ -->
     <g transform="translate(65.6 440.340163) scale(0.08 -0.08)">
      <defs>
       <path id="DejaVuSans-Oblique-43" d="M 4447 4306 
L 4319 3641 
Q 4019 3944 3683 4091 
Q 3347 4238 2956 4238 
Q 2422 4238 2017 3981 
Q 1613 3725 1319 3200 
Q 1131 2863 1032 2486 
Q 934 2109 934 1728 
Q 934 1091 1264 756 
Q 1594 422 2222 422 
Q 2656 422 3056 561 
Q 3456 700 3834 978 
L 3688 231 
Q 3316 72 2936 -9 
Q 2556 -91 2175 -91 
Q 1278 -91 773 396 
Q 269 884 269 1753 
Q 269 2309 461 2846 
Q 653 3384 1013 3828 
Q 1394 4300 1883 4525 
Q 2372 4750 3022 4750 
Q 3422 4750 3780 4639 
Q 4138 4528 4447 4306 
z
" transform="scale(0.015625)"/>
       <path id="DejaVuSans-Oblique-4f" d="M 2919 4238 
Q 2400 4238 2003 3986 
Q 1606 3734 1313 3219 
Q 1125 2891 1026 2522 
Q 928 2153 928 1778 
Q 928 1128 1239 775 
Q 1550 422 2119 422 
Q 2631 422 3032 676 
Q 3434 931 3719 1434 
Q 3909 1772 4009 2142 
Q 4109 2513 4109 2881 
Q 4109 3528 3796 3883 
Q 3484 4238 2919 4238 
z
M 2100 -91 
Q 1241 -91 748 418 
Q 256 928 256 1813 
Q 256 2319 448 2847 
Q 641 3375 978 3788 
Q 1375 4272 1862 4511 
Q 2350 4750 2938 4750 
Q 3794 4750 4287 4245 
Q 4781 3741 4781 2869 
Q 4781 2331 4593 1812 
Q 4406 1294 4056 872 
Q 3656 384 3173 146 
Q 2691 -91 2100 -91 
z
" transform="scale(0.015625)"/>
      </defs>
      <use xlink:href="#DejaVuSans-Oblique-43" transform="translate(0 0.78125)"/>
      <use xlink:href="#DejaVuSans-Oblique-4f" transform="translate(69.824219 0.78125)"/>
      <use xlink:href="#DejaVuSans-32" transform="translate(148.535156 -15.625) scale(0.7)"/>
     </g>
    </g>
    <g id="line2d_66">
     <path d="M 43.2 449.282663 
L 51.2 449.282663 
L 59.2 449.282663 
" style="fill: none; stroke: #ff7f0e; stroke-linecap: square"/>
    </g>
    <g id="text_24">
     <!-- $CH_4$ -->
     <g transform="translate(65.6 452.082663) scale(0.08 -0.08)">
      <defs>
       <path id="DejaVuSans-Oblique-48" d="M 1081 4666 
L 1716 4666 
L 1344 2753 
L 3634 2753 
L 4006 4666 
L 4641 4666 
L 3731 0 
L 3097 0 
L 3531 2222 
L 1241 2222 
L 806 0 
L 172 0 
L 1081 4666 
z
" transform="scale(0.015625)"/>
      </defs>
      <use xlink:href="#DejaVuSans-Oblique-43" transform="translate(0 0.78125)"/>
      <use xlink:href="#DejaVuSans-Oblique-48" transform="translate(69.824219 0.78125)"/>
      <use xlink:href="#DejaVuSans-34" transform="translate(145.019531 -15.625) scale(0.7)"/>
     </g>
    </g>
    <g id="line2d_67">
     <path d="M 43.2 461.025163 
L 51.2 461.025163 
L 59.2 461.025163 
" style="fill: none; stroke: #2ca02c; stroke-linecap: square"/>
    </g>
    <g id="text_25">
     <!-- $H_2$ -->
     <g transform="translate(65.6 463.825163) scale(0.08 -0.08)">
      <use xlink:href="#DejaVuSans-Oblique-48" transform="translate(0 0.09375)"/>
      <use xlink:href="#DejaVuSans-32" transform="translate(75.195312 -16.3125) scale(0.7)"/>
     </g>
    </g>
    <g id="line2d_68">
     <path d="M 43.2 472.767663 
L 51.2 472.767663 
L 59.2 472.767663 
" style="fill: none; stroke: #d62728; stroke-linecap: square"/>
    </g>
    <g id="text_26">
     <!-- $HCO3^-$ -->
     <g transform="translate(65.6 475.567663) scale(0.08 -0.08)">
      <defs>
       <path id="DejaVuSans-33" d="M 2597 2516 
Q 3050 2419 3304 2112 
Q 3559 1806 3559 1356 
Q 3559 666 3084 287 
Q 2609 -91 1734 -91 
Q 1441 -91 1130 -33 
Q 819 25 488 141 
L 488 750 
Q 750 597 1062 519 
Q 1375 441 1716 441 
Q 2309 441 2620 675 
Q 2931 909 2931 1356 
Q 2931 1769 2642 2001 
Q 2353 2234 1838 2234 
L 1294 2234 
L 1294 2753 
L 1863 2753 
Q 2328 2753 2575 2939 
Q 2822 3125 2822 3475 
Q 2822 3834 2567 4026 
Q 2313 4219 1838 4219 
Q 1578 4219 1281 4162 
Q 984 4106 628 3988 
L 628 4550 
Q 988 4650 1302 4700 
Q 1616 4750 1894 4750 
Q 2613 4750 3031 4423 
Q 3450 4097 3450 3541 
Q 3450 3153 3228 2886 
Q 3006 2619 2597 2516 
z
" transform="scale(0.015625)"/>
      </defs>
      <use xlink:href="#DejaVuSans-Oblique-48" transform="translate(0 0.78125)"/>
      <use xlink:href="#DejaVuSans-Oblique-43" transform="translate(75.195312 0.78125)"/>
      <use xlink:href="#DejaVuSans-Oblique-4f" transform="translate(145.019531 0.78125)"/>
      <use xlink:href="#DejaVuSans-33" transform="translate(223.730469 0.78125)"/>
      <use xlink:href="#DejaVuSans-2212" transform="translate(301.948242 39.0625) scale(0.7)"/>
     </g>
    </g>
    <g id="line2d_69">
     <path d="M 43.2 484.510163 
L 51.2 484.510163 
L 59.2 484.510163 
" style="fill: none; stroke: #9467bd; stroke-linecap: square"/>
    </g>
    <g id="text_27">
     <!-- $H^+$ -->
     <g transform="translate(65.6 487.310163) scale(0.08 -0.08)">
      <defs>
       <path id="DejaVuSans-2b" d="M 2944 4013 
L 2944 2272 
L 4684 2272 
L 4684 1741 
L 2944 1741 
L 2944 0 
L 2419 0 
L 2419 1741 
L 678 1741 
L 678 2272 
L 2419 2272 
L 2419 4013 
L 2944 4013 
z
" transform="scale(0.015625)"/>
      </defs>
      <use xlink:href="#DejaVuSans-Oblique-48" transform="translate(0 0.826562)"/>
      <use xlink:href="#DejaVuSans-2b" transform="translate(95.849779 39.107812) scale(0.7)"/>
     </g>
    </g>
   </g>
  </g>
  <g id="axes_4">
   <g id="patch_20">
    <path d="M 36 640.8 
L 259.2 640.8 
L 259.2 520.278261 
L 36 520.278261 
z
" style="fill: #ffffff"/>
   </g>
   <g id="patch_21">
    <path d="M 90.4608 640.8 
L 259.2 640.8 
L 259.2 520.278261 
L 90.4608 520.278261 
z
" clip-path="url(#p3b125537c8)" style="opacity: 0.1"/>
   </g>
   <g id="matplotlib.axis_7">
    <g id="xtick_19">
     <g id="line2d_70">
      <g>
       <use xlink:href="#m0f8370f9b2" x="36" y="640.8" style="stroke: #000000; stroke-width: 0.8"/>
      </g>
     </g>
     <g id="line2d_71">
      <g>
       <use xlink:href="#m89aee8cafa" x="36" y="520.278261" style="stroke: #000000; stroke-width: 0.8"/>
      </g>
     </g>
     <g id="text_28">
      <!-- 0 -->
      <g transform="translate(33.455 653.87875) scale(0.08 -0.08)">
       <use xlink:href="#DejaVuSans-30"/>
      </g>
     </g>
    </g>
    <g id="xtick_20">
     <g id="line2d_72">
      <g>
       <use xlink:href="#m0f8370f9b2" x="80.64" y="640.8" style="stroke: #000000; stroke-width: 0.8"/>
      </g>
     </g>
     <g id="line2d_73">
      <g>
       <use xlink:href="#m89aee8cafa" x="80.64" y="520.278261" style="stroke: #000000; stroke-width: 0.8"/>
      </g>
     </g>
     <g id="text_29">
      <!-- 100 -->
      <g transform="translate(73.005 653.87875) scale(0.08 -0.08)">
       <use xlink:href="#DejaVuSans-31"/>
       <use xlink:href="#DejaVuSans-30" transform="translate(63.623047 0)"/>
       <use xlink:href="#DejaVuSans-30" transform="translate(127.246094 0)"/>
      </g>
     </g>
    </g>
    <g id="xtick_21">
     <g id="line2d_74">
      <g>
       <use xlink:href="#m0f8370f9b2" x="125.28" y="640.8" style="stroke: #000000; stroke-width: 0.8"/>
      </g>
     </g>
     <g id="line2d_75">
      <g>
       <use xlink:href="#m89aee8cafa" x="125.28" y="520.278261" style="stroke: #000000; stroke-width: 0.8"/>
      </g>
     </g>
     <g id="text_30">
      <!-- 200 -->
      <g transform="translate(117.645 653.87875) scale(0.08 -0.08)">
       <use xlink:href="#DejaVuSans-32"/>
       <use xlink:href="#DejaVuSans-30" transform="translate(63.623047 0)"/>
       <use xlink:href="#DejaVuSans-30" transform="translate(127.246094 0)"/>
      </g>
     </g>
    </g>
    <g id="xtick_22">
     <g id="line2d_76">
      <g>
       <use xlink:href="#m0f8370f9b2" x="169.92" y="640.8" style="stroke: #000000; stroke-width: 0.8"/>
      </g>
     </g>
     <g id="line2d_77">
      <g>
       <use xlink:href="#m89aee8cafa" x="169.92" y="520.278261" style="stroke: #000000; stroke-width: 0.8"/>
      </g>
     </g>
     <g id="text_31">
      <!-- 300 -->
      <g transform="translate(162.285 653.87875) scale(0.08 -0.08)">
       <use xlink:href="#DejaVuSans-33"/>
       <use xlink:href="#DejaVuSans-30" transform="translate(63.623047 0)"/>
       <use xlink:href="#DejaVuSans-30" transform="translate(127.246094 0)"/>
      </g>
     </g>
    </g>
    <g id="xtick_23">
     <g id="line2d_78">
      <g>
       <use xlink:href="#m0f8370f9b2" x="214.56" y="640.8" style="stroke: #000000; stroke-width: 0.8"/>
      </g>
     </g>
     <g id="line2d_79">
      <g>
       <use xlink:href="#m89aee8cafa" x="214.56" y="520.278261" style="stroke: #000000; stroke-width: 0.8"/>
      </g>
     </g>
     <g id="text_32">
      <!-- 400 -->
      <g transform="translate(206.925 653.87875) scale(0.08 -0.08)">
       <use xlink:href="#DejaVuSans-34"/>
       <use xlink:href="#DejaVuSans-30" transform="translate(63.623047 0)"/>
       <use xlink:href="#DejaVuSans-30" transform="translate(127.246094 0)"/>
      </g>
     </g>
    </g>
    <g id="xtick_24">
     <g id="line2d_80">
      <g>
       <use xlink:href="#m0f8370f9b2" x="259.2" y="640.8" style="stroke: #000000; stroke-width: 0.8"/>
      </g>
     </g>
     <g id="line2d_81">
      <g>
       <use xlink:href="#m89aee8cafa" x="259.2" y="520.278261" style="stroke: #000000; stroke-width: 0.8"/>
      </g>
     </g>
     <g id="text_33">
      <!-- 500 -->
      <g transform="translate(251.565 653.87875) scale(0.08 -0.08)">
       <use xlink:href="#DejaVuSans-35"/>
       <use xlink:href="#DejaVuSans-30" transform="translate(63.623047 0)"/>
       <use xlink:href="#DejaVuSans-30" transform="translate(127.246094 0)"/>
      </g>
     </g>
    </g>
    <g id="text_34">
     <!-- $T_{mix}$ (C) -->
     <g transform="translate(128.95 667.140938) scale(0.1 -0.1)">
      <defs>
       <path id="DejaVuSans-Oblique-54" d="M 378 4666 
L 4325 4666 
L 4225 4134 
L 2559 4134 
L 1759 0 
L 1125 0 
L 1925 4134 
L 275 4134 
L 378 4666 
z
" transform="scale(0.015625)"/>
       <path id="DejaVuSans-Oblique-6d" d="M 5747 2113 
L 5338 0 
L 4763 0 
L 5166 2094 
Q 5191 2228 5203 2325 
Q 5216 2422 5216 2491 
Q 5216 2772 5059 2928 
Q 4903 3084 4622 3084 
Q 4203 3084 3875 2770 
Q 3547 2456 3450 1953 
L 3066 0 
L 2491 0 
L 2900 2094 
Q 2925 2209 2937 2307 
Q 2950 2406 2950 2484 
Q 2950 2769 2794 2926 
Q 2638 3084 2363 3084 
Q 1938 3084 1609 2770 
Q 1281 2456 1184 1953 
L 800 0 
L 225 0 
L 909 3500 
L 1484 3500 
L 1375 2956 
Q 1609 3263 1923 3423 
Q 2238 3584 2597 3584 
Q 2978 3584 3223 3384 
Q 3469 3184 3519 2828 
Q 3781 3197 4126 3390 
Q 4472 3584 4856 3584 
Q 5306 3584 5551 3325 
Q 5797 3066 5797 2591 
Q 5797 2488 5784 2364 
Q 5772 2241 5747 2113 
z
" transform="scale(0.015625)"/>
       <path id="DejaVuSans-Oblique-69" d="M 1172 4863 
L 1747 4863 
L 1606 4134 
L 1031 4134 
L 1172 4863 
z
M 909 3500 
L 1484 3500 
L 800 0 
L 225 0 
L 909 3500 
z
" transform="scale(0.015625)"/>
       <path id="DejaVuSans-Oblique-78" d="M 3841 3500 
L 2234 1784 
L 3219 0 
L 2559 0 
L 1819 1388 
L 531 0 
L -166 0 
L 1556 1844 
L 641 3500 
L 1300 3500 
L 1972 2234 
L 3144 3500 
L 3841 3500 
z
" transform="scale(0.015625)"/>
       <path id="DejaVuSans-28" d="M 1984 4856 
Q 1566 4138 1362 3434 
Q 1159 2731 1159 2009 
Q 1159 1288 1364 580 
Q 1569 -128 1984 -844 
L 1484 -844 
Q 1016 -109 783 600 
Q 550 1309 550 2009 
Q 550 2706 781 3412 
Q 1013 4119 1484 4856 
L 1984 4856 
z
" transform="scale(0.015625)"/>
       <path id="DejaVuSans-43" d="M 4122 4306 
L 4122 3641 
Q 3803 3938 3442 4084 
Q 3081 4231 2675 4231 
Q 1875 4231 1450 3742 
Q 1025 3253 1025 2328 
Q 1025 1406 1450 917 
Q 1875 428 2675 428 
Q 3081 428 3442 575 
Q 3803 722 4122 1019 
L 4122 359 
Q 3791 134 3420 21 
Q 3050 -91 2638 -91 
Q 1578 -91 968 557 
Q 359 1206 359 2328 
Q 359 3453 968 4101 
Q 1578 4750 2638 4750 
Q 3056 4750 3426 4639 
Q 3797 4528 4122 4306 
z
" transform="scale(0.015625)"/>
       <path id="DejaVuSans-29" d="M 513 4856 
L 1013 4856 
Q 1481 4119 1714 3412 
Q 1947 2706 1947 2009 
Q 1947 1309 1714 600 
Q 1481 -109 1013 -844 
L 513 -844 
Q 928 -128 1133 580 
Q 1338 1288 1338 2009 
Q 1338 2731 1133 3434 
Q 928 4138 513 4856 
z
" transform="scale(0.015625)"/>
      </defs>
      <use xlink:href="#DejaVuSans-Oblique-54" transform="translate(0 0.125)"/>
      <use xlink:href="#DejaVuSans-Oblique-6d" transform="translate(61.083984 -16.28125) scale(0.7)"/>
      <use xlink:href="#DejaVuSans-Oblique-69" transform="translate(129.272461 -16.28125) scale(0.7)"/>
      <use xlink:href="#DejaVuSans-Oblique-78" transform="translate(148.720703 -16.28125) scale(0.7)"/>
      <use xlink:href="#DejaVuSans-20" transform="translate(192.880859 0.125)"/>
      <use xlink:href="#DejaVuSans-28" transform="translate(224.667969 0.125)"/>
      <use xlink:href="#DejaVuSans-43" transform="translate(263.681641 0.125)"/>
      <use xlink:href="#DejaVuSans-29" transform="translate(333.505859 0.125)"/>
     </g>
    </g>
   </g>
   <g id="matplotlib.axis_8">
    <g id="ytick_20">
     <g id="line2d_82">
      <g>
       <use xlink:href="#mc08913ac9d" x="36" y="629.219349" style="stroke: #000000; stroke-width: 0.8"/>
      </g>
     </g>
     <g id="text_35">
      <!-- −30 -->
      <g transform="translate(12.11625 632.258724) scale(0.08 -0.08)">
       <use xlink:href="#DejaVuSans-2212"/>
       <use xlink:href="#DejaVuSans-33" transform="translate(83.789062 0)"/>
       <use xlink:href="#DejaVuSans-30" transform="translate(147.412109 0)"/>
      </g>
     </g>
    </g>
    <g id="ytick_21">
     <g id="line2d_83">
      <g>
       <use xlink:href="#mc08913ac9d" x="36" y="607.185142" style="stroke: #000000; stroke-width: 0.8"/>
      </g>
     </g>
     <g id="text_36">
      <!-- −20 -->
      <g transform="translate(12.11625 610.224517) scale(0.08 -0.08)">
       <use xlink:href="#DejaVuSans-2212"/>
       <use xlink:href="#DejaVuSans-32" transform="translate(83.789062 0)"/>
       <use xlink:href="#DejaVuSans-30" transform="translate(147.412109 0)"/>
      </g>
     </g>
    </g>
    <g id="ytick_22">
     <g id="line2d_84">
      <g>
       <use xlink:href="#mc08913ac9d" x="36" y="585.150934" style="stroke: #000000; stroke-width: 0.8"/>
      </g>
     </g>
     <g id="text_37">
      <!-- −10 -->
      <g transform="translate(12.11625 588.190309) scale(0.08 -0.08)">
       <use xlink:href="#DejaVuSans-2212"/>
       <use xlink:href="#DejaVuSans-31" transform="translate(83.789062 0)"/>
       <use xlink:href="#DejaVuSans-30" transform="translate(147.412109 0)"/>
      </g>
     </g>
    </g>
    <g id="ytick_23">
     <g id="line2d_85">
      <g>
       <use xlink:href="#mc08913ac9d" x="36" y="563.116727" style="stroke: #000000; stroke-width: 0.8"/>
      </g>
     </g>
     <g id="text_38">
      <!-- 0 -->
      <g transform="translate(23.91 566.156102) scale(0.08 -0.08)">
       <use xlink:href="#DejaVuSans-30"/>
      </g>
     </g>
    </g>
    <g id="ytick_24">
     <g id="line2d_86">
      <g>
       <use xlink:href="#mc08913ac9d" x="36" y="541.082519" style="stroke: #000000; stroke-width: 0.8"/>
      </g>
     </g>
     <g id="text_39">
      <!-- 10 -->
      <g transform="translate(18.82 544.121894) scale(0.08 -0.08)">
       <use xlink:href="#DejaVuSans-31"/>
       <use xlink:href="#DejaVuSans-30" transform="translate(63.623047 0)"/>
      </g>
     </g>
    </g>
    <g id="text_40">
     <!-- Energy supply -->
     <g transform="translate(-2.50575 608.99163) rotate(-90) scale(0.08 -0.08)">
      <defs>
       <path id="DejaVuSans-45" d="M 628 4666 
L 3578 4666 
L 3578 4134 
L 1259 4134 
L 1259 2753 
L 3481 2753 
L 3481 2222 
L 1259 2222 
L 1259 531 
L 3634 531 
L 3634 0 
L 628 0 
L 628 4666 
z
" transform="scale(0.015625)"/>
       <path id="DejaVuSans-73" d="M 2834 3397 
L 2834 2853 
Q 2591 2978 2328 3040 
Q 2066 3103 1784 3103 
Q 1356 3103 1142 2972 
Q 928 2841 928 2578 
Q 928 2378 1081 2264 
Q 1234 2150 1697 2047 
L 1894 2003 
Q 2506 1872 2764 1633 
Q 3022 1394 3022 966 
Q 3022 478 2636 193 
Q 2250 -91 1575 -91 
Q 1294 -91 989 -36 
Q 684 19 347 128 
L 347 722 
Q 666 556 975 473 
Q 1284 391 1588 391 
Q 1994 391 2212 530 
Q 2431 669 2431 922 
Q 2431 1156 2273 1281 
Q 2116 1406 1581 1522 
L 1381 1569 
Q 847 1681 609 1914 
Q 372 2147 372 2553 
Q 372 3047 722 3315 
Q 1072 3584 1716 3584 
Q 2034 3584 2315 3537 
Q 2597 3491 2834 3397 
z
" transform="scale(0.015625)"/>
      </defs>
      <use xlink:href="#DejaVuSans-45"/>
      <use xlink:href="#DejaVuSans-6e" transform="translate(63.183594 0)"/>
      <use xlink:href="#DejaVuSans-65" transform="translate(126.5625 0)"/>
      <use xlink:href="#DejaVuSans-72" transform="translate(188.085938 0)"/>
      <use xlink:href="#DejaVuSans-67" transform="translate(227.449219 0)"/>
      <use xlink:href="#DejaVuSans-79" transform="translate(290.925781 0)"/>
      <use xlink:href="#DejaVuSans-20" transform="translate(350.105469 0)"/>
      <use xlink:href="#DejaVuSans-73" transform="translate(381.892578 0)"/>
      <use xlink:href="#DejaVuSans-75" transform="translate(433.992188 0)"/>
      <use xlink:href="#DejaVuSans-70" transform="translate(497.371094 0)"/>
      <use xlink:href="#DejaVuSans-70" transform="translate(560.847656 0)"/>
      <use xlink:href="#DejaVuSans-6c" transform="translate(624.324219 0)"/>
      <use xlink:href="#DejaVuSans-79" transform="translate(652.107422 0)"/>
     </g>
     <!-- (cal / kg of fluid) -->
     <g transform="translate(6.4525 613.271005) rotate(-90) scale(0.08 -0.08)">
      <defs>
       <path id="DejaVuSans-2f" d="M 1625 4666 
L 2156 4666 
L 531 -594 
L 0 -594 
L 1625 4666 
z
" transform="scale(0.015625)"/>
      </defs>
      <use xlink:href="#DejaVuSans-28"/>
      <use xlink:href="#DejaVuSans-63" transform="translate(39.013672 0)"/>
      <use xlink:href="#DejaVuSans-61" transform="translate(93.994141 0)"/>
      <use xlink:href="#DejaVuSans-6c" transform="translate(155.273438 0)"/>
      <use xlink:href="#DejaVuSans-20" transform="translate(183.056641 0)"/>
      <use xlink:href="#DejaVuSans-2f" transform="translate(214.84375 0)"/>
      <use xlink:href="#DejaVuSans-20" transform="translate(248.535156 0)"/>
      <use xlink:href="#DejaVuSans-6b" transform="translate(280.322266 0)"/>
      <use xlink:href="#DejaVuSans-67" transform="translate(338.232422 0)"/>
      <use xlink:href="#DejaVuSans-20" transform="translate(401.708984 0)"/>
      <use xlink:href="#DejaVuSans-6f" transform="translate(433.496094 0)"/>
      <use xlink:href="#DejaVuSans-66" transform="translate(494.677734 0)"/>
      <use xlink:href="#DejaVuSans-20" transform="translate(529.882812 0)"/>
      <use xlink:href="#DejaVuSans-66" transform="translate(561.669922 0)"/>
      <use xlink:href="#DejaVuSans-6c" transform="translate(596.875 0)"/>
      <use xlink:href="#DejaVuSans-75" transform="translate(624.658203 0)"/>
      <use xlink:href="#DejaVuSans-69" transform="translate(688.037109 0)"/>
      <use xlink:href="#DejaVuSans-64" transform="translate(715.820312 0)"/>
      <use xlink:href="#DejaVuSans-29" transform="translate(779.296875 0)"/>
     </g>
    </g>
   </g>
   <g id="line2d_87">
    <path d="M 36.8928 563.116727 
L 36.8928 563.116727 
L 36.8928 563.116727 
L 36.8928 563.116727 
L 36.8928 563.116286 
L 36.910656 563.10615 
L 36.91512 563.104608 
L 36.964224 563.084116 
L 37.07136 563.033217 
L 37.116 563.011403 
L 37.432944 562.839977 
L 38.267712 562.350818 
L 39.093552 561.836319 
L 44.919072 558.008536 
L 53.436384 552.429034 
L 57.101328 550.122493 
L 66.855168 544.393379 
L 77.979456 538.718249 
L 90.5724 533.551447 
L 104.92416 529.483492 
L 121.302576 527.418005 
L 139.627296 528.627242 
L 142.359264 529.141521 
L 142.363728 529.139978 
L 147.238416 530.283554 
L 148.0464 530.501472 
L 149.3856 530.8798 
L 157.050288 533.462209 
L 165.206016 537.025581 
L 173.884032 541.756545 
L 183.137904 547.89836 
L 193.003344 555.726453 
L 203.524992 565.55988 
L 214.720704 577.72166 
L 226.572624 592.467393 
L 238.991472 609.603837 
L 242.763552 614.940301 
L 256.999248 627.852788 
L 258.9768 613.79276 
L 259.17768 595.974357 
L 259.2 578.75859 
L 259.2 566.944068 
L 259.2 563.625276 
L 259.2 563.203321 
L 259.2 563.155727 
" clip-path="url(#p3b125537c8)" style="fill: none; stroke: #000000; stroke-width: 2; stroke-linecap: square"/>
   </g>
   <g id="line2d_88">
    <path d="M 36 563.116727 
L 259.2 563.116727 
" clip-path="url(#p3b125537c8)" style="fill: none; stroke-dasharray: 5.55,2.4; stroke-dashoffset: 0; stroke: #000000; stroke-width: 1.5"/>
   </g>
   <g id="line2d_89">
    <path d="M 36.8928 512.027744 
L 36.8928 563.116727 
L 36.8928 563.116727 
L 36.8928 563.116727 
L 36.8928 563.116727 
L 36.910656 563.116727 
L 36.91512 563.116727 
L 36.964224 563.116727 
L 37.07136 563.116727 
L 37.116 563.116727 
L 37.432944 563.116727 
L 38.267712 563.116727 
L 39.093552 563.116727 
L 44.919072 563.116727 
L 53.436384 563.116727 
L 57.101328 563.116727 
L 66.855168 563.116727 
L 77.979456 563.116727 
L 90.5724 563.116727 
L 104.92416 563.116727 
L 121.302576 563.116727 
L 139.627296 563.116727 
L 142.359264 563.116727 
L 142.363728 563.116727 
L 147.238416 563.116727 
L 148.0464 563.116727 
L 149.3856 563.116727 
L 157.050288 563.116727 
L 165.206016 563.116727 
L 173.884032 563.116727 
L 183.137904 563.116727 
L 193.003344 563.116727 
L 203.524992 557.721016 
L 214.720704 552.752454 
L 226.572624 554.993918 
L 238.991472 558.047567 
L 242.763552 558.99253 
L 256.999248 562.564141 
L 258.9768 563.060961 
L 259.17768 563.111145 
L 259.2 563.116168 
L 259.2 563.11667 
L 259.2 563.116721 
L 259.2 563.116726 
L 259.2 563.116726 
" clip-path="url(#p3b125537c8)" style="fill: none; stroke-dasharray: 1,1.65; stroke-dashoffset: 0; stroke: #000000"/>
   </g>
   <g id="patch_22">
    <path d="M 36 640.8 
L 36 520.278261 
" style="fill: none; stroke: #000000; stroke-width: 0.8; stroke-linejoin: miter; stroke-linecap: square"/>
   </g>
   <g id="patch_23">
    <path d="M 259.2 640.8 
L 259.2 520.278261 
" style="fill: none; stroke: #000000; stroke-width: 0.8; stroke-linejoin: miter; stroke-linecap: square"/>
   </g>
   <g id="patch_24">
    <path d="M 36 640.8 
L 259.2 640.8 
" style="fill: none; stroke: #000000; stroke-width: 0.8; stroke-linejoin: miter; stroke-linecap: square"/>
   </g>
   <g id="patch_25">
    <path d="M 36 520.278261 
L 259.2 520.278261 
" style="fill: none; stroke: #000000; stroke-width: 0.8; stroke-linejoin: miter; stroke-linecap: square"/>
   </g>
  </g>
  <g id="axes_5">
   <g id="patch_26">
    <path d="M 90.4608 351.547826 
L 259.2 351.547826 
L 259.2 231.026087 
L 90.4608 231.026087 
z
" clip-path="url(#p17ca6c21b6)" style="opacity: 0.1"/>
   </g>
   <g id="matplotlib.axis_9">
    <g id="ytick_25">
     <g id="line2d_90">
      <defs>
       <path id="mab8e31bab0" d="M 0 0 
L 3.5 0 
" style="stroke: #000000; stroke-width: 0.8"/>
      </defs>
      <g>
       <use xlink:href="#mab8e31bab0" x="259.2" y="332.64003" style="stroke: #000000; stroke-width: 0.8"/>
      </g>
     </g>
     <g id="text_41">
      <!-- −80 -->
      <g style="fill: #1f77b4" transform="translate(266.2 335.679405) scale(0.08 -0.08)">
       <use xlink:href="#DejaVuSans-2212"/>
       <use xlink:href="#DejaVuSans-38" transform="translate(83.789062 0)"/>
       <use xlink:href="#DejaVuSans-30" transform="translate(147.412109 0)"/>
      </g>
     </g>
    </g>
    <g id="ytick_26">
     <g id="line2d_91">
      <g>
       <use xlink:href="#mab8e31bab0" x="259.2" y="299.760765" style="stroke: #000000; stroke-width: 0.8"/>
      </g>
     </g>
     <g id="text_42">
      <!-- −60 -->
      <g style="fill: #1f77b4" transform="translate(266.2 302.80014) scale(0.08 -0.08)">
       <use xlink:href="#DejaVuSans-2212"/>
       <use xlink:href="#DejaVuSans-36" transform="translate(83.789062 0)"/>
       <use xlink:href="#DejaVuSans-30" transform="translate(147.412109 0)"/>
      </g>
     </g>
    </g>
    <g id="ytick_27">
     <g id="line2d_92">
      <g>
       <use xlink:href="#mab8e31bab0" x="259.2" y="266.8815" style="stroke: #000000; stroke-width: 0.8"/>
      </g>
     </g>
     <g id="text_43">
      <!-- −40 -->
      <g style="fill: #1f77b4" transform="translate(266.2 269.920875) scale(0.08 -0.08)">
       <use xlink:href="#DejaVuSans-2212"/>
       <use xlink:href="#DejaVuSans-34" transform="translate(83.789062 0)"/>
       <use xlink:href="#DejaVuSans-30" transform="translate(147.412109 0)"/>
      </g>
     </g>
    </g>
    <g id="ytick_28">
     <g id="line2d_93">
      <g>
       <use xlink:href="#mab8e31bab0" x="259.2" y="234.002236" style="stroke: #000000; stroke-width: 0.8"/>
      </g>
     </g>
     <g id="text_44">
      <!-- −20 -->
      <g style="fill: #1f77b4" transform="translate(266.2 237.041611) scale(0.08 -0.08)">
       <use xlink:href="#DejaVuSans-2212"/>
       <use xlink:href="#DejaVuSans-32" transform="translate(83.789062 0)"/>
       <use xlink:href="#DejaVuSans-30" transform="translate(147.412109 0)"/>
      </g>
     </g>
    </g>
    <g id="text_45">
     <!-- $log_{10}f O_2$ -->
     <g style="fill: #1f77b4" transform="translate(293.16375 307.526957) rotate(-90) scale(0.08 -0.08)">
      <defs>
       <path id="DejaVuSans-Oblique-6c" d="M 1172 4863 
L 1747 4863 
L 800 0 
L 225 0 
L 1172 4863 
z
" transform="scale(0.015625)"/>
       <path id="DejaVuSans-Oblique-6f" d="M 1625 -91 
Q 1009 -91 651 289 
Q 294 669 294 1325 
Q 294 1706 417 2101 
Q 541 2497 738 2766 
Q 1047 3184 1428 3384 
Q 1809 3584 2291 3584 
Q 2888 3584 3255 3212 
Q 3622 2841 3622 2241 
Q 3622 1825 3500 1412 
Q 3378 1000 3181 728 
Q 2875 309 2494 109 
Q 2113 -91 1625 -91 
z
M 891 1344 
Q 891 869 1089 633 
Q 1288 397 1691 397 
Q 2269 397 2648 901 
Q 3028 1406 3028 2181 
Q 3028 2634 2825 2865 
Q 2622 3097 2228 3097 
Q 1903 3097 1650 2945 
Q 1397 2794 1197 2484 
Q 1050 2253 970 1956 
Q 891 1659 891 1344 
z
" transform="scale(0.015625)"/>
       <path id="DejaVuSans-Oblique-67" d="M 3816 3500 
L 3219 434 
Q 3047 -456 2561 -893 
Q 2075 -1331 1253 -1331 
Q 950 -1331 690 -1286 
Q 431 -1241 206 -1147 
L 313 -588 
Q 525 -725 762 -790 
Q 1000 -856 1269 -856 
Q 1816 -856 2167 -557 
Q 2519 -259 2631 300 
L 2681 563 
Q 2441 288 2122 144 
Q 1803 0 1434 0 
Q 903 0 598 351 
Q 294 703 294 1319 
Q 294 1803 478 2267 
Q 663 2731 997 3091 
Q 1219 3328 1514 3456 
Q 1809 3584 2131 3584 
Q 2484 3584 2746 3420 
Q 3009 3256 3138 2956 
L 3238 3500 
L 3816 3500 
z
M 2950 2216 
Q 2950 2641 2750 2872 
Q 2550 3103 2181 3103 
Q 1953 3103 1747 3012 
Q 1541 2922 1394 2759 
Q 1156 2491 1023 2127 
Q 891 1763 891 1375 
Q 891 944 1092 712 
Q 1294 481 1672 481 
Q 2219 481 2584 976 
Q 2950 1472 2950 2216 
z
" transform="scale(0.015625)"/>
       <path id="DejaVuSans-Oblique-66" d="M 3059 4863 
L 2969 4384 
L 2419 4384 
Q 2106 4384 1964 4261 
Q 1822 4138 1753 3809 
L 1691 3500 
L 2638 3500 
L 2553 3053 
L 1606 3053 
L 1013 0 
L 434 0 
L 1031 3053 
L 481 3053 
L 563 3500 
L 1113 3500 
L 1159 3744 
Q 1278 4363 1576 4613 
Q 1875 4863 2516 4863 
L 3059 4863 
z
" transform="scale(0.015625)"/>
      </defs>
      <use xlink:href="#DejaVuSans-Oblique-6c" transform="translate(0 0.015625)"/>
      <use xlink:href="#DejaVuSans-Oblique-6f" transform="translate(27.783203 0.015625)"/>
      <use xlink:href="#DejaVuSans-Oblique-67" transform="translate(88.964844 0.015625)"/>
      <use xlink:href="#DejaVuSans-31" transform="translate(152.441406 -16.390625) scale(0.7)"/>
      <use xlink:href="#DejaVuSans-30" transform="translate(196.977539 -16.390625) scale(0.7)"/>
      <use xlink:href="#DejaVuSans-Oblique-66" transform="translate(244.248047 0.015625)"/>
      <use xlink:href="#DejaVuSans-Oblique-4f" transform="translate(279.453125 0.015625)"/>
      <use xlink:href="#DejaVuSans-32" transform="translate(358.164062 -16.390625) scale(0.7)"/>
     </g>
    </g>
   </g>
   <g id="line2d_94">
    <path d="M 36.8928 341.604561 
L 36.8928 341.604561 
L 36.8928 341.606205 
L 36.8928 341.622645 
L 36.8928 341.782109 
L 36.910656 342.655054 
L 36.91512 342.793146 
L 36.964224 343.883094 
L 37.07136 344.887556 
L 37.116 345.116067 
L 37.432944 345.893661 
L 38.267712 346.069565 
L 39.093552 345.625695 
L 44.919072 339.950734 
L 53.436384 330.895785 
L 57.101328 327.149192 
L 66.855168 317.831209 
L 77.979456 308.380064 
L 90.5724 299.060437 
L 104.92416 289.956168 
L 121.302576 281.060683 
L 139.627296 272.291783 
L 142.359264 271.073607 
L 142.363728 271.071963 
L 147.238416 269.031804 
L 148.0464 268.701368 
L 149.3856 268.157216 
L 157.050288 265.147119 
L 165.206016 262.128803 
L 173.884032 259.105554 
L 183.137904 256.079018 
L 193.003344 253.049194 
L 203.524992 250.021014 
L 214.720704 246.996121 
L 226.572624 243.989312 
L 238.991472 241.017027 
L 242.763552 240.14737 
L 256.999248 236.979453 
L 258.9768 236.552023 
L 259.17768 236.50928 
L 259.2 236.504348 
L 259.2 236.504348 
L 259.2 236.504348 
L 259.2 236.504348 
L 259.2 236.504348 
" clip-path="url(#p17ca6c21b6)" style="fill: none; stroke: #1f77b4; stroke-width: 1.5; stroke-linecap: square"/>
   </g>
   <g id="patch_27">
    <path d="M 36 351.547826 
L 36 231.026087 
" style="fill: none; stroke: #000000; stroke-width: 0.8; stroke-linejoin: miter; stroke-linecap: square"/>
   </g>
   <g id="patch_28">
    <path d="M 259.2 351.547826 
L 259.2 231.026087 
" style="fill: none; stroke: #000000; stroke-width: 0.8; stroke-linejoin: miter; stroke-linecap: square"/>
   </g>
   <g id="patch_29">
    <path d="M 36 351.547826 
L 259.2 351.547826 
" style="fill: none; stroke: #000000; stroke-width: 0.8; stroke-linejoin: miter; stroke-linecap: square"/>
   </g>
   <g id="patch_30">
    <path d="M 36 231.026087 
L 259.2 231.026087 
" style="fill: none; stroke: #000000; stroke-width: 0.8; stroke-linejoin: miter; stroke-linecap: square"/>
   </g>
  </g>
 </g>
 <defs>
  <clipPath id="pac1c4b6ae8">
   <rect x="36" y="86.4" width="223.2" height="120.521739"/>
  </clipPath>
  <clipPath id="p17ca6c21b6">
   <rect x="36" y="231.026087" width="223.2" height="120.521739"/>
  </clipPath>
  <clipPath id="p4ec7337080">
   <rect x="36" y="375.652174" width="223.2" height="120.521739"/>
  </clipPath>
  <clipPath id="p3b125537c8">
   <rect x="36" y="520.278261" width="223.2" height="120.521739"/>
  </clipPath>
 </defs>
</svg>
